STARTFONT 2.1
FONT -Pixel32 Chinese Pixel Font-Book-R-Book--12-12-75-75-c-80-iso10646-1
SIZE 12 75 75
FONTBOUNDINGBOX 22 15 -10 -2
STARTPROPERTIES 10
FAMILY_NAME "Pixel32 Chinese Pixel Font"
WEIGHT_NAME "Book"
FONT_VERSION "2.0"
COPYRIGHT "Copyright(c) 2022 32comic.com"
FOUNDRY "FontForge"
FONT_ASCENT 11
FONT_DESCENT 1
POINT_SIZE 12
X_HEIGHT 5
CAP_HEIGHT 8
ENDPROPERTIES
CHARS 8946
STARTCHAR U+0000
ENCODING 0
SWIDTH 545 0
DWIDTH 12 0
BBX 0 0 0 0
BITMAP
ENDCHAR
STARTCHAR U+000A
ENCODING 10
SWIDTH 545 0
DWIDTH 12 0
BBX 0 0 0 0
BITMAP
ENDCHAR
STARTCHAR U+0020
ENCODING 32
SWIDTH 272 0
DWIDTH 6 0
BBX 0 0 0 0
BITMAP
ENDCHAR
STARTCHAR U+0021
ENCODING 33
SWIDTH 272 0
DWIDTH 6 0
BBX 1 9 2 0
BITMAP
80
80
80
80
80
80
00
00
80
ENDCHAR
STARTCHAR U+0022
ENCODING 34
SWIDTH 272 0
DWIDTH 6 0
BBX 3 2 1 8
BITMAP
A0
A0
ENDCHAR
STARTCHAR U+0023
ENCODING 35
SWIDTH 272 0
DWIDTH 6 0
BBX 5 9 0 0
BITMAP
50
50
F8
50
50
50
F8
50
50
ENDCHAR
STARTCHAR U+0024
ENCODING 36
SWIDTH 272 0
DWIDTH 6 0
BBX 5 9 0 0
BITMAP
20
78
A0
A0
70
28
28
F0
20
ENDCHAR
STARTCHAR U+0025
ENCODING 37
SWIDTH 272 0
DWIDTH 6 0
BBX 5 9 0 0
BITMAP
40
A0
48
10
20
40
90
28
10
ENDCHAR
STARTCHAR U+0026
ENCODING 38
SWIDTH 272 0
DWIDTH 6 0
BBX 6 9 0 0
BITMAP
30
48
48
30
64
94
88
94
64
ENDCHAR
STARTCHAR U+0027
ENCODING 39
SWIDTH 272 0
DWIDTH 6 0
BBX 1 2 2 8
BITMAP
80
80
ENDCHAR
STARTCHAR U+0028
ENCODING 40
SWIDTH 272 0
DWIDTH 6 0
BBX 3 11 1 -1
BITMAP
20
40
40
80
80
80
80
80
40
40
20
ENDCHAR
STARTCHAR U+0029
ENCODING 41
SWIDTH 272 0
DWIDTH 6 0
BBX 3 11 1 -1
BITMAP
80
40
40
20
20
20
20
20
40
40
80
ENDCHAR
STARTCHAR U+002A
ENCODING 42
SWIDTH 272 0
DWIDTH 6 0
BBX 5 7 0 1
BITMAP
20
A8
70
20
70
A8
20
ENDCHAR
STARTCHAR U+002B
ENCODING 43
SWIDTH 272 0
DWIDTH 6 0
BBX 5 5 0 2
BITMAP
20
20
F8
20
20
ENDCHAR
STARTCHAR U+002C
ENCODING 44
SWIDTH 272 0
DWIDTH 6 0
BBX 2 3 1 -1
BITMAP
40
40
80
ENDCHAR
STARTCHAR U+002D
ENCODING 45
SWIDTH 272 0
DWIDTH 6 0
BBX 5 1 0 4
BITMAP
F8
ENDCHAR
STARTCHAR U+002E
ENCODING 46
SWIDTH 272 0
DWIDTH 6 0
BBX 1 1 2 1
BITMAP
80
ENDCHAR
STARTCHAR U+002F
ENCODING 47
SWIDTH 272 0
DWIDTH 6 0
BBX 5 10 0 -1
BITMAP
08
08
10
10
20
20
40
40
80
80
ENDCHAR
STARTCHAR U+0030
ENCODING 48
SWIDTH 272 0
DWIDTH 6 0
BBX 5 9 0 0
BITMAP
70
88
88
88
88
88
88
88
70
ENDCHAR
STARTCHAR U+0031
ENCODING 49
SWIDTH 272 0
DWIDTH 6 0
BBX 3 9 0 0
BITMAP
20
60
A0
20
20
20
20
20
20
ENDCHAR
STARTCHAR U+0032
ENCODING 50
SWIDTH 272 0
DWIDTH 6 0
BBX 5 9 0 0
BITMAP
70
88
88
08
10
20
40
80
F8
ENDCHAR
STARTCHAR U+0033
ENCODING 51
SWIDTH 272 0
DWIDTH 6 0
BBX 5 9 0 0
BITMAP
70
88
08
08
70
08
08
88
70
ENDCHAR
STARTCHAR U+0034
ENCODING 52
SWIDTH 272 0
DWIDTH 6 0
BBX 5 9 0 0
BITMAP
30
30
50
50
90
90
F8
10
10
ENDCHAR
STARTCHAR U+0035
ENCODING 53
SWIDTH 272 0
DWIDTH 6 0
BBX 5 9 0 0
BITMAP
F8
80
80
F0
08
08
88
88
70
ENDCHAR
STARTCHAR U+0036
ENCODING 54
SWIDTH 272 0
DWIDTH 6 0
BBX 5 9 0 0
BITMAP
30
40
80
F0
88
88
88
88
70
ENDCHAR
STARTCHAR U+0037
ENCODING 55
SWIDTH 272 0
DWIDTH 6 0
BBX 5 9 0 0
BITMAP
F8
08
10
10
20
20
40
40
40
ENDCHAR
STARTCHAR U+0038
ENCODING 56
SWIDTH 272 0
DWIDTH 6 0
BBX 5 9 0 0
BITMAP
70
88
88
50
20
50
88
88
70
ENDCHAR
STARTCHAR U+0039
ENCODING 57
SWIDTH 272 0
DWIDTH 6 0
BBX 5 9 0 0
BITMAP
70
88
88
88
88
78
08
10
60
ENDCHAR
STARTCHAR U+003A
ENCODING 58
SWIDTH 272 0
DWIDTH 6 0
BBX 1 4 2 1
BITMAP
80
00
00
80
ENDCHAR
STARTCHAR U+003B
ENCODING 59
SWIDTH 272 0
DWIDTH 6 0
BBX 2 6 1 -1
BITMAP
40
00
00
40
40
80
ENDCHAR
STARTCHAR U+003C
ENCODING 60
SWIDTH 272 0
DWIDTH 6 0
BBX 5 9 0 0
BITMAP
08
10
20
40
80
40
20
10
08
ENDCHAR
STARTCHAR U+003D
ENCODING 61
SWIDTH 272 0
DWIDTH 6 0
BBX 5 3 0 3
BITMAP
F8
00
F8
ENDCHAR
STARTCHAR U+003E
ENCODING 62
SWIDTH 272 0
DWIDTH 6 0
BBX 5 9 0 0
BITMAP
80
40
20
10
08
10
20
40
80
ENDCHAR
STARTCHAR U+003F
ENCODING 63
SWIDTH 272 0
DWIDTH 6 0
BBX 5 9 0 0
BITMAP
70
88
88
08
10
20
20
00
20
ENDCHAR
STARTCHAR U+0040
ENCODING 64
SWIDTH 272 0
DWIDTH 6 0
BBX 5 9 0 0
BITMAP
70
88
B8
A8
A8
A8
B8
80
70
ENDCHAR
STARTCHAR U+0041
ENCODING 65
SWIDTH 272 0
DWIDTH 6 0
BBX 5 9 0 0
BITMAP
20
20
50
50
50
F8
88
88
88
ENDCHAR
STARTCHAR U+0042
ENCODING 66
SWIDTH 272 0
DWIDTH 6 0
BBX 5 9 0 0
BITMAP
F0
88
88
88
F0
88
88
88
F0
ENDCHAR
STARTCHAR U+0043
ENCODING 67
SWIDTH 272 0
DWIDTH 6 0
BBX 5 9 0 0
BITMAP
70
88
80
80
80
80
80
88
70
ENDCHAR
STARTCHAR U+0044
ENCODING 68
SWIDTH 272 0
DWIDTH 6 0
BBX 5 9 0 0
BITMAP
E0
90
88
88
88
88
88
90
E0
ENDCHAR
STARTCHAR U+0045
ENCODING 69
SWIDTH 272 0
DWIDTH 6 0
BBX 5 9 0 0
BITMAP
F8
80
80
80
F0
80
80
80
F8
ENDCHAR
STARTCHAR U+0046
ENCODING 70
SWIDTH 272 0
DWIDTH 6 0
BBX 5 9 0 0
BITMAP
F8
80
80
80
F0
80
80
80
80
ENDCHAR
STARTCHAR U+0047
ENCODING 71
SWIDTH 272 0
DWIDTH 6 0
BBX 5 9 0 0
BITMAP
70
88
80
80
B8
88
88
88
78
ENDCHAR
STARTCHAR U+0048
ENCODING 72
SWIDTH 272 0
DWIDTH 6 0
BBX 5 9 0 0
BITMAP
88
88
88
88
F8
88
88
88
88
ENDCHAR
STARTCHAR U+0049
ENCODING 73
SWIDTH 272 0
DWIDTH 6 0
BBX 3 9 1 0
BITMAP
E0
40
40
40
40
40
40
40
E0
ENDCHAR
STARTCHAR U+004A
ENCODING 74
SWIDTH 272 0
DWIDTH 6 0
BBX 4 9 1 0
BITMAP
10
10
10
10
10
10
10
10
E0
ENDCHAR
STARTCHAR U+004B
ENCODING 75
SWIDTH 272 0
DWIDTH 6 0
BBX 5 9 0 0
BITMAP
88
90
A0
C0
C0
A0
90
88
88
ENDCHAR
STARTCHAR U+004C
ENCODING 76
SWIDTH 272 0
DWIDTH 6 0
BBX 5 9 0 0
BITMAP
80
80
80
80
80
80
80
80
F8
ENDCHAR
STARTCHAR U+004D
ENCODING 77
SWIDTH 272 0
DWIDTH 6 0
BBX 5 9 0 0
BITMAP
88
D8
A8
88
88
88
88
88
88
ENDCHAR
STARTCHAR U+004E
ENCODING 78
SWIDTH 272 0
DWIDTH 6 0
BBX 5 9 0 0
BITMAP
88
C8
A8
98
88
88
88
88
88
ENDCHAR
STARTCHAR U+004F
ENCODING 79
SWIDTH 272 0
DWIDTH 6 0
BBX 5 9 0 0
BITMAP
70
88
88
88
88
88
88
88
70
ENDCHAR
STARTCHAR U+0050
ENCODING 80
SWIDTH 272 0
DWIDTH 6 0
BBX 5 9 0 0
BITMAP
F0
88
88
88
F0
80
80
80
80
ENDCHAR
STARTCHAR U+0051
ENCODING 81
SWIDTH 272 0
DWIDTH 6 0
BBX 6 11 0 -2
BITMAP
70
88
88
88
88
88
88
88
70
08
0C
ENDCHAR
STARTCHAR U+0052
ENCODING 82
SWIDTH 272 0
DWIDTH 6 0
BBX 5 9 0 0
BITMAP
F0
88
88
88
F0
A0
90
88
88
ENDCHAR
STARTCHAR U+0053
ENCODING 83
SWIDTH 272 0
DWIDTH 6 0
BBX 5 9 0 0
BITMAP
70
88
80
80
70
08
08
88
70
ENDCHAR
STARTCHAR U+0054
ENCODING 84
SWIDTH 272 0
DWIDTH 6 0
BBX 5 9 0 0
BITMAP
F8
20
20
20
20
20
20
20
20
ENDCHAR
STARTCHAR U+0055
ENCODING 85
SWIDTH 272 0
DWIDTH 6 0
BBX 5 9 0 0
BITMAP
88
88
88
88
88
88
88
88
70
ENDCHAR
STARTCHAR U+0056
ENCODING 86
SWIDTH 272 0
DWIDTH 6 0
BBX 5 9 0 0
BITMAP
88
88
88
88
50
50
50
20
20
ENDCHAR
STARTCHAR U+0057
ENCODING 87
SWIDTH 272 0
DWIDTH 6 0
BBX 5 9 0 0
BITMAP
A8
A8
A8
A8
A8
A8
50
50
50
ENDCHAR
STARTCHAR U+0058
ENCODING 88
SWIDTH 272 0
DWIDTH 6 0
BBX 5 9 0 0
BITMAP
88
88
50
50
20
50
50
88
88
ENDCHAR
STARTCHAR U+0059
ENCODING 89
SWIDTH 272 0
DWIDTH 6 0
BBX 5 9 0 0
BITMAP
88
88
50
50
20
20
20
20
20
ENDCHAR
STARTCHAR U+005A
ENCODING 90
SWIDTH 272 0
DWIDTH 6 0
BBX 5 9 0 0
BITMAP
F8
08
10
10
20
40
40
80
F8
ENDCHAR
STARTCHAR U+005B
ENCODING 91
SWIDTH 272 0
DWIDTH 6 0
BBX 3 11 1 -1
BITMAP
E0
80
80
80
80
80
80
80
80
80
E0
ENDCHAR
STARTCHAR U+005C
ENCODING 92
SWIDTH 272 0
DWIDTH 6 0
BBX 5 10 0 -1
BITMAP
80
80
40
40
20
20
10
10
08
08
ENDCHAR
STARTCHAR U+005D
ENCODING 93
SWIDTH 272 0
DWIDTH 6 0
BBX 3 11 1 -1
BITMAP
E0
20
20
20
20
20
20
20
20
20
E0
ENDCHAR
STARTCHAR U+005E
ENCODING 94
SWIDTH 272 0
DWIDTH 6 0
BBX 5 3 0 7
BITMAP
20
50
88
ENDCHAR
STARTCHAR U+005F
ENCODING 95
SWIDTH 272 0
DWIDTH 6 0
BBX 4 1 1 -1
BITMAP
F0
ENDCHAR
STARTCHAR U+0060
ENCODING 96
SWIDTH 272 0
DWIDTH 6 0
BBX 2 2 2 8
BITMAP
80
40
ENDCHAR
STARTCHAR U+0061
ENCODING 97
SWIDTH 272 0
DWIDTH 6 0
BBX 5 6 0 0
BITMAP
70
08
78
88
88
78
ENDCHAR
STARTCHAR U+0062
ENCODING 98
SWIDTH 272 0
DWIDTH 6 0
BBX 5 9 0 0
BITMAP
80
80
80
F0
88
88
88
88
F0
ENDCHAR
STARTCHAR U+0063
ENCODING 99
SWIDTH 272 0
DWIDTH 6 0
BBX 5 6 0 0
BITMAP
70
88
80
80
88
70
ENDCHAR
STARTCHAR U+0064
ENCODING 100
SWIDTH 272 0
DWIDTH 6 0
BBX 5 9 0 0
BITMAP
08
08
08
78
88
88
88
88
78
ENDCHAR
STARTCHAR U+0065
ENCODING 101
SWIDTH 272 0
DWIDTH 6 0
BBX 5 6 0 0
BITMAP
70
88
F8
80
88
70
ENDCHAR
STARTCHAR U+0066
ENCODING 102
SWIDTH 272 0
DWIDTH 6 0
BBX 5 9 0 0
BITMAP
18
20
20
20
F8
20
20
20
20
ENDCHAR
STARTCHAR U+0067
ENCODING 103
SWIDTH 272 0
DWIDTH 6 0
BBX 5 8 0 -1
BITMAP
70
88
88
88
78
08
88
70
ENDCHAR
STARTCHAR U+0068
ENCODING 104
SWIDTH 272 0
DWIDTH 6 0
BBX 5 9 0 0
BITMAP
80
80
80
B0
C8
88
88
88
88
ENDCHAR
STARTCHAR U+0069
ENCODING 105
SWIDTH 272 0
DWIDTH 6 0
BBX 3 9 1 0
BITMAP
40
00
00
C0
40
40
40
40
E0
ENDCHAR
STARTCHAR U+006A
ENCODING 106
SWIDTH 272 0
DWIDTH 6 0
BBX 4 11 0 -1
BITMAP
10
00
00
30
10
10
10
10
10
10
E0
ENDCHAR
STARTCHAR U+006B
ENCODING 107
SWIDTH 272 0
DWIDTH 6 0
BBX 5 9 0 0
BITMAP
80
80
80
90
A0
C0
A0
90
88
ENDCHAR
STARTCHAR U+006C
ENCODING 108
SWIDTH 272 0
DWIDTH 6 0
BBX 3 9 1 0
BITMAP
C0
40
40
40
40
40
40
40
60
ENDCHAR
STARTCHAR U+006D
ENCODING 109
SWIDTH 272 0
DWIDTH 6 0
BBX 5 6 0 0
BITMAP
F0
A8
A8
A8
A8
A8
ENDCHAR
STARTCHAR U+006E
ENCODING 110
SWIDTH 272 0
DWIDTH 6 0
BBX 5 6 0 0
BITMAP
B0
C8
88
88
88
88
ENDCHAR
STARTCHAR U+006F
ENCODING 111
SWIDTH 272 0
DWIDTH 6 0
BBX 5 6 0 0
BITMAP
70
88
88
88
88
70
ENDCHAR
STARTCHAR U+0070
ENCODING 112
SWIDTH 272 0
DWIDTH 6 0
BBX 5 8 0 -1
BITMAP
F0
88
88
88
F0
80
80
80
ENDCHAR
STARTCHAR U+0071
ENCODING 113
SWIDTH 272 0
DWIDTH 6 0
BBX 5 8 0 -1
BITMAP
78
88
88
88
78
08
08
08
ENDCHAR
STARTCHAR U+0072
ENCODING 114
SWIDTH 272 0
DWIDTH 6 0
BBX 4 6 0 0
BITMAP
B0
C0
80
80
80
80
ENDCHAR
STARTCHAR U+0073
ENCODING 115
SWIDTH 272 0
DWIDTH 6 0
BBX 5 7 0 0
BITMAP
70
88
80
70
08
88
70
ENDCHAR
STARTCHAR U+0074
ENCODING 116
SWIDTH 272 0
DWIDTH 6 0
BBX 4 9 0 0
BITMAP
40
40
40
F0
40
40
40
40
30
ENDCHAR
STARTCHAR U+0075
ENCODING 117
SWIDTH 272 0
DWIDTH 6 0
BBX 5 6 0 0
BITMAP
88
88
88
88
88
78
ENDCHAR
STARTCHAR U+0076
ENCODING 118
SWIDTH 272 0
DWIDTH 6 0
BBX 5 6 0 0
BITMAP
88
88
50
50
20
20
ENDCHAR
STARTCHAR U+0077
ENCODING 119
SWIDTH 272 0
DWIDTH 6 0
BBX 5 6 0 0
BITMAP
A8
A8
A8
A8
50
50
ENDCHAR
STARTCHAR U+0078
ENCODING 120
SWIDTH 272 0
DWIDTH 6 0
BBX 5 6 0 0
BITMAP
88
50
20
20
50
88
ENDCHAR
STARTCHAR U+0079
ENCODING 121
SWIDTH 272 0
DWIDTH 6 0
BBX 5 8 0 -2
BITMAP
88
88
50
20
20
40
40
80
ENDCHAR
STARTCHAR U+007A
ENCODING 122
SWIDTH 272 0
DWIDTH 6 0
BBX 5 6 0 0
BITMAP
F8
10
20
40
80
F8
ENDCHAR
STARTCHAR U+007B
ENCODING 123
SWIDTH 272 0
DWIDTH 6 0
BBX 5 11 0 -1
BITMAP
18
20
20
20
20
C0
20
20
20
20
18
ENDCHAR
STARTCHAR U+007C
ENCODING 124
SWIDTH 272 0
DWIDTH 6 0
BBX 1 11 2 -1
BITMAP
80
80
80
80
80
80
80
80
80
80
80
ENDCHAR
STARTCHAR U+007D
ENCODING 125
SWIDTH 272 0
DWIDTH 6 0
BBX 5 11 0 -1
BITMAP
C0
20
20
20
20
18
20
20
20
20
C0
ENDCHAR
STARTCHAR U+007E
ENCODING 126
SWIDTH 272 0
DWIDTH 6 0
BBX 5 2 0 4
BITMAP
68
90
ENDCHAR
STARTCHAR U+00A0
ENCODING 160
SWIDTH 545 0
DWIDTH 12 0
BBX 0 0 0 0
BITMAP
ENDCHAR
STARTCHAR U+00A2
ENCODING 162
SWIDTH 272 0
DWIDTH 6 0
BBX 5 10 0 0
BITMAP
20
20
78
A0
A0
A0
A0
78
20
20
ENDCHAR
STARTCHAR U+00A3
ENCODING 163
SWIDTH 272 0
DWIDTH 6 0
BBX 5 10 0 0
BITMAP
18
20
20
20
20
F8
20
20
40
F8
ENDCHAR
STARTCHAR U+00A5
ENCODING 165
SWIDTH 272 0
DWIDTH 6 0
BBX 5 9 0 0
BITMAP
88
88
50
50
F8
20
F8
20
20
ENDCHAR
STARTCHAR U+00A7
ENCODING 167
SWIDTH 545 0
DWIDTH 12 0
BBX 4 9 4 0
BITMAP
70
80
80
60
90
60
10
10
E0
ENDCHAR
STARTCHAR U+00B0
ENCODING 176
SWIDTH 545 0
DWIDTH 12 0
BBX 3 3 4 7
BITMAP
40
A0
40
ENDCHAR
STARTCHAR U+00B1
ENCODING 177
SWIDTH 272 0
DWIDTH 6 0
BBX 5 7 0 0
BITMAP
20
20
F8
20
20
00
F8
ENDCHAR
STARTCHAR U+00B7
ENCODING 183
SWIDTH 272 0
DWIDTH 6 0
BBX 1 1 2 4
BITMAP
80
ENDCHAR
STARTCHAR U+00D7
ENCODING 215
SWIDTH 272 0
DWIDTH 6 0
BBX 5 5 0 2
BITMAP
88
50
20
50
88
ENDCHAR
STARTCHAR U+00F7
ENCODING 247
SWIDTH 227 0
DWIDTH 5 0
BBX 5 5 0 2
BITMAP
20
00
F8
00
20
ENDCHAR
STARTCHAR U+0161
ENCODING 353
SWIDTH 272 0
DWIDTH 6 0
BBX 3 1 1 9
BITMAP
A0
ENDCHAR
STARTCHAR U+02C7
ENCODING 711
SWIDTH 409 0
DWIDTH 9 0
BBX 3 2 3 8
BITMAP
A0
40
ENDCHAR
STARTCHAR U+02C9
ENCODING 713
SWIDTH 454 0
DWIDTH 10 0
BBX 4 1 3 5
BITMAP
F0
ENDCHAR
STARTCHAR U+0361
ENCODING 865
SWIDTH 0 0
DWIDTH 0 0
BBX 0 0 0 0
BITMAP
ENDCHAR
STARTCHAR U+0391
ENCODING 913
SWIDTH 545 0
DWIDTH 12 0
BBX 5 9 4 0
BITMAP
20
50
50
50
88
88
F8
88
88
ENDCHAR
STARTCHAR U+0392
ENCODING 914
SWIDTH 545 0
DWIDTH 12 0
BBX 5 9 4 0
BITMAP
F0
88
88
88
F0
88
88
88
F0
ENDCHAR
STARTCHAR U+0393
ENCODING 915
SWIDTH 545 0
DWIDTH 12 0
BBX 4 9 4 0
BITMAP
F0
80
80
80
80
80
80
80
80
ENDCHAR
STARTCHAR U+0394
ENCODING 916
SWIDTH 545 0
DWIDTH 12 0
BBX 5 9 4 0
BITMAP
20
20
50
50
50
88
88
88
F8
ENDCHAR
STARTCHAR U+0395
ENCODING 917
SWIDTH 545 0
DWIDTH 12 0
BBX 5 9 4 0
BITMAP
F8
80
80
80
F0
80
80
80
F8
ENDCHAR
STARTCHAR U+0396
ENCODING 918
SWIDTH 545 0
DWIDTH 12 0
BBX 5 9 4 0
BITMAP
F8
08
08
10
20
40
80
80
F8
ENDCHAR
STARTCHAR U+0397
ENCODING 919
SWIDTH 545 0
DWIDTH 12 0
BBX 5 9 4 0
BITMAP
88
88
88
88
F8
88
88
88
88
ENDCHAR
STARTCHAR U+0398
ENCODING 920
SWIDTH 545 0
DWIDTH 12 0
BBX 7 9 3 0
BITMAP
38
44
82
82
BA
82
82
44
38
ENDCHAR
STARTCHAR U+0399
ENCODING 921
SWIDTH 545 0
DWIDTH 12 0
BBX 1 9 6 0
BITMAP
80
80
80
80
80
80
80
80
80
ENDCHAR
STARTCHAR U+039A
ENCODING 922
SWIDTH 545 0
DWIDTH 12 0
BBX 5 9 4 0
BITMAP
88
90
A0
C0
C0
A0
90
88
88
ENDCHAR
STARTCHAR U+039B
ENCODING 923
SWIDTH 545 0
DWIDTH 12 0
BBX 5 9 4 0
BITMAP
20
50
50
50
50
88
88
88
88
ENDCHAR
STARTCHAR U+039C
ENCODING 924
SWIDTH 545 0
DWIDTH 12 0
BBX 5 9 4 0
BITMAP
88
D8
A8
A8
A8
88
88
88
88
ENDCHAR
STARTCHAR U+039D
ENCODING 925
SWIDTH 545 0
DWIDTH 12 0
BBX 5 9 4 0
BITMAP
88
C8
C8
A8
A8
98
98
88
88
ENDCHAR
STARTCHAR U+039E
ENCODING 926
SWIDTH 545 0
DWIDTH 12 0
BBX 5 9 4 0
BITMAP
F8
00
00
00
F8
00
00
00
F8
ENDCHAR
STARTCHAR U+039F
ENCODING 927
SWIDTH 545 0
DWIDTH 12 0
BBX 7 9 3 0
BITMAP
38
44
82
82
82
82
82
44
38
ENDCHAR
STARTCHAR U+03A0
ENCODING 928
SWIDTH 545 0
DWIDTH 12 0
BBX 5 9 4 0
BITMAP
F8
88
88
88
88
88
88
88
88
ENDCHAR
STARTCHAR U+03A1
ENCODING 929
SWIDTH 545 0
DWIDTH 12 0
BBX 5 9 4 0
BITMAP
F0
88
88
88
F0
80
80
80
80
ENDCHAR
STARTCHAR U+03A3
ENCODING 931
SWIDTH 545 0
DWIDTH 12 0
BBX 5 9 4 0
BITMAP
F8
80
40
20
10
20
40
80
F8
ENDCHAR
STARTCHAR U+03A4
ENCODING 932
SWIDTH 545 0
DWIDTH 12 0
BBX 5 9 4 0
BITMAP
F8
20
20
20
20
20
20
20
20
ENDCHAR
STARTCHAR U+03A5
ENCODING 933
SWIDTH 545 0
DWIDTH 12 0
BBX 5 9 4 0
BITMAP
88
50
20
20
20
20
20
20
20
ENDCHAR
STARTCHAR U+03A6
ENCODING 934
SWIDTH 545 0
DWIDTH 12 0
BBX 7 7 3 1
BITMAP
10
7C
92
92
92
7C
10
ENDCHAR
STARTCHAR U+03A7
ENCODING 935
SWIDTH 545 0
DWIDTH 12 0
BBX 5 9 4 0
BITMAP
88
88
50
50
20
50
50
88
88
ENDCHAR
STARTCHAR U+03A8
ENCODING 936
SWIDTH 545 0
DWIDTH 12 0
BBX 5 9 4 0
BITMAP
A8
A8
A8
A8
70
20
20
20
20
ENDCHAR
STARTCHAR U+03A9
ENCODING 937
SWIDTH 545 0
DWIDTH 12 0
BBX 7 9 3 0
BITMAP
38
44
82
82
82
82
44
28
EE
ENDCHAR
STARTCHAR U+03B1
ENCODING 945
SWIDTH 272 0
DWIDTH 6 0
BBX 6 6 0 0
BITMAP
74
88
88
88
88
74
ENDCHAR
STARTCHAR U+03B2
ENCODING 946
SWIDTH 272 0
DWIDTH 6 0
BBX 5 9 0 0
BITMAP
60
90
90
F0
88
88
88
F0
80
ENDCHAR
STARTCHAR U+03B3
ENCODING 947
SWIDTH 272 0
DWIDTH 6 0
BBX 6 6 0 0
BITMAP
84
48
50
20
20
20
ENDCHAR
STARTCHAR U+03B4
ENCODING 948
SWIDTH 272 0
DWIDTH 6 0
BBX 5 8 0 0
BITMAP
60
80
80
70
88
88
88
70
ENDCHAR
STARTCHAR U+03B5
ENCODING 949
SWIDTH 272 0
DWIDTH 6 0
BBX 4 7 0 0
BITMAP
70
80
80
60
80
80
70
ENDCHAR
STARTCHAR U+03B6
ENCODING 950
SWIDTH 272 0
DWIDTH 6 0
BBX 5 9 0 -1
BITMAP
88
70
40
80
80
80
80
70
08
ENDCHAR
STARTCHAR U+03B7
ENCODING 951
SWIDTH 272 0
DWIDTH 6 0
BBX 5 5 0 0
BITMAP
B0
C8
88
88
88
ENDCHAR
STARTCHAR U+03B8
ENCODING 952
SWIDTH 272 0
DWIDTH 6 0
BBX 5 8 0 1
BITMAP
70
88
88
F8
88
88
88
70
ENDCHAR
STARTCHAR U+03B9
ENCODING 953
SWIDTH 272 0
DWIDTH 6 0
BBX 2 5 1 0
BITMAP
80
80
80
80
40
ENDCHAR
STARTCHAR U+03BA
ENCODING 954
SWIDTH 272 0
DWIDTH 6 0
BBX 4 5 0 0
BITMAP
90
A0
C0
A0
90
ENDCHAR
STARTCHAR U+03BB
ENCODING 955
SWIDTH 272 0
DWIDTH 6 0
BBX 6 7 0 0
BITMAP
60
10
10
28
28
44
84
ENDCHAR
STARTCHAR U+03BC
ENCODING 956
SWIDTH 272 0
DWIDTH 6 0
BBX 6 7 0 0
BITMAP
88
88
88
88
98
E4
80
ENDCHAR
STARTCHAR U+03BD
ENCODING 957
SWIDTH 272 0
DWIDTH 6 0
BBX 6 6 0 0
BITMAP
84
84
88
48
50
20
ENDCHAR
STARTCHAR U+03BE
ENCODING 958
SWIDTH 272 0
DWIDTH 6 0
BBX 5 9 0 -1
BITMAP
80
70
80
80
70
80
80
70
08
ENDCHAR
STARTCHAR U+03BF
ENCODING 959
SWIDTH 272 0
DWIDTH 6 0
BBX 5 6 0 0
BITMAP
70
88
88
88
88
70
ENDCHAR
STARTCHAR U+03C0
ENCODING 960
SWIDTH 272 0
DWIDTH 6 0
BBX 6 6 0 0
BITMAP
FC
48
48
48
48
44
ENDCHAR
STARTCHAR U+03C1
ENCODING 961
SWIDTH 272 0
DWIDTH 6 0
BBX 5 6 0 0
BITMAP
70
88
88
88
F0
80
ENDCHAR
STARTCHAR U+03C3
ENCODING 963
SWIDTH 272 0
DWIDTH 6 0
BBX 6 6 0 0
BITMAP
70
8C
88
88
88
70
ENDCHAR
STARTCHAR U+03C4
ENCODING 964
SWIDTH 272 0
DWIDTH 6 0
BBX 5 6 0 0
BITMAP
F8
20
20
20
20
10
ENDCHAR
STARTCHAR U+03C5
ENCODING 965
SWIDTH 272 0
DWIDTH 6 0
BBX 5 6 0 0
BITMAP
10
88
88
88
90
60
ENDCHAR
STARTCHAR U+03C6
ENCODING 966
SWIDTH 272 0
DWIDTH 6 0
BBX 6 6 0 0
BITMAP
48
94
94
94
78
10
ENDCHAR
STARTCHAR U+03C7
ENCODING 967
SWIDTH 272 0
DWIDTH 6 0
BBX 6 6 0 0
BITMAP
44
28
10
10
28
C8
ENDCHAR
STARTCHAR U+03C8
ENCODING 968
SWIDTH 272 0
DWIDTH 6 0
BBX 6 6 0 0
BITMAP
28
A4
A4
A4
78
20
ENDCHAR
STARTCHAR U+03C9
ENCODING 969
SWIDTH 272 0
DWIDTH 6 0
BBX 6 6 0 1
BITMAP
48
84
A4
A4
A4
58
ENDCHAR
STARTCHAR U+2013
ENCODING 8211
SWIDTH 272 0
DWIDTH 6 0
BBX 4 1 1 1
BITMAP
F0
ENDCHAR
STARTCHAR U+2014
ENCODING 8212
SWIDTH 272 0
DWIDTH 6 0
BBX 6 1 0 1
BITMAP
FC
ENDCHAR
STARTCHAR U+2015
ENCODING 8213
SWIDTH 545 0
DWIDTH 12 0
BBX 8 1 2 5
BITMAP
FF
ENDCHAR
STARTCHAR U+2016
ENCODING 8214
SWIDTH 545 0
DWIDTH 12 0
BBX 3 10 5 0
BITMAP
A0
A0
A0
A0
A0
A0
A0
A0
A0
A0
ENDCHAR
STARTCHAR U+2018
ENCODING 8216
SWIDTH 545 0
DWIDTH 12 0
BBX 2 3 4 8
BITMAP
40
80
80
ENDCHAR
STARTCHAR U+2019
ENCODING 8217
SWIDTH 545 0
DWIDTH 12 0
BBX 2 3 4 8
BITMAP
40
40
80
ENDCHAR
STARTCHAR U+201C
ENCODING 8220
SWIDTH 545 0
DWIDTH 12 0
BBX 4 3 3 8
BITMAP
50
A0
A0
ENDCHAR
STARTCHAR U+201D
ENCODING 8221
SWIDTH 545 0
DWIDTH 12 0
BBX 4 3 3 8
BITMAP
50
50
A0
ENDCHAR
STARTCHAR U+2022
ENCODING 8226
SWIDTH 272 0
DWIDTH 6 0
BBX 2 2 2 1
BITMAP
C0
C0
ENDCHAR
STARTCHAR U+2025
ENCODING 8229
SWIDTH 545 0
DWIDTH 12 0
BBX 3 1 4 1
BITMAP
A0
ENDCHAR
STARTCHAR U+2026
ENCODING 8230
SWIDTH 545 0
DWIDTH 12 0
BBX 7 1 2 1
BITMAP
92
ENDCHAR
STARTCHAR U+2030
ENCODING 8240
SWIDTH 545 0
DWIDTH 12 0
BBX 10 10 1 0
BITMAP
4400
A400
A800
A800
5000
1480
2B40
2B40
4B40
4480
ENDCHAR
STARTCHAR U+2032
ENCODING 8242
SWIDTH 545 0
DWIDTH 12 0
BBX 2 3 2 7
BITMAP
40
40
80
ENDCHAR
STARTCHAR U+2033
ENCODING 8243
SWIDTH 545 0
DWIDTH 12 0
BBX 5 3 2 7
BITMAP
48
48
90
ENDCHAR
STARTCHAR U+203B
ENCODING 8251
SWIDTH 272 0
DWIDTH 6 0
BBX 5 5 0 2
BITMAP
A8
20
F8
20
A8
ENDCHAR
STARTCHAR U+20AC
ENCODING 8364
SWIDTH 590 0
DWIDTH 13 0
BBX 5 7 4 1
BITMAP
88
70
88
88
88
70
88
ENDCHAR
STARTCHAR U+2103
ENCODING 8451
SWIDTH 545 0
DWIDTH 12 0
BBX 9 11 1 0
BITMAP
6000
9000
9000
6700
0880
1000
1000
1000
1000
0880
0700
ENDCHAR
STARTCHAR U+2109
ENCODING 8457
SWIDTH 545 0
DWIDTH 12 0
BBX 9 11 1 0
BITMAP
6000
9000
9000
6F80
0800
0800
0F00
0800
0800
0800
0800
ENDCHAR
STARTCHAR U+2116
ENCODING 8470
SWIDTH 590 0
DWIDTH 13 0
BBX 11 11 0 -1
BITMAP
6100
2200
3200
3240
2AA0
2AA0
2AA0
2640
2600
A2E0
4200
ENDCHAR
STARTCHAR U+2160
ENCODING 8544
SWIDTH 409 0
DWIDTH 9 0
BBX 3 10 5 0
BITMAP
E0
40
40
40
40
40
40
40
40
E0
ENDCHAR
STARTCHAR U+2161
ENCODING 8545
SWIDTH 454 0
DWIDTH 10 0
BBX 7 10 2 0
BITMAP
EE
44
44
44
44
44
44
44
44
EE
ENDCHAR
STARTCHAR U+2162
ENCODING 8546
SWIDTH 545 0
DWIDTH 12 0
BBX 9 10 2 0
BITMAP
FF80
4900
4900
4900
4900
4900
4900
4900
4900
FF80
ENDCHAR
STARTCHAR U+2163
ENCODING 8547
SWIDTH 590 0
DWIDTH 13 0
BBX 11 10 1 0
BITMAP
EC60
4440
4440
4440
4280
4280
4280
4380
4100
E100
ENDCHAR
STARTCHAR U+2164
ENCODING 8548
SWIDTH 500 0
DWIDTH 11 0
BBX 9 10 1 0
BITMAP
E380
4100
4100
2200
2200
1400
1400
1C00
0800
0800
ENDCHAR
STARTCHAR U+2165
ENCODING 8549
SWIDTH 545 0
DWIDTH 12 0
BBX 10 10 1 0
BITMAP
EFC0
4480
4480
4480
2880
2880
2880
3880
1080
11C0
ENDCHAR
STARTCHAR U+2166
ENCODING 8550
SWIDTH 545 0
DWIDTH 12 0
BBX 11 10 0 0
BITMAP
EFE0
4540
4540
4540
2940
2940
2940
1140
1140
13E0
ENDCHAR
STARTCHAR U+2167
ENCODING 8551
SWIDTH 590 0
DWIDTH 13 0
BBX 12 10 0 0
BITMAP
CFF0
4AA0
4AA0
4AA0
4AA0
4AA0
32A0
32A0
32A0
37F0
ENDCHAR
STARTCHAR U+2168
ENCODING 8552
SWIDTH 545 0
DWIDTH 12 0
BBX 10 10 1 0
BITMAP
FDC0
4880
4500
4700
4200
4200
4700
4500
4880
FDC0
ENDCHAR
STARTCHAR U+2169
ENCODING 8553
SWIDTH 545 0
DWIDTH 12 0
BBX 10 10 1 0
BITMAP
E1C0
4080
2100
1200
0C00
0C00
1200
2100
4080
E1C0
ENDCHAR
STARTCHAR U+216A
ENCODING 8554
SWIDTH 545 0
DWIDTH 12 0
BBX 11 10 0 0
BITMAP
E7E0
4240
2440
2440
1840
1840
2440
2440
4240
E7E0
ENDCHAR
STARTCHAR U+216B
ENCODING 8555
SWIDTH 590 0
DWIDTH 13 0
BBX 12 10 0 0
BITMAP
EFF0
44A0
28A0
28A0
10A0
10A0
28A0
28A0
44A0
EFE0
ENDCHAR
STARTCHAR U+2190
ENCODING 8592
SWIDTH 545 0
DWIDTH 12 0
BBX 11 5 0 2
BITMAP
2000
6000
FFE0
6000
2000
ENDCHAR
STARTCHAR U+2191
ENCODING 8593
SWIDTH 545 0
DWIDTH 12 0
BBX 5 11 3 -1
BITMAP
20
70
F8
20
20
20
20
20
20
20
20
ENDCHAR
STARTCHAR U+2192
ENCODING 8594
SWIDTH 545 0
DWIDTH 12 0
BBX 11 5 0 2
BITMAP
0080
00C0
FFE0
00C0
0080
ENDCHAR
STARTCHAR U+2193
ENCODING 8595
SWIDTH 545 0
DWIDTH 12 0
BBX 5 11 3 -1
BITMAP
20
20
20
20
20
20
20
20
F8
70
20
ENDCHAR
STARTCHAR U+2196
ENCODING 8598
SWIDTH 545 0
DWIDTH 12 0
BBX 9 9 1 1
BITMAP
F000
C000
A000
9000
0800
0400
0200
0100
0080
ENDCHAR
STARTCHAR U+2197
ENCODING 8599
SWIDTH 545 0
DWIDTH 12 0
BBX 9 9 2 1
BITMAP
0780
0180
0280
0480
0800
1000
2000
4000
8000
ENDCHAR
STARTCHAR U+2198
ENCODING 8600
SWIDTH 545 0
DWIDTH 12 0
BBX 9 9 2 1
BITMAP
0080
0100
0200
0400
0800
9000
A000
C000
F000
ENDCHAR
STARTCHAR U+2199
ENCODING 8601
SWIDTH 545 0
DWIDTH 12 0
BBX 9 9 1 1
BITMAP
8000
4000
2000
1000
0800
0480
0280
0180
0780
ENDCHAR
STARTCHAR U+2208
ENCODING 8712
SWIDTH 545 0
DWIDTH 12 0
BBX 5 5 3 1
BITMAP
78
80
F8
80
78
ENDCHAR
STARTCHAR U+220F
ENCODING 8719
SWIDTH 545 0
DWIDTH 12 0
BBX 10 11 1 -1
BITMAP
FFC0
4080
4080
4080
4080
4080
4080
4080
4080
4080
E1C0
ENDCHAR
STARTCHAR U+2211
ENCODING 8721
SWIDTH 545 0
DWIDTH 12 0
BBX 9 11 1 -1
BITMAP
FF80
4000
2000
1000
0800
0400
0800
1000
2000
4000
FF80
ENDCHAR
STARTCHAR U+221A
ENCODING 8730
SWIDTH 272 0
DWIDTH 6 0
BBX 6 10 0 0
BITMAP
04
04
04
04
48
48
A8
A8
10
10
ENDCHAR
STARTCHAR U+221D
ENCODING 8733
SWIDTH 545 0
DWIDTH 12 0
BBX 6 6 2 1
BITMAP
6C
90
90
90
90
6C
ENDCHAR
STARTCHAR U+221E
ENCODING 8734
SWIDTH 272 0
DWIDTH 6 0
BBX 6 6 0 1
BITMAP
68
94
94
94
94
68
ENDCHAR
STARTCHAR U+2220
ENCODING 8736
SWIDTH 545 0
DWIDTH 12 0
BBX 9 8 1 1
BITMAP
0100
0200
0400
0800
1000
2000
4000
FF80
ENDCHAR
STARTCHAR U+2223
ENCODING 8739
SWIDTH 545 0
DWIDTH 12 0
BBX 1 8 6 0
BITMAP
80
80
80
80
80
80
80
80
ENDCHAR
STARTCHAR U+2225
ENCODING 8741
SWIDTH 545 0
DWIDTH 12 0
BBX 3 8 4 0
BITMAP
A0
A0
A0
A0
A0
A0
A0
A0
ENDCHAR
STARTCHAR U+2227
ENCODING 8743
SWIDTH 545 0
DWIDTH 12 0
BBX 5 5 3 1
BITMAP
20
50
50
88
88
ENDCHAR
STARTCHAR U+2228
ENCODING 8744
SWIDTH 545 0
DWIDTH 12 0
BBX 5 5 3 1
BITMAP
88
88
50
50
20
ENDCHAR
STARTCHAR U+2229
ENCODING 8745
SWIDTH 545 0
DWIDTH 12 0
BBX 5 5 3 1
BITMAP
70
88
88
88
88
ENDCHAR
STARTCHAR U+222A
ENCODING 8746
SWIDTH 545 0
DWIDTH 12 0
BBX 5 5 3 1
BITMAP
88
88
88
88
70
ENDCHAR
STARTCHAR U+222B
ENCODING 8747
SWIDTH 545 0
DWIDTH 12 0
BBX 3 10 4 -1
BITMAP
20
40
40
40
40
40
40
40
40
80
ENDCHAR
STARTCHAR U+222E
ENCODING 8750
SWIDTH 409 0
DWIDTH 9 0
BBX 5 10 2 -1
BITMAP
08
10
10
70
A8
A8
70
20
20
40
ENDCHAR
STARTCHAR U+2234
ENCODING 8756
SWIDTH 545 0
DWIDTH 12 0
BBX 3 3 5 0
BITMAP
40
00
A0
ENDCHAR
STARTCHAR U+2235
ENCODING 8757
SWIDTH 545 0
DWIDTH 12 0
BBX 3 3 4 0
BITMAP
A0
00
40
ENDCHAR
STARTCHAR U+2236
ENCODING 8758
SWIDTH 363 0
DWIDTH 8 0
BBX 1 4 3 3
BITMAP
80
00
00
80
ENDCHAR
STARTCHAR U+2237
ENCODING 8759
SWIDTH 500 0
DWIDTH 11 0
BBX 3 4 4 1
BITMAP
A0
00
00
A0
ENDCHAR
STARTCHAR U+223D
ENCODING 8765
SWIDTH 545 0
DWIDTH 12 0
BBX 5 2 3 4
BITMAP
90
68
ENDCHAR
STARTCHAR U+2248
ENCODING 8776
SWIDTH 545 0
DWIDTH 12 0
BBX 6 4 3 3
BITMAP
64
98
64
98
ENDCHAR
STARTCHAR U+224C
ENCODING 8780
SWIDTH 590 0
DWIDTH 13 0
BBX 5 6 4 1
BITMAP
48
B0
00
F8
00
F8
ENDCHAR
STARTCHAR U+2252
ENCODING 8786
SWIDTH 272 0
DWIDTH 6 0
BBX 6 7 0 0
BITMAP
40
00
FC
00
FC
00
08
ENDCHAR
STARTCHAR U+2260
ENCODING 8800
SWIDTH 272 0
DWIDTH 6 0
BBX 6 5 0 1
BITMAP
10
FC
20
FC
40
ENDCHAR
STARTCHAR U+2261
ENCODING 8801
SWIDTH 272 0
DWIDTH 6 0
BBX 4 5 1 1
BITMAP
F0
00
F0
00
F0
ENDCHAR
STARTCHAR U+2264
ENCODING 8804
SWIDTH 500 0
DWIDTH 11 0
BBX 5 7 3 0
BITMAP
18
60
80
60
18
00
F8
ENDCHAR
STARTCHAR U+2265
ENCODING 8805
SWIDTH 590 0
DWIDTH 13 0
BBX 5 7 4 0
BITMAP
C0
30
08
30
C0
00
F8
ENDCHAR
STARTCHAR U+226E
ENCODING 8814
SWIDTH 590 0
DWIDTH 13 0
BBX 5 6 3 2
BITMAP
10
18
60
A0
60
58
ENDCHAR
STARTCHAR U+226F
ENCODING 8815
SWIDTH 545 0
DWIDTH 12 0
BBX 5 6 4 2
BITMAP
D0
30
28
30
C0
40
ENDCHAR
STARTCHAR U+2299
ENCODING 8857
SWIDTH 590 0
DWIDTH 13 0
BBX 5 5 4 1
BITMAP
70
88
A8
88
70
ENDCHAR
STARTCHAR U+22A5
ENCODING 8869
SWIDTH 545 0
DWIDTH 12 0
BBX 7 7 3 0
BITMAP
10
10
10
10
10
10
FE
ENDCHAR
STARTCHAR U+2312
ENCODING 8978
SWIDTH 545 0
DWIDTH 12 0
BBX 8 2 2 0
BITMAP
7E
81
ENDCHAR
STARTCHAR U+2460
ENCODING 9312
SWIDTH 590 0
DWIDTH 13 0
BBX 12 12 0 -1
BITMAP
1F80
2040
4220
8210
8210
8210
8210
8210
8210
4220
2040
1F80
ENDCHAR
STARTCHAR U+2461
ENCODING 9313
SWIDTH 590 0
DWIDTH 13 0
BBX 12 12 0 -1
BITMAP
1F80
2040
4620
8910
8110
8210
8410
8810
8910
4F20
2040
1F80
ENDCHAR
STARTCHAR U+2462
ENCODING 9314
SWIDTH 590 0
DWIDTH 13 0
BBX 12 12 0 -1
BITMAP
1F80
2040
4620
8910
8110
8610
8110
8110
8910
4620
2040
1F80
ENDCHAR
STARTCHAR U+2463
ENCODING 9315
SWIDTH 590 0
DWIDTH 13 0
BBX 12 12 0 -1
BITMAP
1F80
2040
4220
8610
8610
8A10
8A10
9F10
8210
4720
2040
1F80
ENDCHAR
STARTCHAR U+2464
ENCODING 9316
SWIDTH 590 0
DWIDTH 13 0
BBX 12 12 0 -1
BITMAP
1F80
2040
4F20
8810
8810
8F10
8090
8090
8890
4720
2040
1F80
ENDCHAR
STARTCHAR U+2465
ENCODING 9317
SWIDTH 590 0
DWIDTH 13 0
BBX 12 12 0 -1
BITMAP
1F80
2040
4720
8810
9010
9E10
9110
9110
9110
4E20
2040
1F80
ENDCHAR
STARTCHAR U+2466
ENCODING 9318
SWIDTH 590 0
DWIDTH 13 0
BBX 12 12 0 -1
BITMAP
1F80
2040
4F20
8910
8110
8210
8210
8410
8410
4420
2040
1F80
ENDCHAR
STARTCHAR U+2467
ENCODING 9319
SWIDTH 590 0
DWIDTH 13 0
BBX 12 12 0 -1
BITMAP
1F80
2040
4720
8890
8890
8710
8890
8890
8890
4720
2040
1F80
ENDCHAR
STARTCHAR U+2468
ENCODING 9320
SWIDTH 590 0
DWIDTH 13 0
BBX 12 12 0 -1
BITMAP
1F80
2040
4720
8890
8890
8890
8790
8090
8110
4E20
2040
1F80
ENDCHAR
STARTCHAR U+2469
ENCODING 9321
SWIDTH 590 0
DWIDTH 13 0
BBX 12 12 0 -1
BITMAP
1F80
2040
5320
9490
9490
9490
9490
9490
9490
5320
2040
1F80
ENDCHAR
STARTCHAR U+2474
ENCODING 9332
SWIDTH 590 0
DWIDTH 13 0
BBX 12 10 0 0
BITMAP
4420
8C10
8410
8410
8410
8410
8410
8410
8E10
4020
ENDCHAR
STARTCHAR U+2475
ENCODING 9333
SWIDTH 590 0
DWIDTH 13 0
BBX 12 10 0 0
BITMAP
4E20
9110
9110
8110
8210
8410
8810
9110
9F10
4020
ENDCHAR
STARTCHAR U+2476
ENCODING 9334
SWIDTH 590 0
DWIDTH 13 0
BBX 12 10 0 0
BITMAP
4E20
9110
8110
8110
8610
8110
8110
9110
8E10
4020
ENDCHAR
STARTCHAR U+2477
ENCODING 9335
SWIDTH 590 0
DWIDTH 13 0
BBX 12 10 0 0
BITMAP
4220
8610
8610
8A10
8A10
9210
9F10
8210
8710
4020
ENDCHAR
STARTCHAR U+2478
ENCODING 9336
SWIDTH 590 0
DWIDTH 13 0
BBX 12 10 0 0
BITMAP
4FA0
8810
8810
8F10
8890
8090
8090
8890
8710
4020
ENDCHAR
STARTCHAR U+2479
ENCODING 9337
SWIDTH 590 0
DWIDTH 13 0
BBX 12 10 0 0
BITMAP
4320
8410
8810
8B10
8C90
8890
8890
8890
8710
4020
ENDCHAR
STARTCHAR U+247A
ENCODING 9338
SWIDTH 590 0
DWIDTH 13 0
BBX 12 10 0 0
BITMAP
4FA0
8890
8110
8110
8210
8210
8210
8410
8410
4020
ENDCHAR
STARTCHAR U+247B
ENCODING 9339
SWIDTH 590 0
DWIDTH 13 0
BBX 12 10 0 0
BITMAP
4720
8890
8890
8890
8710
8890
8890
8890
8710
4020
ENDCHAR
STARTCHAR U+247C
ENCODING 9340
SWIDTH 590 0
DWIDTH 13 0
BBX 12 10 0 0
BITMAP
4720
8890
8890
8890
8890
8790
8090
8110
8610
4020
ENDCHAR
STARTCHAR U+247D
ENCODING 9341
SWIDTH 590 0
DWIDTH 13 0
BBX 12 10 0 0
BITMAP
5320
9490
9490
9490
9490
9490
9490
9490
9310
4020
ENDCHAR
STARTCHAR U+247E
ENCODING 9342
SWIDTH 590 0
DWIDTH 13 0
BBX 12 10 0 0
BITMAP
4920
8910
8910
8910
8910
8910
8910
8910
8910
4020
ENDCHAR
STARTCHAR U+247F
ENCODING 9343
SWIDTH 590 0
DWIDTH 13 0
BBX 12 10 0 0
BITMAP
5320
9490
9490
9090
9110
9110
9210
9490
9790
4020
ENDCHAR
STARTCHAR U+2480
ENCODING 9344
SWIDTH 590 0
DWIDTH 13 0
BBX 12 10 0 0
BITMAP
5320
9490
9090
9090
9310
9090
9090
9490
9310
4020
ENDCHAR
STARTCHAR U+2481
ENCODING 9345
SWIDTH 590 0
DWIDTH 13 0
BBX 12 10 0 0
BITMAP
50A0
9190
9190
9290
9290
9490
97D0
9090
9090
4020
ENDCHAR
STARTCHAR U+2482
ENCODING 9346
SWIDTH 590 0
DWIDTH 13 0
BBX 12 10 0 0
BITMAP
57A0
9410
9410
9710
9490
9090
9090
9490
9310
4020
ENDCHAR
STARTCHAR U+2483
ENCODING 9347
SWIDTH 590 0
DWIDTH 13 0
BBX 12 10 0 0
BITMAP
51A0
9210
9410
9710
9490
9490
9490
9490
9310
4020
ENDCHAR
STARTCHAR U+2484
ENCODING 9348
SWIDTH 590 0
DWIDTH 13 0
BBX 12 10 0 0
BITMAP
57A0
9490
9090
9110
9110
9110
9210
9210
9210
4020
ENDCHAR
STARTCHAR U+2485
ENCODING 9349
SWIDTH 590 0
DWIDTH 13 0
BBX 12 10 0 0
BITMAP
5320
9490
9490
9490
9310
9490
9490
9490
9310
4020
ENDCHAR
STARTCHAR U+2486
ENCODING 9350
SWIDTH 590 0
DWIDTH 13 0
BBX 12 10 0 0
BITMAP
5320
9490
9490
9490
9490
9390
9090
9110
9610
4020
ENDCHAR
STARTCHAR U+2487
ENCODING 9351
SWIDTH 590 0
DWIDTH 13 0
BBX 12 10 0 0
BITMAP
59A0
A650
A650
8650
8650
8A50
9250
A650
BD90
4020
ENDCHAR
STARTCHAR U+2488
ENCODING 9352
SWIDTH 500 0
DWIDTH 11 0
BBX 5 9 4 1
BITMAP
40
C0
40
40
40
40
40
40
E8
ENDCHAR
STARTCHAR U+2489
ENCODING 9353
SWIDTH 500 0
DWIDTH 11 0
BBX 7 9 2 1
BITMAP
70
88
88
08
08
10
20
48
FA
ENDCHAR
STARTCHAR U+248A
ENCODING 9354
SWIDTH 545 0
DWIDTH 12 0
BBX 7 9 3 1
BITMAP
70
88
08
08
30
08
08
88
72
ENDCHAR
STARTCHAR U+248B
ENCODING 9355
SWIDTH 545 0
DWIDTH 12 0
BBX 8 9 2 1
BITMAP
08
18
18
28
28
48
FC
08
09
ENDCHAR
STARTCHAR U+248C
ENCODING 9356
SWIDTH 545 0
DWIDTH 12 0
BBX 7 9 3 1
BITMAP
F8
80
80
F0
08
08
08
88
72
ENDCHAR
STARTCHAR U+248D
ENCODING 9357
SWIDTH 500 0
DWIDTH 11 0
BBX 7 9 2 1
BITMAP
30
40
80
F0
88
88
88
88
72
ENDCHAR
STARTCHAR U+248E
ENCODING 9358
SWIDTH 454 0
DWIDTH 10 0
BBX 5 9 3 1
BITMAP
F8
88
10
10
20
20
20
40
48
ENDCHAR
STARTCHAR U+248F
ENCODING 9359
SWIDTH 545 0
DWIDTH 12 0
BBX 7 9 3 1
BITMAP
70
88
88
88
70
88
88
88
72
ENDCHAR
STARTCHAR U+2490
ENCODING 9360
SWIDTH 500 0
DWIDTH 11 0
BBX 7 9 2 1
BITMAP
70
88
88
88
98
68
08
10
62
ENDCHAR
STARTCHAR U+2491
ENCODING 9361
SWIDTH 590 0
DWIDTH 13 0
BBX 10 9 1 1
BITMAP
4600
C900
4900
4900
4900
4900
4900
4900
E640
ENDCHAR
STARTCHAR U+2492
ENCODING 9362
SWIDTH 590 0
DWIDTH 13 0
BBX 10 9 1 1
BITMAP
4200
C600
4200
4200
4200
4200
4200
4200
E740
ENDCHAR
STARTCHAR U+2493
ENCODING 9363
SWIDTH 590 0
DWIDTH 13 0
BBX 10 9 1 1
BITMAP
4600
C900
4900
4100
4100
4200
4400
4900
EF40
ENDCHAR
STARTCHAR U+2494
ENCODING 9364
SWIDTH 590 0
DWIDTH 13 0
BBX 10 9 1 1
BITMAP
4600
C900
4100
4100
4200
4100
4100
4900
E640
ENDCHAR
STARTCHAR U+2495
ENCODING 9365
SWIDTH 590 0
DWIDTH 13 0
BBX 10 9 1 1
BITMAP
4200
C600
4600
4A00
4A00
5200
5F00
4200
E240
ENDCHAR
STARTCHAR U+2496
ENCODING 9366
SWIDTH 590 0
DWIDTH 13 0
BBX 10 9 1 1
BITMAP
5F00
D000
5000
5E00
4100
4100
4100
5100
EE40
ENDCHAR
STARTCHAR U+2497
ENCODING 9367
SWIDTH 590 0
DWIDTH 13 0
BBX 10 9 1 1
BITMAP
4300
C400
4800
4E00
4900
4900
4900
4900
E640
ENDCHAR
STARTCHAR U+2498
ENCODING 9368
SWIDTH 545 0
DWIDTH 12 0
BBX 9 9 1 1
BITMAP
4F80
C880
4100
4100
4100
4200
4200
4400
E480
ENDCHAR
STARTCHAR U+2499
ENCODING 9369
SWIDTH 590 0
DWIDTH 13 0
BBX 10 9 1 1
BITMAP
4600
C900
4900
4900
4600
4900
4900
4900
E640
ENDCHAR
STARTCHAR U+249A
ENCODING 9370
SWIDTH 590 0
DWIDTH 13 0
BBX 10 9 1 1
BITMAP
4600
C900
4900
4900
4900
4700
4100
4200
EC40
ENDCHAR
STARTCHAR U+249B
ENCODING 9371
SWIDTH 590 0
DWIDTH 13 0
BBX 11 9 0 1
BITMAP
6300
9480
9480
1480
1480
2480
4480
9480
F320
ENDCHAR
STARTCHAR U+2581
ENCODING 9601
SWIDTH 545 0
DWIDTH 12 0
BBX 10 1 1 -1
BITMAP
FFC0
ENDCHAR
STARTCHAR U+2582
ENCODING 9602
SWIDTH 545 0
DWIDTH 12 0
BBX 10 2 1 -1
BITMAP
FFC0
FFC0
ENDCHAR
STARTCHAR U+2583
ENCODING 9603
SWIDTH 545 0
DWIDTH 12 0
BBX 10 3 1 -1
BITMAP
FFC0
FFC0
FFC0
ENDCHAR
STARTCHAR U+2584
ENCODING 9604
SWIDTH 545 0
DWIDTH 12 0
BBX 10 4 1 -1
BITMAP
FFC0
FFC0
FFC0
FFC0
ENDCHAR
STARTCHAR U+2585
ENCODING 9605
SWIDTH 545 0
DWIDTH 12 0
BBX 10 6 1 -1
BITMAP
FFC0
FFC0
FFC0
FFC0
FFC0
FFC0
ENDCHAR
STARTCHAR U+2586
ENCODING 9606
SWIDTH 545 0
DWIDTH 12 0
BBX 10 7 1 -1
BITMAP
FFC0
FFC0
FFC0
FFC0
FFC0
FFC0
FFC0
ENDCHAR
STARTCHAR U+2587
ENCODING 9607
SWIDTH 545 0
DWIDTH 12 0
BBX 10 9 1 -1
BITMAP
FFC0
FFC0
FFC0
FFC0
FFC0
FFC0
FFC0
FFC0
FFC0
ENDCHAR
STARTCHAR U+2588
ENCODING 9608
SWIDTH 545 0
DWIDTH 12 0
BBX 10 10 1 -1
BITMAP
FFC0
FFC0
FFC0
FFC0
FFC0
FFC0
FFC0
FFC0
FFC0
FFC0
ENDCHAR
STARTCHAR U+2589
ENCODING 9609
SWIDTH 545 0
DWIDTH 12 0
BBX 8 10 2 -1
BITMAP
FF
FF
FF
FF
FF
FF
FF
FF
FF
FF
ENDCHAR
STARTCHAR U+258A
ENCODING 9610
SWIDTH 545 0
DWIDTH 12 0
BBX 6 10 3 -1
BITMAP
FC
FC
FC
FC
FC
FC
FC
FC
FC
FC
ENDCHAR
STARTCHAR U+258B
ENCODING 9611
SWIDTH 545 0
DWIDTH 12 0
BBX 5 10 3 -1
BITMAP
F8
F8
F8
F8
F8
F8
F8
F8
F8
F8
ENDCHAR
STARTCHAR U+258C
ENCODING 9612
SWIDTH 545 0
DWIDTH 12 0
BBX 4 10 4 -1
BITMAP
F0
F0
F0
F0
F0
F0
F0
F0
F0
F0
ENDCHAR
STARTCHAR U+258D
ENCODING 9613
SWIDTH 545 0
DWIDTH 12 0
BBX 3 10 5 -1
BITMAP
E0
E0
E0
E0
E0
E0
E0
E0
E0
E0
ENDCHAR
STARTCHAR U+258E
ENCODING 9614
SWIDTH 545 0
DWIDTH 12 0
BBX 2 10 5 -1
BITMAP
C0
C0
C0
C0
C0
C0
C0
C0
C0
C0
ENDCHAR
STARTCHAR U+258F
ENCODING 9615
SWIDTH 545 0
DWIDTH 12 0
BBX 1 10 5 -1
BITMAP
80
80
80
80
80
80
80
80
80
80
ENDCHAR
STARTCHAR U+25A0
ENCODING 9632
SWIDTH 545 0
DWIDTH 12 0
BBX 9 9 1 0
BITMAP
FF80
FF80
FF80
FF80
FF80
FF80
FF80
FF80
FF80
ENDCHAR
STARTCHAR U+25A1
ENCODING 9633
SWIDTH 545 0
DWIDTH 12 0
BBX 9 9 1 0
BITMAP
FF80
8080
8080
8080
8080
8080
8080
8080
FF80
ENDCHAR
STARTCHAR U+25B2
ENCODING 9650
SWIDTH 545 0
DWIDTH 12 0
BBX 9 9 1 0
BITMAP
0800
1C00
1C00
3E00
3E00
7F00
7F00
FF80
FF80
ENDCHAR
STARTCHAR U+25B3
ENCODING 9651
SWIDTH 545 0
DWIDTH 12 0
BBX 9 9 1 0
BITMAP
0800
1400
1400
2200
2200
4100
4100
8080
FF80
ENDCHAR
STARTCHAR U+25BC
ENCODING 9660
SWIDTH 545 0
DWIDTH 12 0
BBX 9 9 1 0
BITMAP
FF80
FF80
7F00
7F00
3E00
3E00
1C00
1C00
0800
ENDCHAR
STARTCHAR U+25BD
ENCODING 9661
SWIDTH 545 0
DWIDTH 12 0
BBX 9 9 1 0
BITMAP
FF80
8080
4100
4100
2200
2200
1400
1400
0800
ENDCHAR
STARTCHAR U+25C6
ENCODING 9670
SWIDTH 545 0
DWIDTH 12 0
BBX 11 11 0 -1
BITMAP
0400
0E00
1F00
3F80
7FC0
FFE0
7FC0
3F80
1F00
0E00
0400
ENDCHAR
STARTCHAR U+25C7
ENCODING 9671
SWIDTH 545 0
DWIDTH 12 0
BBX 11 11 0 -1
BITMAP
0400
0A00
1100
2080
4040
8020
4040
2080
1100
0A00
0400
ENDCHAR
STARTCHAR U+25CB
ENCODING 9675
SWIDTH 545 0
DWIDTH 12 0
BBX 10 10 1 0
BITMAP
0C00
3300
4080
4080
8040
8040
4080
4080
3300
0C00
ENDCHAR
STARTCHAR U+25CE
ENCODING 9678
SWIDTH 545 0
DWIDTH 12 0
BBX 10 10 1 0
BITMAP
0C00
3300
4080
4C80
9240
9240
4C80
4080
3300
0C00
ENDCHAR
STARTCHAR U+25CF
ENCODING 9679
SWIDTH 545 0
DWIDTH 12 0
BBX 10 10 1 0
BITMAP
0C00
3F00
7F80
7F80
FFC0
FFC0
7F80
7F80
3F00
0C00
ENDCHAR
STARTCHAR U+2605
ENCODING 9733
SWIDTH 545 0
DWIDTH 12 0
BBX 11 11 0 0
BITMAP
0400
0400
0E00
0E00
FFE0
3F80
1F00
1F00
3B80
3180
4040
ENDCHAR
STARTCHAR U+2606
ENCODING 9734
SWIDTH 545 0
DWIDTH 12 0
BBX 11 11 0 0
BITMAP
0400
0400
0A00
0A00
FBE0
2080
1100
1500
2A80
3180
4040
ENDCHAR
STARTCHAR U+2640
ENCODING 9792
SWIDTH 545 0
DWIDTH 12 0
BBX 7 10 2 0
BITMAP
38
44
44
44
38
10
10
FE
10
10
ENDCHAR
STARTCHAR U+2642
ENCODING 9794
SWIDTH 545 0
DWIDTH 12 0
BBX 9 9 1 0
BITMAP
0F80
0180
0280
0480
7880
8800
8800
8800
7000
ENDCHAR
STARTCHAR U+3000
ENCODING 12288
SWIDTH 545 0
DWIDTH 12 0
BBX 0 0 0 0
BITMAP
ENDCHAR
STARTCHAR U+3001
ENCODING 12289
SWIDTH 545 0
DWIDTH 12 0
BBX 2 2 5 2
BITMAP
80
40
ENDCHAR
STARTCHAR U+3002
ENCODING 12290
SWIDTH 545 0
DWIDTH 12 0
BBX 3 3 4 2
BITMAP
40
A0
40
ENDCHAR
STARTCHAR U+3003
ENCODING 12291
SWIDTH 545 0
DWIDTH 12 0
BBX 4 3 3 5
BITMAP
50
50
A0
ENDCHAR
STARTCHAR U+3008
ENCODING 12296
SWIDTH 272 0
DWIDTH 6 0
BBX 3 9 0 1
BITMAP
20
20
40
40
80
40
40
20
20
ENDCHAR
STARTCHAR U+3009
ENCODING 12297
SWIDTH 272 0
DWIDTH 6 0
BBX 3 9 3 1
BITMAP
80
80
40
40
20
40
40
80
80
ENDCHAR
STARTCHAR U+300A
ENCODING 12298
SWIDTH 272 0
DWIDTH 6 0
BBX 5 9 0 0
BITMAP
28
28
50
50
A0
50
50
28
28
ENDCHAR
STARTCHAR U+300B
ENCODING 12299
SWIDTH 272 0
DWIDTH 6 0
BBX 5 9 1 0
BITMAP
A0
A0
50
50
28
50
50
A0
A0
ENDCHAR
STARTCHAR U+300C
ENCODING 12300
SWIDTH 272 0
DWIDTH 6 0
BBX 4 5 0 6
BITMAP
F0
80
80
80
80
ENDCHAR
STARTCHAR U+300D
ENCODING 12301
SWIDTH 272 0
DWIDTH 6 0
BBX 4 5 2 -1
BITMAP
10
10
10
10
F0
ENDCHAR
STARTCHAR U+300E
ENCODING 12302
SWIDTH 272 0
DWIDTH 6 0
BBX 4 7 0 4
BITMAP
F0
90
B0
A0
A0
A0
E0
ENDCHAR
STARTCHAR U+300F
ENCODING 12303
SWIDTH 272 0
DWIDTH 6 0
BBX 4 7 2 -1
BITMAP
70
50
50
50
D0
90
F0
ENDCHAR
STARTCHAR U+3010
ENCODING 12304
SWIDTH 272 0
DWIDTH 6 0
BBX 4 12 0 -1
BITMAP
F0
E0
C0
C0
C0
C0
C0
C0
C0
C0
E0
F0
ENDCHAR
STARTCHAR U+3011
ENCODING 12305
SWIDTH 272 0
DWIDTH 6 0
BBX 4 12 2 -1
BITMAP
F0
70
30
30
30
30
30
30
30
30
70
F0
ENDCHAR
STARTCHAR U+3012
ENCODING 12306
SWIDTH 272 0
DWIDTH 6 0
BBX 5 8 0 0
BITMAP
F8
00
F8
20
20
20
20
20
ENDCHAR
STARTCHAR U+3013
ENCODING 12307
SWIDTH 545 0
DWIDTH 12 0
BBX 8 7 2 1
BITMAP
FF
FF
FF
00
FF
FF
FF
ENDCHAR
STARTCHAR U+3014
ENCODING 12308
SWIDTH 272 0
DWIDTH 6 0
BBX 3 12 1 -1
BITMAP
20
40
80
80
80
80
80
80
80
80
40
20
ENDCHAR
STARTCHAR U+3015
ENCODING 12309
SWIDTH 272 0
DWIDTH 6 0
BBX 3 12 2 -1
BITMAP
80
40
20
20
20
20
20
20
20
20
40
80
ENDCHAR
STARTCHAR U+3016
ENCODING 12310
SWIDTH 545 0
DWIDTH 12 0
BBX 4 12 4 -1
BITMAP
F0
A0
A0
A0
A0
A0
A0
A0
A0
A0
A0
F0
ENDCHAR
STARTCHAR U+3017
ENCODING 12311
SWIDTH 545 0
DWIDTH 12 0
BBX 4 12 3 -1
BITMAP
F0
50
50
50
50
50
50
50
50
50
50
F0
ENDCHAR
STARTCHAR U+301D
ENCODING 12317
SWIDTH 545 0
DWIDTH 12 0
BBX 4 3 4 8
BITMAP
A0
A0
50
ENDCHAR
STARTCHAR U+301E
ENCODING 12318
SWIDTH 545 0
DWIDTH 12 0
BBX 4 3 4 8
BITMAP
50
50
A0
ENDCHAR
STARTCHAR U+301F
ENCODING 12319
SWIDTH 545 0
DWIDTH 12 0
BBX 4 3 4 0
BITMAP
A0
50
50
ENDCHAR
STARTCHAR U+3041
ENCODING 12353
SWIDTH 545 0
DWIDTH 12 0
BBX 7 8 2 -1
BITMAP
10
FE
20
3C
6A
AA
B2
64
ENDCHAR
STARTCHAR U+3042
ENCODING 12354
SWIDTH 545 0
DWIDTH 12 0
BBX 10 11 1 -1
BITMAP
0800
0980
FE00
1000
1F00
3280
5240
9440
9840
6880
0300
ENDCHAR
STARTCHAR U+3043
ENCODING 12355
SWIDTH 545 0
DWIDTH 12 0
BBX 7 6 2 0
BITMAP
84
84
82
82
92
60
ENDCHAR
STARTCHAR U+3044
ENCODING 12356
SWIDTH 545 0
DWIDTH 12 0
BBX 10 8 1 0
BITMAP
4000
4100
8080
8080
8040
8440
4800
3000
ENDCHAR
STARTCHAR U+3045
ENCODING 12357
SWIDTH 545 0
DWIDTH 12 0
BBX 6 8 3 -1
BITMAP
60
18
00
38
C4
04
08
30
ENDCHAR
STARTCHAR U+3046
ENCODING 12358
SWIDTH 545 0
DWIDTH 12 0
BBX 7 11 2 -1
BITMAP
70
0C
00
38
C4
02
02
02
04
18
60
ENDCHAR
STARTCHAR U+3047
ENCODING 12359
SWIDTH 545 0
DWIDTH 12 0
BBX 6 8 3 -1
BITMAP
60
18
00
F8
10
20
50
8C
ENDCHAR
STARTCHAR U+3048
ENCODING 12360
SWIDTH 545 0
DWIDTH 12 0
BBX 9 11 1 -1
BITMAP
1800
0600
0000
7E00
0200
0400
0800
1800
2400
4400
8380
ENDCHAR
STARTCHAR U+3049
ENCODING 12361
SWIDTH 545 0
DWIDTH 12 0
BBX 8 8 2 -1
BITMAP
20
22
F9
20
7C
A2
A2
CC
ENDCHAR
STARTCHAR U+304A
ENCODING 12362
SWIDTH 545 0
DWIDTH 12 0
BBX 10 11 1 -1
BITMAP
1000
1180
FC40
1000
1000
1F00
3080
5040
9040
9080
6300
ENDCHAR
STARTCHAR U+304B
ENCODING 12363
SWIDTH 545 0
DWIDTH 12 0
BBX 10 11 1 -1
BITMAP
2000
2100
2100
F880
2480
2440
4440
4400
8400
8400
3800
ENDCHAR
STARTCHAR U+304C
ENCODING 12364
SWIDTH 545 0
DWIDTH 12 0
BBX 10 11 1 -1
BITMAP
2080
2240
2100
F800
2480
2480
4440
4440
8400
8400
3800
ENDCHAR
STARTCHAR U+304D
ENCODING 12365
SWIDTH 545 0
DWIDTH 12 0
BBX 9 11 1 -1
BITMAP
0800
0B00
FC00
0780
FC00
0200
3D00
4300
4000
2000
1E00
ENDCHAR
STARTCHAR U+304E
ENCODING 12366
SWIDTH 545 0
DWIDTH 12 0
BBX 10 12 1 -1
BITMAP
0080
0A40
0900
FC00
0780
FC00
0200
3D00
4300
4000
2000
1E00
ENDCHAR
STARTCHAR U+304F
ENCODING 12367
SWIDTH 545 0
DWIDTH 12 0
BBX 6 10 3 -1
BITMAP
08
10
20
40
80
40
20
10
08
04
ENDCHAR
STARTCHAR U+3050
ENCODING 12368
SWIDTH 545 0
DWIDTH 12 0
BBX 9 10 2 -1
BITMAP
0800
1100
2480
4200
8000
4000
2000
1000
0800
0400
ENDCHAR
STARTCHAR U+3051
ENCODING 12369
SWIDTH 545 0
DWIDTH 12 0
BBX 10 11 1 -1
BITMAP
0100
4100
4100
9FC0
8100
8100
8100
8100
8100
4200
4C00
ENDCHAR
STARTCHAR U+3052
ENCODING 12370
SWIDTH 545 0
DWIDTH 12 0
BBX 11 11 0 -1
BITMAP
0140
4120
4180
9F40
8100
8100
8100
8100
8100
4200
4C00
ENDCHAR
STARTCHAR U+3053
ENCODING 12371
SWIDTH 545 0
DWIDTH 12 0
BBX 8 9 2 0
BITMAP
7E
00
00
00
00
40
80
81
7E
ENDCHAR
STARTCHAR U+3054
ENCODING 12372
SWIDTH 545 0
DWIDTH 12 0
BBX 10 9 1 0
BITMAP
7E80
0040
0100
0080
0000
4000
8000
8100
7E00
ENDCHAR
STARTCHAR U+3055
ENCODING 12373
SWIDTH 545 0
DWIDTH 12 0
BBX 9 11 1 -1
BITMAP
0400
0400
0580
FE00
0200
0200
3D00
4300
4000
2000
1E00
ENDCHAR
STARTCHAR U+3056
ENCODING 12374
SWIDTH 545 0
DWIDTH 12 0
BBX 11 11 0 -1
BITMAP
0840
0920
0E80
F800
0400
0200
3D00
4300
4000
2000
1E00
ENDCHAR
STARTCHAR U+3057
ENCODING 12375
SWIDTH 545 0
DWIDTH 12 0
BBX 7 10 3 -1
BITMAP
40
40
40
80
80
80
82
82
44
38
ENDCHAR
STARTCHAR U+3058
ENCODING 12376
SWIDTH 545 0
DWIDTH 12 0
BBX 8 10 2 -1
BITMAP
42
49
44
80
80
80
82
82
44
38
ENDCHAR
STARTCHAR U+3059
ENCODING 12377
SWIDTH 545 0
DWIDTH 12 0
BBX 11 11 0 -1
BITMAP
0200
0200
FFE0
0200
0E00
1200
1200
0E00
0200
0400
1800
ENDCHAR
STARTCHAR U+305A
ENCODING 12378
SWIDTH 545 0
DWIDTH 12 0
BBX 11 11 0 -1
BITMAP
0200
0200
FFE0
0200
0E40
1220
1280
0E40
0200
0400
1800
ENDCHAR
STARTCHAR U+305B
ENCODING 12379
SWIDTH 545 0
DWIDTH 12 0
BBX 10 11 1 -1
BITMAP
0100
2100
2100
27C0
F900
2100
2100
2700
2000
2000
1F80
ENDCHAR
STARTCHAR U+305C
ENCODING 12380
SWIDTH 545 0
DWIDTH 12 0
BBX 11 11 0 -1
BITMAP
0100
2140
2120
2780
F940
2100
2100
2700
2000
2000
1F80
ENDCHAR
STARTCHAR U+305D
ENCODING 12381
SWIDTH 545 0
DWIDTH 12 0
BBX 10 10 1 -1
BITMAP
3F00
0200
0400
0800
FFC0
0800
1000
1000
1000
0F00
ENDCHAR
STARTCHAR U+305E
ENCODING 12382
SWIDTH 545 0
DWIDTH 12 0
BBX 11 10 0 -1
BITMAP
3E40
0320
0480
0800
FFC0
0800
1000
1000
1000
0F00
ENDCHAR
STARTCHAR U+305F
ENCODING 12383
SWIDTH 545 0
DWIDTH 12 0
BBX 10 11 1 -1
BITMAP
2000
2000
FF00
2000
2780
2000
4400
4800
4800
87C0
8000
ENDCHAR
STARTCHAR U+3060
ENCODING 12384
SWIDTH 545 0
DWIDTH 12 0
BBX 10 12 1 -1
BITMAP
0080
2240
2100
FE00
2000
2780
2000
4400
4800
4800
87C0
8000
ENDCHAR
STARTCHAR U+3061
ENCODING 12385
SWIDTH 545 0
DWIDTH 12 0
BBX 10 11 1 -1
BITMAP
0800
0800
0BC0
FC00
1000
2E00
3100
0080
0080
0100
1E00
ENDCHAR
STARTCHAR U+3062
ENCODING 12386
SWIDTH 545 0
DWIDTH 12 0
BBX 11 12 0 -1
BITMAP
0040
0920
0880
0F00
F800
1000
2E00
3100
0080
0080
0100
1E00
ENDCHAR
STARTCHAR U+3063
ENCODING 12387
SWIDTH 545 0
DWIDTH 12 0
BBX 7 6 2 -1
BITMAP
3C
C2
02
02
04
38
ENDCHAR
STARTCHAR U+3064
ENCODING 12388
SWIDTH 545 0
DWIDTH 12 0
BBX 9 8 1 0
BITMAP
1E00
E100
0080
0080
0080
0100
0600
3800
ENDCHAR
STARTCHAR U+3065
ENCODING 12389
SWIDTH 545 0
DWIDTH 12 0
BBX 10 11 1 0
BITMAP
0080
0240
0100
1E00
E100
0080
0080
0080
0100
0600
3800
ENDCHAR
STARTCHAR U+3066
ENCODING 12390
SWIDTH 545 0
DWIDTH 12 0
BBX 10 9 0 -1
BITMAP
0FC0
F200
0400
0800
0800
0800
0800
0400
0380
ENDCHAR
STARTCHAR U+3067
ENCODING 12391
SWIDTH 545 0
DWIDTH 12 0
BBX 11 9 0 -1
BITMAP
0FC0
F200
0440
0920
0880
0800
0800
0400
0380
ENDCHAR
STARTCHAR U+3068
ENCODING 12392
SWIDTH 545 0
DWIDTH 12 0
BBX 7 11 2 -1
BITMAP
20
20
20
10
1E
30
40
80
80
40
3E
ENDCHAR
STARTCHAR U+3069
ENCODING 12393
SWIDTH 545 0
DWIDTH 12 0
BBX 9 12 1 -1
BITMAP
0100
2480
2200
2000
1000
1E00
3000
4000
8000
8000
4000
3E00
ENDCHAR
STARTCHAR U+306A
ENCODING 12394
SWIDTH 545 0
DWIDTH 12 0
BBX 11 11 0 -1
BITMAP
0800
08C0
FE20
1000
1080
2080
2080
4780
48C0
08A0
0700
ENDCHAR
STARTCHAR U+306B
ENCODING 12395
SWIDTH 545 0
DWIDTH 12 0
BBX 10 10 1 -1
BITMAP
4000
4780
8000
8000
8000
8400
8800
8800
47C0
4000
ENDCHAR
STARTCHAR U+306C
ENCODING 12396
SWIDTH 545 0
DWIDTH 12 0
BBX 10 11 1 -1
BITMAP
0400
0400
4400
5F00
6480
4440
A840
AB40
94C0
6480
0340
ENDCHAR
STARTCHAR U+306D
ENCODING 12397
SWIDTH 545 0
DWIDTH 12 0
BBX 10 11 1 -1
BITMAP
2000
2000
2000
E700
2880
3040
2040
6340
A4C0
2480
2340
ENDCHAR
STARTCHAR U+306E
ENCODING 12398
SWIDTH 545 0
DWIDTH 12 0
BBX 10 8 1 0
BITMAP
1F00
2880
4840
8840
9040
9040
6080
0300
ENDCHAR
STARTCHAR U+306F
ENCODING 12399
SWIDTH 545 0
DWIDTH 12 0
BBX 10 11 1 -1
BITMAP
0100
4100
4100
9FC0
8100
8100
8100
8F00
9180
5140
4E00
ENDCHAR
STARTCHAR U+3070
ENCODING 12400
SWIDTH 545 0
DWIDTH 12 0
BBX 11 11 0 -1
BITMAP
0140
4120
4180
9F40
8100
8100
8100
8F00
9180
5140
4E00
ENDCHAR
STARTCHAR U+3071
ENCODING 12401
SWIDTH 545 0
DWIDTH 12 0
BBX 11 11 0 -1
BITMAP
00C0
4120
4120
9FC0
8100
8100
8100
8F00
9180
5140
4E00
ENDCHAR
STARTCHAR U+3072
ENCODING 12402
SWIDTH 545 0
DWIDTH 12 0
BBX 10 10 1 -1
BITMAP
F200
1200
2100
4180
4140
8100
8200
8200
4400
3800
ENDCHAR
STARTCHAR U+3073
ENCODING 12403
SWIDTH 545 0
DWIDTH 12 0
BBX 10 11 1 -1
BITMAP
0080
F240
1100
2000
4100
4180
8140
8200
8200
4400
3800
ENDCHAR
STARTCHAR U+3074
ENCODING 12404
SWIDTH 545 0
DWIDTH 12 0
BBX 10 11 1 -1
BITMAP
0180
F240
1240
2180
4140
4100
8100
8200
8200
4400
3800
ENDCHAR
STARTCHAR U+3075
ENCODING 12405
SWIDTH 545 0
DWIDTH 12 0
BBX 10 10 1 -1
BITMAP
3E00
0200
0400
0800
4880
4880
4440
8440
8440
1800
ENDCHAR
STARTCHAR U+3076
ENCODING 12406
SWIDTH 545 0
DWIDTH 12 0
BBX 10 11 1 -1
BITMAP
0080
3E40
0300
0480
0800
4800
4880
4480
8440
8440
1800
ENDCHAR
STARTCHAR U+3077
ENCODING 12407
SWIDTH 545 0
DWIDTH 12 0
BBX 10 11 1 -1
BITMAP
0180
3E40
0240
0580
0800
4800
4880
4480
8440
8440
1800
ENDCHAR
STARTCHAR U+3078
ENCODING 12408
SWIDTH 545 0
DWIDTH 12 0
BBX 11 5 0 1
BITMAP
3800
4400
8200
0180
0060
ENDCHAR
STARTCHAR U+3079
ENCODING 12409
SWIDTH 545 0
DWIDTH 12 0
BBX 11 8 0 1
BITMAP
0080
0240
0100
3800
4400
8200
0180
0060
ENDCHAR
STARTCHAR U+307A
ENCODING 12410
SWIDTH 545 0
DWIDTH 12 0
BBX 11 8 0 1
BITMAP
0180
0240
0240
3980
4400
8200
0180
0060
ENDCHAR
STARTCHAR U+307B
ENCODING 12411
SWIDTH 545 0
DWIDTH 12 0
BBX 10 10 1 -1
BITMAP
5FC0
4100
8100
9FC0
8100
8100
8F00
9180
5140
4E00
ENDCHAR
STARTCHAR U+307C
ENCODING 12412
SWIDTH 545 0
DWIDTH 12 0
BBX 11 11 0 -1
BITMAP
0040
5F20
4180
8100
9FC0
8100
8100
8F00
9180
5140
4E00
ENDCHAR
STARTCHAR U+307D
ENCODING 12413
SWIDTH 545 0
DWIDTH 12 0
BBX 11 11 0 -1
BITMAP
00C0
5F20
4120
81C0
9F00
8100
8100
8F00
9180
5140
4E00
ENDCHAR
STARTCHAR U+307E
ENCODING 12414
SWIDTH 545 0
DWIDTH 12 0
BBX 9 11 1 -1
BITMAP
0400
0400
FF80
0400
7F80
0400
0400
3C00
4700
4480
3800
ENDCHAR
STARTCHAR U+307F
ENCODING 12415
SWIDTH 545 0
DWIDTH 12 0
BBX 11 10 0 -1
BITMAP
7C00
0480
0480
0480
3F80
48C0
88A0
9080
6100
0600
ENDCHAR
STARTCHAR U+3080
ENCODING 12416
SWIDTH 545 0
DWIDTH 12 0
BBX 10 11 1 -1
BITMAP
1000
1100
FC80
1040
1000
7000
9000
9080
7080
1080
0F00
ENDCHAR
STARTCHAR U+3081
ENCODING 12417
SWIDTH 545 0
DWIDTH 12 0
BBX 10 11 1 -1
BITMAP
0400
0400
4400
5F00
2480
6440
A840
9840
9040
6080
0300
ENDCHAR
STARTCHAR U+3082
ENCODING 12418
SWIDTH 545 0
DWIDTH 12 0
BBX 9 11 1 -1
BITMAP
1000
1000
FF00
1000
1000
FF00
2000
2080
2080
1100
0E00
ENDCHAR
STARTCHAR U+3083
ENCODING 12419
SWIDTH 545 0
DWIDTH 12 0
BBX 7 8 2 -1
BITMAP
08
48
5C
EA
22
24
10
10
ENDCHAR
STARTCHAR U+3084
ENCODING 12420
SWIDTH 545 0
DWIDTH 12 0
BBX 10 11 1 -1
BITMAP
0200
2200
2380
2E40
3240
D040
0980
0800
0800
0400
0400
ENDCHAR
STARTCHAR U+3085
ENCODING 12421
SWIDTH 545 0
DWIDTH 12 0
BBX 8 8 2 -1
BITMAP
08
88
9E
A5
C5
5E
44
08
ENDCHAR
STARTCHAR U+3086
ENCODING 12422
SWIDTH 545 0
DWIDTH 12 0
BBX 10 11 1 -1
BITMAP
0200
0200
8F80
9240
A240
A240
4240
4F80
4200
0200
0C00
ENDCHAR
STARTCHAR U+3087
ENCODING 12423
SWIDTH 545 0
DWIDTH 12 0
BBX 6 8 3 -1
BITMAP
10
10
1C
10
70
98
94
60
ENDCHAR
STARTCHAR U+3088
ENCODING 12424
SWIDTH 545 0
DWIDTH 12 0
BBX 8 11 1 -1
BITMAP
08
08
08
0F
08
08
08
78
8E
89
70
ENDCHAR
STARTCHAR U+3089
ENCODING 12425
SWIDTH 545 0
DWIDTH 12 0
BBX 8 11 2 -1
BITMAP
30
0C
00
80
80
9C
E2
01
01
06
38
ENDCHAR
STARTCHAR U+308A
ENCODING 12426
SWIDTH 545 0
DWIDTH 12 0
BBX 6 10 3 -1
BITMAP
84
84
84
84
84
A4
44
04
08
30
ENDCHAR
STARTCHAR U+308B
ENCODING 12427
SWIDTH 545 0
DWIDTH 12 0
BBX 8 10 2 -1
BITMAP
7E
04
08
1C
62
81
31
49
4A
3C
ENDCHAR
STARTCHAR U+308C
ENCODING 12428
SWIDTH 545 0
DWIDTH 12 0
BBX 10 11 1 -1
BITMAP
2000
2000
2000
E700
2880
3080
2080
6100
A100
2100
20C0
ENDCHAR
STARTCHAR U+308D
ENCODING 12429
SWIDTH 545 0
DWIDTH 12 0
BBX 8 10 2 -1
BITMAP
7E
04
08
1C
62
81
01
01
06
38
ENDCHAR
STARTCHAR U+308E
ENCODING 12430
SWIDTH 545 0
DWIDTH 12 0
BBX 7 8 2 -1
BITMAP
20
20
EC
32
22
62
A2
2C
ENDCHAR
STARTCHAR U+308F
ENCODING 12431
SWIDTH 545 0
DWIDTH 12 0
BBX 10 11 1 -1
BITMAP
2000
2000
2000
E700
2880
3040
2040
6040
A040
2080
2300
ENDCHAR
STARTCHAR U+3090
ENCODING 12432
SWIDTH 545 0
DWIDTH 12 0
BBX 10 10 1 -1
BITMAP
7C00
0400
0700
3880
4840
8840
91C0
9240
6240
0180
ENDCHAR
STARTCHAR U+3091
ENCODING 12433
SWIDTH 545 0
DWIDTH 12 0
BBX 10 11 1 -1
BITMAP
7F80
0200
0400
1F00
6080
1C80
2300
3E00
1000
7380
8C40
ENDCHAR
STARTCHAR U+3092
ENCODING 12434
SWIDTH 545 0
DWIDTH 12 0
BBX 9 11 1 -1
BITMAP
1000
1000
FF00
2000
3800
4580
8E00
9400
2400
2000
1F00
ENDCHAR
STARTCHAR U+3093
ENCODING 12435
SWIDTH 545 0
DWIDTH 12 0
BBX 10 10 1 -1
BITMAP
0800
0800
1000
1000
2C00
3200
4200
4240
8240
8180
ENDCHAR
STARTCHAR U+30A1
ENCODING 12449
SWIDTH 545 0
DWIDTH 12 0
BBX 7 7 2 -1
BITMAP
FE
02
12
14
10
20
40
ENDCHAR
STARTCHAR U+30A2
ENCODING 12450
SWIDTH 545 0
DWIDTH 12 0
BBX 10 10 1 -1
BITMAP
FFC0
0040
0080
0900
0800
0800
0800
0800
1000
6000
ENDCHAR
STARTCHAR U+30A3
ENCODING 12451
SWIDTH 545 0
DWIDTH 12 0
BBX 6 7 3 -1
BITMAP
04
08
30
D0
10
10
10
ENDCHAR
STARTCHAR U+30A4
ENCODING 12452
SWIDTH 545 0
DWIDTH 12 0
BBX 9 10 1 -1
BITMAP
0080
0100
0200
0C00
3400
C400
0400
0400
0400
0400
ENDCHAR
STARTCHAR U+30A5
ENCODING 12453
SWIDTH 545 0
DWIDTH 12 0
BBX 7 8 2 -1
BITMAP
10
10
FE
82
82
02
04
38
ENDCHAR
STARTCHAR U+30A6
ENCODING 12454
SWIDTH 545 0
DWIDTH 12 0
BBX 9 11 1 -1
BITMAP
0800
0800
FF80
8080
8080
8080
0100
0100
0200
0C00
3000
ENDCHAR
STARTCHAR U+30A7
ENCODING 12455
SWIDTH 545 0
DWIDTH 12 0
BBX 7 6 2 0
BITMAP
FE
10
10
10
10
FE
ENDCHAR
STARTCHAR U+30A8
ENCODING 12456
SWIDTH 545 0
DWIDTH 12 0
BBX 11 8 0 0
BITMAP
7FC0
0400
0400
0400
0400
0400
0400
FFE0
ENDCHAR
STARTCHAR U+30A9
ENCODING 12457
SWIDTH 545 0
DWIDTH 12 0
BBX 7 8 2 -1
BITMAP
08
08
FE
08
18
28
C8
18
ENDCHAR
STARTCHAR U+30AA
ENCODING 12458
SWIDTH 545 0
DWIDTH 12 0
BBX 10 11 1 -1
BITMAP
0200
0200
0200
FFC0
0200
0600
0A00
3200
C200
0200
0E00
ENDCHAR
STARTCHAR U+30AB
ENCODING 12459
SWIDTH 545 0
DWIDTH 12 0
BBX 10 11 1 -1
BITMAP
0800
0800
0800
FFC0
0840
0840
0840
1040
1040
2040
C380
ENDCHAR
STARTCHAR U+30AC
ENCODING 12460
SWIDTH 545 0
DWIDTH 12 0
BBX 11 12 0 -1
BITMAP
0040
0920
0880
0800
FFC0
0840
0840
0840
1040
1040
2040
C380
ENDCHAR
STARTCHAR U+30AD
ENCODING 12461
SWIDTH 545 0
DWIDTH 12 0
BBX 10 11 1 -1
BITMAP
0800
0800
0800
FF80
0800
0800
0800
FFC0
0400
0400
0400
ENDCHAR
STARTCHAR U+30AE
ENCODING 12462
SWIDTH 545 0
DWIDTH 12 0
BBX 11 11 0 -1
BITMAP
0840
0920
0880
FF00
0800
0800
0800
FFC0
0400
0400
0400
ENDCHAR
STARTCHAR U+30AF
ENCODING 12463
SWIDTH 545 0
DWIDTH 12 0
BBX 8 11 2 -1
BITMAP
10
10
1F
21
41
81
02
02
04
18
E0
ENDCHAR
STARTCHAR U+30B0
ENCODING 12464
SWIDTH 545 0
DWIDTH 12 0
BBX 10 12 1 -1
BITMAP
0080
1240
1100
1F00
2100
4100
8100
0200
0200
0400
1800
E000
ENDCHAR
STARTCHAR U+30B1
ENCODING 12465
SWIDTH 545 0
DWIDTH 12 0
BBX 10 11 1 -1
BITMAP
2000
2000
2000
3FC0
4200
8200
0200
0400
0400
1800
6000
ENDCHAR
STARTCHAR U+30B2
ENCODING 12466
SWIDTH 545 0
DWIDTH 12 0
BBX 11 12 0 -1
BITMAP
0040
2120
2080
2000
3FC0
4200
8200
0200
0400
0400
1800
6000
ENDCHAR
STARTCHAR U+30B3
ENCODING 12467
SWIDTH 545 0
DWIDTH 12 0
BBX 9 9 1 -1
BITMAP
FF80
0080
0080
0080
0080
0080
0080
FF80
0080
ENDCHAR
STARTCHAR U+30B4
ENCODING 12468
SWIDTH 545 0
DWIDTH 12 0
BBX 10 12 1 -1
BITMAP
0080
0440
0200
FF80
0080
0080
0080
0080
0080
0080
FF80
0080
ENDCHAR
STARTCHAR U+30B5
ENCODING 12469
SWIDTH 545 0
DWIDTH 12 0
BBX 10 11 1 -1
BITMAP
2100
2100
2100
FFC0
2100
2100
2100
0200
0200
0C00
3000
ENDCHAR
STARTCHAR U+30B6
ENCODING 12470
SWIDTH 545 0
DWIDTH 12 0
BBX 11 11 0 -1
BITMAP
2140
2120
2180
FF40
2100
2100
2100
0200
0200
0C00
3000
ENDCHAR
STARTCHAR U+30B7
ENCODING 12471
SWIDTH 545 0
DWIDTH 12 0
BBX 10 10 1 -1
BITMAP
6000
1800
0040
C040
3080
0080
0100
0200
0C00
7000
ENDCHAR
STARTCHAR U+30B8
ENCODING 12472
SWIDTH 545 0
DWIDTH 12 0
BBX 10 12 1 -1
BITMAP
0080
0240
6100
1800
0040
C040
3080
0080
0100
0200
0C00
7000
ENDCHAR
STARTCHAR U+30B9
ENCODING 12473
SWIDTH 545 0
DWIDTH 12 0
BBX 10 10 1 -1
BITMAP
7F00
0100
0100
0100
0200
0200
0600
0900
3080
C040
ENDCHAR
STARTCHAR U+30BA
ENCODING 12474
SWIDTH 545 0
DWIDTH 12 0
BBX 11 12 0 -1
BITMAP
0240
0120
7F00
0100
0100
0100
0200
0200
0600
0900
3080
C040
ENDCHAR
STARTCHAR U+30BB
ENCODING 12475
SWIDTH 545 0
DWIDTH 12 0
BBX 11 11 0 -1
BITMAP
0800
0800
08E0
0B20
1C40
E840
0880
0800
0800
0800
07E0
ENDCHAR
STARTCHAR U+30BC
ENCODING 12476
SWIDTH 545 0
DWIDTH 12 0
BBX 11 12 0 -1
BITMAP
0040
0920
0880
08E0
0B20
1C40
E840
0880
0800
0800
0800
07E0
ENDCHAR
STARTCHAR U+30BD
ENCODING 12477
SWIDTH 545 0
DWIDTH 12 0
BBX 9 10 1 -1
BITMAP
8080
8080
4080
4080
0080
0100
0100
0200
0C00
3000
ENDCHAR
STARTCHAR U+30BE
ENCODING 12478
SWIDTH 545 0
DWIDTH 12 0
BBX 11 12 0 -1
BITMAP
0040
0120
8080
8000
4080
4080
0080
0100
0100
0200
0C00
3000
ENDCHAR
STARTCHAR U+30BF
ENCODING 12479
SWIDTH 545 0
DWIDTH 12 0
BBX 8 11 2 -1
BITMAP
10
10
1F
21
41
99
06
02
04
18
E0
ENDCHAR
STARTCHAR U+30C0
ENCODING 12480
SWIDTH 545 0
DWIDTH 12 0
BBX 10 12 1 -1
BITMAP
0080
1240
1100
1F00
2100
4100
9900
0600
0200
0400
1800
E000
ENDCHAR
STARTCHAR U+30C1
ENCODING 12481
SWIDTH 545 0
DWIDTH 12 0
BBX 11 10 0 -1
BITMAP
03C0
7C00
0400
0400
FFE0
0400
0400
0400
0800
3000
ENDCHAR
STARTCHAR U+30C2
ENCODING 12482
SWIDTH 545 0
DWIDTH 12 0
BBX 11 11 0 -1
BITMAP
0040
0320
7C80
0400
0400
FFE0
0400
0400
0400
0800
3000
ENDCHAR
STARTCHAR U+30C3
ENCODING 12483
SWIDTH 545 0
DWIDTH 12 0
BBX 7 7 2 -1
BITMAP
92
92
92
04
04
18
60
ENDCHAR
STARTCHAR U+30C4
ENCODING 12484
SWIDTH 545 0
DWIDTH 12 0
BBX 9 10 1 -1
BITMAP
9080
9080
4880
4880
0080
0100
0100
0200
0C00
3000
ENDCHAR
STARTCHAR U+30C5
ENCODING 12485
SWIDTH 545 0
DWIDTH 12 0
BBX 11 12 0 -1
BITMAP
0040
0120
9080
9000
4880
4880
0080
0100
0100
0200
0C00
3000
ENDCHAR
STARTCHAR U+30C6
ENCODING 12486
SWIDTH 545 0
DWIDTH 12 0
BBX 10 10 1 -1
BITMAP
7F80
0000
0000
FFC0
0400
0400
0400
0400
0800
3000
ENDCHAR
STARTCHAR U+30C7
ENCODING 12487
SWIDTH 545 0
DWIDTH 12 0
BBX 11 12 0 -1
BITMAP
0040
0120
7E80
0000
0000
FFC0
0400
0400
0400
0400
0800
3000
ENDCHAR
STARTCHAR U+30C8
ENCODING 12488
SWIDTH 545 0
DWIDTH 12 0
BBX 7 11 3 -1
BITMAP
80
80
80
80
E0
98
86
80
80
80
80
ENDCHAR
STARTCHAR U+30C9
ENCODING 12489
SWIDTH 545 0
DWIDTH 12 0
BBX 8 11 2 -1
BITMAP
82
89
84
80
E0
98
86
80
80
80
80
ENDCHAR
STARTCHAR U+30CA
ENCODING 12490
SWIDTH 545 0
DWIDTH 12 0
BBX 10 11 1 -1
BITMAP
0400
0400
0400
FFC0
0400
0400
0400
0800
0800
1000
6000
ENDCHAR
STARTCHAR U+30CB
ENCODING 12491
SWIDTH 545 0
DWIDTH 12 0
BBX 10 8 1 0
BITMAP
7F80
0000
0000
0000
0000
0000
0000
FFC0
ENDCHAR
STARTCHAR U+30CC
ENCODING 12492
SWIDTH 545 0
DWIDTH 12 0
BBX 9 10 1 -1
BITMAP
7F80
0080
0080
1100
0900
0600
0200
0500
1880
E000
ENDCHAR
STARTCHAR U+30CD
ENCODING 12493
SWIDTH 545 0
DWIDTH 12 0
BBX 11 11 0 -1
BITMAP
0400
0400
7F80
0080
0100
0200
0600
1D80
E460
0400
0400
ENDCHAR
STARTCHAR U+30CE
ENCODING 12494
SWIDTH 545 0
DWIDTH 12 0
BBX 7 10 2 -1
BITMAP
02
02
02
02
02
04
04
08
30
C0
ENDCHAR
STARTCHAR U+30CF
ENCODING 12495
SWIDTH 545 0
DWIDTH 12 0
BBX 10 10 1 -1
BITMAP
2000
2100
2100
2080
4080
4080
4040
8040
8040
8040
ENDCHAR
STARTCHAR U+30D0
ENCODING 12496
SWIDTH 545 0
DWIDTH 12 0
BBX 10 11 1 -1
BITMAP
0080
0240
2100
2000
2000
2100
4100
4080
4080
8040
8040
ENDCHAR
STARTCHAR U+30D1
ENCODING 12497
SWIDTH 545 0
DWIDTH 12 0
BBX 10 11 1 -1
BITMAP
0180
0240
2240
2180
2000
2100
4100
4080
4080
8040
8040
ENDCHAR
STARTCHAR U+30D2
ENCODING 12498
SWIDTH 545 0
DWIDTH 12 0
BBX 8 11 2 -1
BITMAP
80
80
80
87
F8
80
80
80
80
80
7F
ENDCHAR
STARTCHAR U+30D3
ENCODING 12499
SWIDTH 545 0
DWIDTH 12 0
BBX 9 11 2 -1
BITMAP
0100
8480
8200
8000
8700
F800
8000
8000
8000
8000
7F00
ENDCHAR
STARTCHAR U+30D4
ENCODING 12500
SWIDTH 545 0
DWIDTH 12 0
BBX 10 11 1 -1
BITMAP
0180
8240
8240
8180
8C00
F000
8000
8000
8000
8000
7F00
ENDCHAR
STARTCHAR U+30D5
ENCODING 12501
SWIDTH 545 0
DWIDTH 12 0
BBX 9 10 1 -1
BITMAP
FF80
0080
0080
0080
0080
0100
0100
0200
0C00
7000
ENDCHAR
STARTCHAR U+30D6
ENCODING 12502
SWIDTH 545 0
DWIDTH 12 0
BBX 11 12 0 -1
BITMAP
0040
0220
0100
FF80
0080
0080
0080
0100
0100
0200
0C00
3000
ENDCHAR
STARTCHAR U+30D7
ENCODING 12503
SWIDTH 545 0
DWIDTH 12 0
BBX 11 12 0 -1
BITMAP
00C0
0120
FF20
00C0
0080
0080
0080
0100
0100
0200
0C00
3000
ENDCHAR
STARTCHAR U+30D8
ENCODING 12504
SWIDTH 545 0
DWIDTH 12 0
BBX 11 6 0 1
BITMAP
1C00
2200
4100
8080
0040
0020
ENDCHAR
STARTCHAR U+30D9
ENCODING 12505
SWIDTH 545 0
DWIDTH 12 0
BBX 11 10 0 0
BITMAP
0040
0120
0080
0000
1C00
2200
4100
8080
0040
0020
ENDCHAR
STARTCHAR U+30DA
ENCODING 12506
SWIDTH 545 0
DWIDTH 12 0
BBX 11 10 0 0
BITMAP
00C0
0120
0120
00C0
1C00
2200
4100
8080
0040
0020
ENDCHAR
STARTCHAR U+30DB
ENCODING 12507
SWIDTH 545 0
DWIDTH 12 0
BBX 11 11 0 -1
BITMAP
0400
0400
0400
FFE0
0400
0400
2480
4440
8420
0400
0C00
ENDCHAR
STARTCHAR U+30DC
ENCODING 12508
SWIDTH 545 0
DWIDTH 12 0
BBX 11 12 0 -1
BITMAP
0040
0520
0480
0400
FFE0
0400
0400
2480
4440
8420
0400
0C00
ENDCHAR
STARTCHAR U+30DD
ENCODING 12509
SWIDTH 545 0
DWIDTH 12 0
BBX 11 11 0 -1
BITMAP
04C0
0520
0520
FFC0
0400
0400
2480
4440
8420
0400
0C00
ENDCHAR
STARTCHAR U+30DE
ENCODING 12510
SWIDTH 545 0
DWIDTH 12 0
BBX 10 9 1 -1
BITMAP
FFC0
0040
0080
0100
2200
1400
0800
0400
0200
ENDCHAR
STARTCHAR U+30DF
ENCODING 12511
SWIDTH 545 0
DWIDTH 12 0
BBX 7 10 2 -1
BITMAP
70
0E
00
00
70
0C
00
00
F0
0E
ENDCHAR
STARTCHAR U+30E0
ENCODING 12512
SWIDTH 545 0
DWIDTH 12 0
BBX 10 11 0 -1
BITMAP
0800
0800
0800
0800
1000
1080
1080
2080
2740
F840
0040
ENDCHAR
STARTCHAR U+30E1
ENCODING 12513
SWIDTH 545 0
DWIDTH 12 0
BBX 10 11 1 -1
BITMAP
0200
0200
0200
0200
6200
1C00
0700
04C0
0800
3000
C000
ENDCHAR
STARTCHAR U+30E2
ENCODING 12514
SWIDTH 545 0
DWIDTH 12 0
BBX 11 10 0 -1
BITMAP
7F80
0800
0800
0800
FFE0
0800
0800
0800
0800
0780
ENDCHAR
STARTCHAR U+30E3
ENCODING 12515
SWIDTH 545 0
DWIDTH 12 0
BBX 7 8 2 -1
BITMAP
20
20
2E
F2
24
14
10
10
ENDCHAR
STARTCHAR U+30E4
ENCODING 12516
SWIDTH 545 0
DWIDTH 12 0
BBX 10 11 0 -1
BITMAP
1000
1000
11C0
1E40
E840
0880
0880
0800
0400
0400
0400
ENDCHAR
STARTCHAR U+30E5
ENCODING 12517
SWIDTH 545 0
DWIDTH 12 0
BBX 8 6 1 0
BITMAP
7C
04
04
04
04
FF
ENDCHAR
STARTCHAR U+30E6
ENCODING 12518
SWIDTH 545 0
DWIDTH 12 0
BBX 11 8 0 0
BITMAP
3F00
0100
0100
0100
0100
0100
0100
FFE0
ENDCHAR
STARTCHAR U+30E7
ENCODING 12519
SWIDTH 545 0
DWIDTH 12 0
BBX 6 7 3 -1
BITMAP
FC
04
04
FC
04
04
FC
ENDCHAR
STARTCHAR U+30E8
ENCODING 12520
SWIDTH 545 0
DWIDTH 12 0
BBX 8 10 2 -1
BITMAP
FF
01
01
01
FF
01
01
01
FF
01
ENDCHAR
STARTCHAR U+30E9
ENCODING 12521
SWIDTH 545 0
DWIDTH 12 0
BBX 9 10 1 -1
BITMAP
7F00
0000
0000
FF80
0080
0080
0100
0200
0C00
3000
ENDCHAR
STARTCHAR U+30EA
ENCODING 12522
SWIDTH 545 0
DWIDTH 12 0
BBX 7 11 2 -1
BITMAP
82
82
82
82
82
82
02
04
04
08
30
ENDCHAR
STARTCHAR U+30EB
ENCODING 12523
SWIDTH 545 0
DWIDTH 12 0
BBX 10 11 1 -1
BITMAP
0400
2400
2400
2400
2400
2440
2440
4480
4480
8500
8600
ENDCHAR
STARTCHAR U+30EC
ENCODING 12524
SWIDTH 545 0
DWIDTH 12 0
BBX 8 10 2 -1
BITMAP
80
80
80
80
80
81
82
84
98
E0
ENDCHAR
STARTCHAR U+30ED
ENCODING 12525
SWIDTH 545 0
DWIDTH 12 0
BBX 9 9 1 -1
BITMAP
FF80
8080
8080
8080
8080
8080
8080
FF80
8080
ENDCHAR
STARTCHAR U+30EE
ENCODING 12526
SWIDTH 545 0
DWIDTH 12 0
BBX 7 7 2 -1
BITMAP
FE
82
82
02
02
04
38
ENDCHAR
STARTCHAR U+30EF
ENCODING 12527
SWIDTH 545 0
DWIDTH 12 0
BBX 9 10 1 -1
BITMAP
FF80
8080
8080
8080
0080
0100
0100
0200
0C00
3000
ENDCHAR
STARTCHAR U+30F0
ENCODING 12528
SWIDTH 545 0
DWIDTH 12 0
BBX 10 11 1 -1
BITMAP
0200
0200
0200
7F80
2200
2200
2200
FFC0
0200
0200
0200
ENDCHAR
STARTCHAR U+30F1
ENCODING 12529
SWIDTH 545 0
DWIDTH 12 0
BBX 10 8 1 0
BITMAP
7F80
0100
0200
0C00
0800
0800
0800
FFC0
ENDCHAR
STARTCHAR U+30F2
ENCODING 12530
SWIDTH 545 0
DWIDTH 12 0
BBX 8 10 2 -1
BITMAP
FF
01
01
FF
01
02
02
04
18
60
ENDCHAR
STARTCHAR U+30F3
ENCODING 12531
SWIDTH 545 0
DWIDTH 12 0
BBX 9 10 2 -1
BITMAP
C000
3000
0080
0080
0100
0100
0200
0400
1800
E000
ENDCHAR
STARTCHAR U+30F4
ENCODING 12532
SWIDTH 545 0
DWIDTH 12 0
BBX 10 12 1 -1
BITMAP
0080
0A40
0900
FF80
8080
8080
8080
0100
0100
0200
0C00
3000
ENDCHAR
STARTCHAR U+30F5
ENCODING 12533
SWIDTH 545 0
DWIDTH 12 0
BBX 7 8 2 -1
BITMAP
20
20
FE
22
22
22
42
4C
ENDCHAR
STARTCHAR U+30F6
ENCODING 12534
SWIDTH 545 0
DWIDTH 12 0
BBX 7 8 2 -1
BITMAP
40
40
7E
88
88
08
10
60
ENDCHAR
STARTCHAR U+30FB
ENCODING 12539
SWIDTH 545 0
DWIDTH 12 0
BBX 1 1 2 0
BITMAP
80
ENDCHAR
STARTCHAR U+3220
ENCODING 12832
SWIDTH 590 0
DWIDTH 13 0
BBX 12 10 0 0
BITMAP
4020
8010
8010
8010
8010
BFD0
8010
8010
8010
4020
ENDCHAR
STARTCHAR U+3221
ENCODING 12833
SWIDTH 590 0
DWIDTH 13 0
BBX 12 10 0 0
BITMAP
4020
8010
9F90
8010
8010
8010
8010
BFD0
8010
4020
ENDCHAR
STARTCHAR U+3222
ENCODING 12834
SWIDTH 590 0
DWIDTH 13 0
BBX 12 10 0 0
BITMAP
4020
8010
9F90
8010
8010
9F90
8010
8010
BFD0
4020
ENDCHAR
STARTCHAR U+3223
ENCODING 12835
SWIDTH 590 0
DWIDTH 13 0
BBX 12 10 0 0
BITMAP
4020
8010
BF90
AA90
AA90
B390
A090
A090
BF90
4020
ENDCHAR
STARTCHAR U+3224
ENCODING 12836
SWIDTH 590 0
DWIDTH 13 0
BBX 12 10 0 0
BITMAP
4020
8010
9F90
8410
9F90
8490
8490
8490
BFD0
4020
ENDCHAR
STARTCHAR U+3225
ENCODING 12837
SWIDTH 590 0
DWIDTH 13 0
BBX 12 10 0 0
BITMAP
4020
8410
8210
BFD0
8010
8910
8910
9090
9090
4020
ENDCHAR
STARTCHAR U+3226
ENCODING 12838
SWIDTH 590 0
DWIDTH 13 0
BBX 12 10 0 0
BITMAP
4020
8810
8810
8990
8E10
B810
8890
8890
8790
4020
ENDCHAR
STARTCHAR U+3227
ENCODING 12839
SWIDTH 590 0
DWIDTH 13 0
BBX 12 10 0 0
BITMAP
4020
8210
8A10
8A10
8A10
9110
9110
A0D0
8010
4020
ENDCHAR
STARTCHAR U+3228
ENCODING 12840
SWIDTH 590 0
DWIDTH 13 0
BBX 12 10 0 0
BITMAP
4020
8810
8810
BE10
8A10
8A10
8A90
8A90
9190
6020
ENDCHAR
STARTCHAR U+3229
ENCODING 12841
SWIDTH 590 0
DWIDTH 13 0
BBX 12 10 0 0
BITMAP
4020
8410
8410
8410
BF90
8410
8410
8410
8410
4020
ENDCHAR
STARTCHAR U+4E00
ENCODING 19968
SWIDTH 545 0
DWIDTH 12 0
BBX 10 1 1 4
BITMAP
FFC0
ENDCHAR
STARTCHAR U+4E01
ENCODING 19969
SWIDTH 545 0
DWIDTH 12 0
BBX 11 11 0 -1
BITMAP
FFE0
0200
0200
0200
0200
0200
0200
0200
0200
0200
0E00
ENDCHAR
STARTCHAR U+4E02
ENCODING 19970
SWIDTH 545 0
DWIDTH 12 0
BBX 10 11 1 -1
BITMAP
FFC0
1000
1000
2000
7F80
0080
0080
0080
0080
0080
0380
ENDCHAR
STARTCHAR U+4E03
ENCODING 19971
SWIDTH 545 0
DWIDTH 12 0
BBX 11 11 0 -1
BITMAP
1000
1000
10E0
1F00
F000
1000
1000
1000
1040
1040
0FC0
ENDCHAR
STARTCHAR U+4E04
ENCODING 19972
SWIDTH 545 0
DWIDTH 12 0
BBX 11 11 0 -1
BITMAP
0400
0400
0400
0400
0400
0400
0400
0400
0400
0400
FFE0
ENDCHAR
STARTCHAR U+4E05
ENCODING 19973
SWIDTH 545 0
DWIDTH 12 0
BBX 11 11 0 -1
BITMAP
FFE0
0400
0400
0400
0400
0400
0400
0400
0400
0400
0400
ENDCHAR
STARTCHAR U+4E06
ENCODING 19974
SWIDTH 545 0
DWIDTH 12 0
BBX 10 9 1 1
BITMAP
FFC0
0400
0400
0400
0800
0800
1000
2000
4000
ENDCHAR
STARTCHAR U+4E07
ENCODING 19975
SWIDTH 545 0
DWIDTH 12 0
BBX 11 11 0 -1
BITMAP
FFE0
0800
0800
0FC0
0840
0840
0840
1040
1040
2040
41C0
ENDCHAR
STARTCHAR U+4E08
ENCODING 19976
SWIDTH 545 0
DWIDTH 12 0
BBX 11 11 0 -1
BITMAP
0200
0200
FFE0
0200
0200
1200
0A00
0400
0A00
3180
C060
ENDCHAR
STARTCHAR U+4E09
ENCODING 19977
SWIDTH 545 0
DWIDTH 12 0
BBX 11 10 0 -1
BITMAP
7FC0
0000
0000
0000
3F80
0000
0000
0000
0000
FFE0
ENDCHAR
STARTCHAR U+4E0A
ENCODING 19978
SWIDTH 545 0
DWIDTH 12 0
BBX 11 11 0 -1
BITMAP
0400
0400
0400
07C0
0400
0400
0400
0400
0400
0400
FFE0
ENDCHAR
STARTCHAR U+4E0B
ENCODING 19979
SWIDTH 545 0
DWIDTH 12 0
BBX 11 11 0 -1
BITMAP
FFE0
0400
0400
0400
0700
04C0
0400
0400
0400
0400
0400
ENDCHAR
STARTCHAR U+4E0C
ENCODING 19980
SWIDTH 545 0
DWIDTH 12 0
BBX 11 11 0 -1
BITMAP
FFE0
1100
1100
1100
1100
1100
1100
2100
2100
4100
8100
ENDCHAR
STARTCHAR U+4E0D
ENCODING 19981
SWIDTH 545 0
DWIDTH 12 0
BBX 11 11 0 -1
BITMAP
FFE0
0100
0200
0400
0D00
3480
C440
0420
0400
0400
0400
ENDCHAR
STARTCHAR U+4E0E
ENCODING 19982
SWIDTH 545 0
DWIDTH 12 0
BBX 10 11 1 -1
BITMAP
4000
7FC0
4000
4000
7F80
0080
0080
FE80
0080
0080
0380
ENDCHAR
STARTCHAR U+4E0F
ENCODING 19983
SWIDTH 545 0
DWIDTH 12 0
BBX 11 11 0 -1
BITMAP
FFE0
0400
47C0
4440
4440
7FC0
0040
0040
0040
0040
01C0
ENDCHAR
STARTCHAR U+4E10
ENCODING 19984
SWIDTH 545 0
DWIDTH 12 0
BBX 11 11 0 -1
BITMAP
FFE0
0400
47C0
4400
4400
7FC0
0040
0040
0040
0040
01C0
ENDCHAR
STARTCHAR U+4E11
ENCODING 19985
SWIDTH 545 0
DWIDTH 12 0
BBX 11 11 0 -1
BITMAP
7F80
0880
0880
0880
0880
FFE0
1100
1100
1100
1100
FFE0
ENDCHAR
STARTCHAR U+4E12
ENCODING 19986
SWIDTH 545 0
DWIDTH 12 0
BBX 11 11 0 -1
BITMAP
FFC0
0440
2440
1440
0840
0840
1440
2040
C1C0
0000
FFE0
ENDCHAR
STARTCHAR U+4E13
ENCODING 19987
SWIDTH 545 0
DWIDTH 12 0
BBX 11 11 0 -1
BITMAP
0400
7FC0
0800
FFE0
1000
3FC0
0080
0100
1A00
0400
0200
ENDCHAR
STARTCHAR U+4E14
ENCODING 19988
SWIDTH 545 0
DWIDTH 12 0
BBX 11 11 0 -1
BITMAP
3F80
2080
2080
3F80
2080
2080
3F80
2080
2080
2080
FFE0
ENDCHAR
STARTCHAR U+4E15
ENCODING 19989
SWIDTH 545 0
DWIDTH 12 0
BBX 11 11 0 -1
BITMAP
FFE0
0100
0200
0400
0C80
3440
C420
0400
0400
0000
FFE0
ENDCHAR
STARTCHAR U+4E16
ENCODING 19990
SWIDTH 545 0
DWIDTH 12 0
BBX 11 11 0 -1
BITMAP
2480
2480
2480
FFE0
2480
2480
2480
2780
2000
2000
3FE0
ENDCHAR
STARTCHAR U+4E17
ENCODING 19991
SWIDTH 545 0
DWIDTH 12 0
BBX 11 11 0 -1
BITMAP
4440
4440
4440
FFE0
4440
4440
4440
4440
4440
7FC0
4040
ENDCHAR
STARTCHAR U+4E18
ENCODING 19992
SWIDTH 545 0
DWIDTH 12 0
BBX 11 11 0 -1
BITMAP
01C0
3E00
2000
2000
3FC0
2100
2100
2100
2100
2100
FFE0
ENDCHAR
STARTCHAR U+4E19
ENCODING 19993
SWIDTH 545 0
DWIDTH 12 0
BBX 11 11 0 -1
BITMAP
FFE0
0400
0400
FFE0
8420
8420
8A20
9120
A0A0
8020
8060
ENDCHAR
STARTCHAR U+4E1A
ENCODING 19994
SWIDTH 545 0
DWIDTH 12 0
BBX 11 11 0 -1
BITMAP
0A00
0A00
8A20
8A20
8A20
4A40
4A40
4A40
0A00
0A00
FFE0
ENDCHAR
STARTCHAR U+4E1B
ENCODING 19995
SWIDTH 545 0
DWIDTH 12 0
BBX 11 11 0 -1
BITMAP
1100
1100
1100
1100
1100
2A80
2A80
4440
8820
0000
FFE0
ENDCHAR
STARTCHAR U+4E1C
ENCODING 19996
SWIDTH 545 0
DWIDTH 12 0
BBX 11 11 0 -1
BITMAP
0400
FFE0
0800
1200
2200
7FE0
0200
1280
2240
4220
0E00
ENDCHAR
STARTCHAR U+4E1D
ENCODING 19997
SWIDTH 545 0
DWIDTH 12 0
BBX 11 11 0 -1
BITMAP
1040
2080
2080
4920
F3C0
2080
4100
FBE0
0000
0000
FFE0
ENDCHAR
STARTCHAR U+4E1E
ENCODING 19998
SWIDTH 545 0
DWIDTH 12 0
BBX 11 11 0 -1
BITMAP
3F80
0100
0200
F520
1540
2480
4440
8420
1C00
0000
FFE0
ENDCHAR
STARTCHAR U+4E1F
ENCODING 19999
SWIDTH 545 0
DWIDTH 12 0
BBX 11 11 0 -1
BITMAP
03C0
7C00
0400
7FC0
0400
0400
FFE0
0800
1080
2040
7FA0
ENDCHAR
STARTCHAR U+4E20
ENCODING 20000
SWIDTH 545 0
DWIDTH 12 0
BBX 11 11 0 -1
BITMAP
1200
1200
1260
F380
1200
1200
1220
1A20
F1E0
0000
FFE0
ENDCHAR
STARTCHAR U+4E21
ENCODING 20001
SWIDTH 545 0
DWIDTH 12 0
BBX 11 11 0 -1
BITMAP
FFE0
0400
FFE0
8420
8420
A4A0
A4A0
A4A0
BFA0
8020
80E0
ENDCHAR
STARTCHAR U+4E22
ENCODING 20002
SWIDTH 545 0
DWIDTH 12 0
BBX 11 11 0 -1
BITMAP
03C0
7C00
0400
7FC0
0400
0400
FFE0
0800
1080
2040
7FA0
ENDCHAR
STARTCHAR U+4E23
ENCODING 20003
SWIDTH 545 0
DWIDTH 12 0
BBX 11 11 0 -1
BITMAP
FFE0
0A00
7BC0
4A40
4A40
4A40
7BC0
0A00
1200
1200
2200
ENDCHAR
STARTCHAR U+4E24
ENCODING 20004
SWIDTH 545 0
DWIDTH 12 0
BBX 11 11 0 -1
BITMAP
FFE0
1100
FFE0
9120
9120
9120
AAA0
C460
8020
8020
80E0
ENDCHAR
STARTCHAR U+4E25
ENCODING 20005
SWIDTH 545 0
DWIDTH 12 0
BBX 11 11 0 -1
BITMAP
7FE0
0500
2520
1540
0500
7FE0
4000
4000
4000
4000
8000
ENDCHAR
STARTCHAR U+4E26
ENCODING 20006
SWIDTH 545 0
DWIDTH 12 0
BBX 11 11 0 -1
BITMAP
2080
1100
FFE0
0A00
4A40
4A40
4A40
2A80
0A00
0A00
FFE0
ENDCHAR
STARTCHAR U+4E27
ENCODING 20007
SWIDTH 545 0
DWIDTH 12 0
BBX 11 11 0 -1
BITMAP
0400
7FC0
0400
4440
2480
FFE0
4840
4480
4300
4180
7060
ENDCHAR
STARTCHAR U+4E28
ENCODING 20008
SWIDTH 545 0
DWIDTH 12 0
BBX 1 11 5 -1
BITMAP
80
80
80
80
80
80
80
80
80
80
80
ENDCHAR
STARTCHAR U+4E29
ENCODING 20009
SWIDTH 545 0
DWIDTH 12 0
BBX 6 11 3 -1
BITMAP
04
44
44
44
44
44
44
5C
E4
04
04
ENDCHAR
STARTCHAR U+4E2A
ENCODING 20010
SWIDTH 545 0
DWIDTH 12 0
BBX 11 11 0 -1
BITMAP
0E00
1100
2080
4440
8420
0400
0400
0400
0400
0400
0400
ENDCHAR
STARTCHAR U+4E2B
ENCODING 20011
SWIDTH 545 0
DWIDTH 12 0
BBX 8 11 2 -1
BITMAP
81
42
24
08
10
10
10
10
10
10
10
ENDCHAR
STARTCHAR U+4E2C
ENCODING 20012
SWIDTH 545 0
DWIDTH 12 0
BBX 6 11 2 -1
BITMAP
04
44
44
24
24
04
0C
34
C4
04
04
ENDCHAR
STARTCHAR U+4E2D
ENCODING 20013
SWIDTH 545 0
DWIDTH 12 0
BBX 11 11 0 -1
BITMAP
0400
0400
FFE0
8420
8420
8420
FFE0
0400
0400
0400
0400
ENDCHAR
STARTCHAR U+4E2E
ENCODING 20014
SWIDTH 545 0
DWIDTH 12 0
BBX 11 11 0 -1
BITMAP
FF80
1080
1080
FE80
1080
1080
FE80
1080
10A0
10A0
1060
ENDCHAR
STARTCHAR U+4E2F
ENCODING 20015
SWIDTH 545 0
DWIDTH 12 0
BBX 9 11 1 -1
BITMAP
0800
0F80
F800
0800
0F80
F800
0800
0F80
F800
0800
0800
ENDCHAR
STARTCHAR U+4E30
ENCODING 20016
SWIDTH 545 0
DWIDTH 12 0
BBX 11 11 0 -1
BITMAP
0400
FFE0
0400
0400
7FC0
0400
0400
FFE0
0400
0400
0400
ENDCHAR
STARTCHAR U+4E31
ENCODING 20017
SWIDTH 545 0
DWIDTH 12 0
BBX 10 11 1 -1
BITMAP
1200
1200
9240
9240
9240
9240
F3C0
1200
2200
2200
4200
ENDCHAR
STARTCHAR U+4E32
ENCODING 20018
SWIDTH 545 0
DWIDTH 12 0
BBX 11 11 0 -1
BITMAP
0400
7FC0
4440
7FC0
0400
FFE0
8420
8420
FFE0
0400
0400
ENDCHAR
STARTCHAR U+4E33
ENCODING 20019
SWIDTH 545 0
DWIDTH 12 0
BBX 10 11 1 -1
BITMAP
1200
7F80
5280
7F80
1200
FFC0
9240
FFC0
1200
1200
2200
ENDCHAR
STARTCHAR U+4E34
ENCODING 20020
SWIDTH 545 0
DWIDTH 12 0
BBX 11 11 0 -1
BITMAP
2400
27E0
A400
A900
B080
A000
AFE0
A920
A920
2920
2FE0
ENDCHAR
STARTCHAR U+4E35
ENCODING 20021
SWIDTH 545 0
DWIDTH 12 0
BBX 11 11 0 -1
BITMAP
4A40
2A80
FFE0
1100
7FC0
0400
FFE0
0400
0400
0400
0400
ENDCHAR
STARTCHAR U+4E36
ENCODING 20022
SWIDTH 545 0
DWIDTH 12 0
BBX 4 4 4 2
BITMAP
80
40
20
10
ENDCHAR
STARTCHAR U+4E37
ENCODING 20023
SWIDTH 545 0
DWIDTH 12 0
BBX 7 4 2 6
BITMAP
82
82
44
44
ENDCHAR
STARTCHAR U+4E38
ENCODING 20024
SWIDTH 545 0
DWIDTH 12 0
BBX 11 11 0 -1
BITMAP
1000
1000
FF00
1100
1100
1100
1900
1500
1120
2120
C0E0
ENDCHAR
STARTCHAR U+4E39
ENCODING 20025
SWIDTH 545 0
DWIDTH 12 0
BBX 11 11 0 -1
BITMAP
1F80
1080
1480
1280
1080
FFE0
1080
1080
2080
2080
4380
ENDCHAR
STARTCHAR U+4E3A
ENCODING 20026
SWIDTH 545 0
DWIDTH 12 0
BBX 11 11 0 -1
BITMAP
2400
1400
0400
7FE0
0420
0620
0520
04A0
0820
1020
E0E0
ENDCHAR
STARTCHAR U+4E3B
ENCODING 20027
SWIDTH 545 0
DWIDTH 12 0
BBX 11 11 0 -1
BITMAP
0800
0400
FFE0
0400
0400
0400
7FC0
0400
0400
0400
FFE0
ENDCHAR
STARTCHAR U+4E3C
ENCODING 20028
SWIDTH 545 0
DWIDTH 12 0
BBX 11 11 0 -1
BITMAP
1080
1080
FFE0
1080
1480
1280
FFE0
1080
1080
2080
4080
ENDCHAR
STARTCHAR U+4E3D
ENCODING 20029
SWIDTH 545 0
DWIDTH 12 0
BBX 11 11 0 -1
BITMAP
FFE0
0000
FBE0
8A20
CB20
AAA0
9A60
8A20
8A20
8A20
BAE0
ENDCHAR
STARTCHAR U+4E3E
ENCODING 20030
SWIDTH 545 0
DWIDTH 12 0
BBX 11 11 0 -1
BITMAP
2440
1280
FFE0
1100
2480
7FC0
8420
7FC0
0400
0400
0400
ENDCHAR
STARTCHAR U+4E3F
ENCODING 20031
SWIDTH 545 0
DWIDTH 12 0
BBX 4 11 2 -1
BITMAP
10
10
10
10
10
10
10
20
20
40
80
ENDCHAR
STARTCHAR U+4E40
ENCODING 20032
SWIDTH 545 0
DWIDTH 12 0
BBX 8 11 1 -1
BITMAP
20
50
90
10
08
08
08
04
04
02
01
ENDCHAR
STARTCHAR U+4E41
ENCODING 20033
SWIDTH 545 0
DWIDTH 12 0
BBX 10 11 1 -1
BITMAP
FC00
0400
0400
0400
0200
0200
0200
0100
0100
0080
0040
ENDCHAR
STARTCHAR U+4E42
ENCODING 20034
SWIDTH 545 0
DWIDTH 12 0
BBX 9 10 1 -1
BITMAP
4100
4100
4100
2200
2200
1400
0800
1400
2200
C180
ENDCHAR
STARTCHAR U+4E43
ENCODING 20035
SWIDTH 545 0
DWIDTH 12 0
BBX 11 11 0 -1
BITMAP
7F80
0900
0900
0900
09E0
0820
1020
1020
2020
4020
80E0
ENDCHAR
STARTCHAR U+4E44
ENCODING 20036
SWIDTH 545 0
DWIDTH 12 0
BBX 8 11 2 -1
BITMAP
01
01
02
22
12
0C
04
0A
89
90
60
ENDCHAR
STARTCHAR U+4E45
ENCODING 20037
SWIDTH 545 0
DWIDTH 12 0
BBX 11 11 0 -1
BITMAP
1000
1000
1F80
2100
2100
4100
0200
0500
0880
3040
C020
ENDCHAR
STARTCHAR U+4E46
ENCODING 20038
SWIDTH 545 0
DWIDTH 12 0
BBX 10 11 1 -1
BITMAP
0900
0900
1100
1200
2200
3C00
0400
0A00
1100
2080
C040
ENDCHAR
STARTCHAR U+4E47
ENCODING 20039
SWIDTH 545 0
DWIDTH 12 0
BBX 11 11 0 -1
BITMAP
01C0
FE00
0800
0800
0800
FFE0
0800
0800
0820
0820
07E0
ENDCHAR
STARTCHAR U+4E48
ENCODING 20040
SWIDTH 545 0
DWIDTH 12 0
BBX 10 10 1 0
BITMAP
0400
0800
1100
2200
4400
8900
1100
2080
4080
FF40
ENDCHAR
STARTCHAR U+4E49
ENCODING 20041
SWIDTH 545 0
DWIDTH 12 0
BBX 11 11 0 -1
BITMAP
0880
4480
2480
2080
1100
1100
0A00
0400
0A00
3180
C060
ENDCHAR
STARTCHAR U+4E4A
ENCODING 20042
SWIDTH 545 0
DWIDTH 12 0
BBX 9 6 1 4
BITMAP
0180
FE00
0000
4100
2100
2200
ENDCHAR
STARTCHAR U+4E4B
ENCODING 20043
SWIDTH 545 0
DWIDTH 12 0
BBX 11 11 0 -1
BITMAP
0800
0400
7FE0
0040
0080
0100
0200
0400
0800
3000
CFE0
ENDCHAR
STARTCHAR U+4E4C
ENCODING 20044
SWIDTH 545 0
DWIDTH 12 0
BBX 11 11 0 -1
BITMAP
0800
3F80
2080
2080
2380
2000
3FE0
0020
FFA0
0020
00E0
ENDCHAR
STARTCHAR U+4E4D
ENCODING 20045
SWIDTH 545 0
DWIDTH 12 0
BBX 10 11 1 -1
BITMAP
4000
7FC0
4800
8800
0F80
0800
0800
0FC0
0800
0800
0800
ENDCHAR
STARTCHAR U+4E4E
ENCODING 20046
SWIDTH 545 0
DWIDTH 12 0
BBX 11 11 0 -1
BITMAP
7FC0
0400
4440
2480
0400
FFE0
0400
0400
0400
0400
1C00
ENDCHAR
STARTCHAR U+4E4F
ENCODING 20047
SWIDTH 545 0
DWIDTH 12 0
BBX 11 11 0 -1
BITMAP
03C0
7C00
0800
0400
FFE0
0080
0100
2200
2C00
5000
8FE0
ENDCHAR
STARTCHAR U+4E50
ENCODING 20048
SWIDTH 545 0
DWIDTH 12 0
BBX 11 11 0 -1
BITMAP
01C0
7E00
4000
4400
4400
7FE0
0400
2480
4440
8420
1C00
ENDCHAR
STARTCHAR U+4E51
ENCODING 20049
SWIDTH 545 0
DWIDTH 12 0
BBX 10 11 1 -1
BITMAP
0380
FC00
0880
2900
4A00
8C00
2A00
4900
88C0
0800
0800
ENDCHAR
STARTCHAR U+4E52
ENCODING 20050
SWIDTH 545 0
DWIDTH 12 0
BBX 11 11 0 -1
BITMAP
3F80
2000
3FC0
2200
2200
2200
FFE0
0000
1000
2000
4000
ENDCHAR
STARTCHAR U+4E53
ENCODING 20051
SWIDTH 545 0
DWIDTH 12 0
BBX 11 11 0 -1
BITMAP
3F80
2000
3FC0
2200
2200
2200
FFE0
0000
0100
0080
0040
ENDCHAR
STARTCHAR U+4E54
ENCODING 20052
SWIDTH 545 0
DWIDTH 12 0
BBX 11 11 0 -1
BITMAP
7FC0
0400
FFE0
0900
1080
3140
D120
1100
1100
1100
2100
ENDCHAR
STARTCHAR U+4E55
ENCODING 20053
SWIDTH 545 0
DWIDTH 12 0
BBX 11 11 0 -1
BITMAP
7FE0
4200
7FE0
4200
7FE0
4200
5FC0
5240
5240
92C0
8200
ENDCHAR
STARTCHAR U+4E56
ENCODING 20054
SWIDTH 545 0
DWIDTH 12 0
BBX 11 11 0 -1
BITMAP
7FC0
0400
FFE0
0400
1500
F5E0
1500
E4E0
0400
0400
0400
ENDCHAR
STARTCHAR U+4E57
ENCODING 20055
SWIDTH 545 0
DWIDTH 12 0
BBX 11 11 0 -1
BITMAP
7FC0
0400
7FC0
1500
FFE0
1500
7FC0
1500
2480
C440
0400
ENDCHAR
STARTCHAR U+4E58
ENCODING 20056
SWIDTH 545 0
DWIDTH 12 0
BBX 11 11 0 -1
BITMAP
7FC0
0400
FFE0
1500
F5E0
1500
F5E0
0E00
1500
2480
C460
ENDCHAR
STARTCHAR U+4E59
ENCODING 20057
SWIDTH 545 0
DWIDTH 12 0
BBX 10 10 1 0
BITMAP
FF00
0200
0400
0800
1000
2000
4000
8040
8040
7F80
ENDCHAR
STARTCHAR U+4E5A
ENCODING 20058
SWIDTH 545 0
DWIDTH 12 0
BBX 7 11 2 -1
BITMAP
80
80
80
80
80
80
80
82
82
82
7C
ENDCHAR
STARTCHAR U+4E5B
ENCODING 20059
SWIDTH 545 0
DWIDTH 12 0
BBX 10 3 1 7
BITMAP
FFC0
0040
0080
ENDCHAR
STARTCHAR U+4E5C
ENCODING 20060
SWIDTH 545 0
DWIDTH 12 0
BBX 11 11 0 -1
BITMAP
2000
2000
2780
3880
E080
2080
2080
23A0
2020
2020
1FE0
ENDCHAR
STARTCHAR U+4E5D
ENCODING 20061
SWIDTH 545 0
DWIDTH 12 0
BBX 11 11 0 -1
BITMAP
0800
0800
FF80
0880
0880
0880
0880
1080
10A0
20A0
C060
ENDCHAR
STARTCHAR U+4E5E
ENCODING 20062
SWIDTH 545 0
DWIDTH 12 0
BBX 11 11 0 -1
BITMAP
2000
3FE0
4000
9F80
0100
0600
0800
1000
2020
2020
1FE0
ENDCHAR
STARTCHAR U+4E5F
ENCODING 20063
SWIDTH 545 0
DWIDTH 12 0
BBX 11 11 0 -1
BITMAP
0400
2400
27C0
3C40
E440
2440
24C0
2400
2420
2020
1FE0
ENDCHAR
STARTCHAR U+4E60
ENCODING 20064
SWIDTH 545 0
DWIDTH 12 0
BBX 10 11 1 -1
BITMAP
FFC0
0040
4040
2040
1040
0240
0C40
3040
C040
0040
01C0
ENDCHAR
STARTCHAR U+4E61
ENCODING 20065
SWIDTH 545 0
DWIDTH 12 0
BBX 10 11 1 -1
BITMAP
0800
1080
2100
7E00
0800
1040
7FC0
0080
0300
0C00
F000
ENDCHAR
STARTCHAR U+4E62
ENCODING 20066
SWIDTH 545 0
DWIDTH 12 0
BBX 11 11 0 -1
BITMAP
2200
2200
AA00
AA00
AA00
AA00
AA00
AA00
AA20
FA20
89E0
ENDCHAR
STARTCHAR U+4E63
ENCODING 20067
SWIDTH 545 0
DWIDTH 12 0
BBX 11 11 0 -1
BITMAP
2200
2200
4200
4A00
F200
1200
2200
2220
4A20
4A20
F5E0
ENDCHAR
STARTCHAR U+4E64
ENCODING 20068
SWIDTH 545 0
DWIDTH 12 0
BBX 11 11 0 -1
BITMAP
FFE0
0400
0700
04C0
0400
7FC0
0100
0E00
3020
4020
3FE0
ENDCHAR
STARTCHAR U+4E65
ENCODING 20069
SWIDTH 545 0
DWIDTH 12 0
BBX 10 11 1 -1
BITMAP
00C0
FF00
4100
2100
2200
FF80
0200
1C00
6040
8040
7FC0
ENDCHAR
STARTCHAR U+4E66
ENCODING 20070
SWIDTH 545 0
DWIDTH 12 0
BBX 11 11 0 -1
BITMAP
0840
0820
7F80
0880
0880
FFE0
0820
0820
0820
08E0
0800
ENDCHAR
STARTCHAR U+4E67
ENCODING 20071
SWIDTH 545 0
DWIDTH 12 0
BBX 21 14 -10 -1
BITMAP
008000
FF8000
000000
000C40
003340
000C78
003FC0
000040
001FF0
000040
000380
000C08
001008
000FF8
ENDCHAR
STARTCHAR U+4E68
ENCODING 20072
SWIDTH 545 0
DWIDTH 12 0
BBX 11 11 0 -1
BITMAP
2100
2100
4900
4900
F500
0100
FD00
8520
8520
FD20
84E0
ENDCHAR
STARTCHAR U+4E69
ENCODING 20073
SWIDTH 545 0
DWIDTH 12 0
BBX 11 11 0 -1
BITMAP
2100
2100
3D00
2100
2100
F900
8900
8920
8920
F920
88E0
ENDCHAR
STARTCHAR U+4E6A
ENCODING 20074
SWIDTH 545 0
DWIDTH 12 0
BBX 11 11 0 -1
BITMAP
FFC0
0D40
1540
17C0
2540
2540
4540
47C0
8020
8020
7FE0
ENDCHAR
STARTCHAR U+4E6B
ENCODING 20075
SWIDTH 545 0
DWIDTH 12 0
BBX 11 11 0 -1
BITMAP
21E0
FD20
2520
CDE0
0000
7FC0
0100
0E00
3020
4020
3FE0
ENDCHAR
STARTCHAR U+4E6C
ENCODING 20076
SWIDTH 545 0
DWIDTH 12 0
BBX 10 11 1 -1
BITMAP
7F80
4000
7E00
4200
7E00
4000
FF80
1C00
6040
8040
7F80
ENDCHAR
STARTCHAR U+4E6D
ENCODING 20077
SWIDTH 545 0
DWIDTH 12 0
BBX 11 11 0 -1
BITMAP
7FC0
1000
3F80
E080
2080
7FC0
0100
0E00
3020
4020
3FE0
ENDCHAR
STARTCHAR U+4E6E
ENCODING 20078
SWIDTH 545 0
DWIDTH 12 0
BBX 11 11 0 -1
BITMAP
7BE0
4220
4A20
FAE0
1200
7FC0
0100
0E00
3020
4020
3FE0
ENDCHAR
STARTCHAR U+4E6F
ENCODING 20079
SWIDTH 545 0
DWIDTH 12 0
BBX 11 11 0 -1
BITMAP
7FC0
2480
1500
FFE0
0400
7FC0
0100
0E00
3020
4020
3FE0
ENDCHAR
STARTCHAR U+4E70
ENCODING 20080
SWIDTH 545 0
DWIDTH 12 0
BBX 11 11 0 -1
BITMAP
FFE0
0020
2440
1400
4400
2400
FFE0
0A00
1100
2080
C060
ENDCHAR
STARTCHAR U+4E71
ENCODING 20081
SWIDTH 545 0
DWIDTH 12 0
BBX 11 11 0 -1
BITMAP
0D00
F100
1100
FD00
1100
1100
FD00
8500
8520
8520
FCE0
ENDCHAR
STARTCHAR U+4E72
ENCODING 20082
SWIDTH 545 0
DWIDTH 12 0
BBX 11 11 0 -1
BITMAP
4400
27C0
0A40
4500
8880
7FC0
0100
0E00
3020
4020
3FE0
ENDCHAR
STARTCHAR U+4E73
ENCODING 20083
SWIDTH 545 0
DWIDTH 12 0
BBX 11 11 0 -1
BITMAP
FD00
A300
5500
0100
FD00
0900
1100
FD00
1120
1120
70E0
ENDCHAR
STARTCHAR U+4E74
ENCODING 20084
SWIDTH 545 0
DWIDTH 12 0
BBX 11 11 0 -1
BITMAP
27C0
F400
27E0
F480
2880
7FC0
0100
0E00
3020
4020
3FE0
ENDCHAR
STARTCHAR U+4E75
ENCODING 20085
SWIDTH 545 0
DWIDTH 12 0
BBX 11 11 0 -1
BITMAP
1100
FF00
4500
2900
FF00
1100
7D00
1100
1120
1120
10E0
ENDCHAR
STARTCHAR U+4E76
ENCODING 20086
SWIDTH 545 0
DWIDTH 12 0
BBX 10 11 1 -1
BITMAP
0880
FFC0
4900
7F00
4900
FF80
0200
1C00
6040
8040
7FC0
ENDCHAR
STARTCHAR U+4E77
ENCODING 20087
SWIDTH 545 0
DWIDTH 12 0
BBX 11 11 0 -1
BITMAP
4540
A520
4900
2040
4180
7FC0
0100
0E00
3020
4020
3FE0
ENDCHAR
STARTCHAR U+4E78
ENCODING 20088
SWIDTH 545 0
DWIDTH 12 0
BBX 11 11 0 -1
BITMAP
17C0
1440
5540
5FE0
7440
D540
57E0
5C40
51C0
4020
3FE0
ENDCHAR
STARTCHAR U+4E79
ENCODING 20089
SWIDTH 545 0
DWIDTH 12 0
BBX 11 11 0 -1
BITMAP
2200
FA00
2200
FA00
8A00
FA00
8A00
FA00
2220
FA20
21E0
ENDCHAR
STARTCHAR U+4E7A
ENCODING 20090
SWIDTH 545 0
DWIDTH 12 0
BBX 11 11 0 -1
BITMAP
7BE0
4200
7BE0
4A40
4A40
BFC0
0100
0E00
3020
4020
3FE0
ENDCHAR
STARTCHAR U+4E7B
ENCODING 20091
SWIDTH 545 0
DWIDTH 12 0
BBX 11 11 0 -1
BITMAP
1080
FD40
22A0
7940
4880
BFC0
0100
0E00
3020
4020
3FE0
ENDCHAR
STARTCHAR U+4E7C
ENCODING 20092
SWIDTH 545 0
DWIDTH 12 0
BBX 11 11 0 -1
BITMAP
4200
AFC0
4200
2FC0
4200
7FC0
0100
0E00
3020
4020
3FE0
ENDCHAR
STARTCHAR U+4E7D
ENCODING 20093
SWIDTH 545 0
DWIDTH 12 0
BBX 11 11 0 -1
BITMAP
0480
FFE0
0500
FFE0
6080
BFC0
0100
0E00
3020
4020
3FE0
ENDCHAR
STARTCHAR U+4E7E
ENCODING 20094
SWIDTH 545 0
DWIDTH 12 0
BBX 11 11 0 -1
BITMAP
2100
F9E0
2200
FC00
8BE0
F840
8880
F900
2220
FA20
21E0
ENDCHAR
STARTCHAR U+4E7F
ENCODING 20095
SWIDTH 545 0
DWIDTH 12 0
BBX 11 11 0 -1
BITMAP
FD00
A900
5500
4100
9100
E100
4900
FD00
0120
AB20
AAE0
ENDCHAR
STARTCHAR U+4E80
ENCODING 20096
SWIDTH 545 0
DWIDTH 12 0
BBX 11 11 0 -1
BITMAP
3F00
4200
FF80
4880
FFC0
8840
FFC0
8840
FFC0
0820
07E0
ENDCHAR
STARTCHAR U+4E81
ENCODING 20097
SWIDTH 545 0
DWIDTH 12 0
BBX 11 11 0 -1
BITMAP
2100
F9E0
8A00
FC00
8BE0
F840
0080
F900
2220
FA20
21E0
ENDCHAR
STARTCHAR U+4E82
ENCODING 20098
SWIDTH 545 0
DWIDTH 12 0
BBX 11 11 0 -1
BITMAP
FD00
A900
FD00
4900
FD00
A500
FD00
D500
A520
D520
8CE0
ENDCHAR
STARTCHAR U+4E83
ENCODING 20099
SWIDTH 545 0
DWIDTH 12 0
BBX 11 11 0 -1
BITMAP
AA00
2200
FA00
AA00
2200
8A00
FE00
AA00
7E20
2A20
49E0
ENDCHAR
STARTCHAR U+4E84
ENCODING 20100
SWIDTH 545 0
DWIDTH 12 0
BBX 11 11 0 -1
BITMAP
2200
FA00
2200
FA00
0200
FA00
8A00
FA00
5220
5220
F9E0
ENDCHAR
STARTCHAR U+4E85
ENCODING 20101
SWIDTH 545 0
DWIDTH 12 0
BBX 3 11 4 -1
BITMAP
20
20
20
20
20
20
20
20
20
20
C0
ENDCHAR
STARTCHAR U+4E86
ENCODING 20102
SWIDTH 545 0
DWIDTH 12 0
BBX 9 11 1 -1
BITMAP
FF80
0100
0200
0400
0800
0800
0800
0800
0800
0800
3800
ENDCHAR
STARTCHAR U+4E87
ENCODING 20103
SWIDTH 545 0
DWIDTH 12 0
BBX 10 11 0 -1
BITMAP
2000
3FC0
4400
8400
0400
0400
0400
0400
0400
0400
1C00
ENDCHAR
STARTCHAR U+4E88
ENCODING 20104
SWIDTH 545 0
DWIDTH 12 0
BBX 11 11 0 -1
BITMAP
7F80
0080
1100
0A00
FFE0
0420
0440
0400
0400
0400
1C00
ENDCHAR
STARTCHAR U+4E89
ENCODING 20105
SWIDTH 545 0
DWIDTH 12 0
BBX 11 11 0 -1
BITMAP
1000
3F00
4200
BF80
0480
FFE0
0480
7F80
0400
0400
1C00
ENDCHAR
STARTCHAR U+4E8A
ENCODING 20106
SWIDTH 545 0
DWIDTH 12 0
BBX 11 11 0 -1
BITMAP
0400
FFE0
2480
1500
7FC0
0440
FFE0
0440
7FC0
0400
1C00
ENDCHAR
STARTCHAR U+4E8B
ENCODING 20107
SWIDTH 545 0
DWIDTH 12 0
BBX 11 11 0 -1
BITMAP
0400
FFE0
2480
2480
7FC0
0440
FFE0
0440
7FC0
0400
1C00
ENDCHAR
STARTCHAR U+4E8C
ENCODING 20108
SWIDTH 545 0
DWIDTH 12 0
BBX 11 10 0 -1
BITMAP
7FC0
0000
0000
0000
0000
0000
0000
0000
0000
FFE0
ENDCHAR
STARTCHAR U+4E8D
ENCODING 20109
SWIDTH 545 0
DWIDTH 12 0
BBX 11 11 0 -1
BITMAP
7FC0
0000
0000
0000
FFE0
0400
0400
0400
0400
0400
1C00
ENDCHAR
STARTCHAR U+4E8E
ENCODING 20110
SWIDTH 545 0
DWIDTH 12 0
BBX 11 11 0 -1
BITMAP
7FC0
0400
0400
0400
FFE0
0400
0400
0400
0400
0400
1C00
ENDCHAR
STARTCHAR U+4E8F
ENCODING 20111
SWIDTH 545 0
DWIDTH 12 0
BBX 11 11 0 -1
BITMAP
7FC0
0000
0000
FFE0
0800
0800
1F80
0080
0080
0080
0300
ENDCHAR
STARTCHAR U+4E90
ENCODING 20112
SWIDTH 545 0
DWIDTH 12 0
BBX 11 11 0 -1
BITMAP
7FC0
0400
0400
FFE0
0800
0800
1F80
0080
0080
0080
0300
ENDCHAR
STARTCHAR U+4E91
ENCODING 20113
SWIDTH 545 0
DWIDTH 12 0
BBX 11 11 0 -1
BITMAP
7FC0
0000
0000
0000
FFE0
1000
1000
2000
2040
4040
FFA0
ENDCHAR
STARTCHAR U+4E92
ENCODING 20114
SWIDTH 545 0
DWIDTH 12 0
BBX 11 11 0 -1
BITMAP
FFE0
0800
1000
1FC0
2040
2080
4080
7F00
0100
0200
FFE0
ENDCHAR
STARTCHAR U+4E93
ENCODING 20115
SWIDTH 545 0
DWIDTH 12 0
BBX 11 11 0 -1
BITMAP
7FC0
0000
0000
FFE0
1100
1100
1100
2100
2100
4100
8100
ENDCHAR
STARTCHAR U+4E94
ENCODING 20116
SWIDTH 545 0
DWIDTH 12 0
BBX 11 11 0 -1
BITMAP
FFE0
0800
0800
0800
7F80
1080
1080
1080
1080
1080
FFE0
ENDCHAR
STARTCHAR U+4E95
ENCODING 20117
SWIDTH 545 0
DWIDTH 12 0
BBX 11 11 0 -1
BITMAP
1100
1100
FFE0
1100
1100
1100
FFE0
1100
1100
2100
4100
ENDCHAR
STARTCHAR U+4E96
ENCODING 20118
SWIDTH 545 0
DWIDTH 12 0
BBX 10 10 1 -1
BITMAP
7F80
0000
0000
FFC0
0000
0000
7F80
0000
0000
FFC0
ENDCHAR
STARTCHAR U+4E97
ENCODING 20119
SWIDTH 545 0
DWIDTH 12 0
BBX 11 11 0 -1
BITMAP
0400
4440
4440
7FC0
0000
0000
7FC0
0000
0000
0000
FFE0
ENDCHAR
STARTCHAR U+4E98
ENCODING 20120
SWIDTH 545 0
DWIDTH 12 0
BBX 11 11 0 -1
BITMAP
FFE0
0000
3F80
2080
2080
3F80
2080
2080
3F80
0000
FFE0
ENDCHAR
STARTCHAR U+4E99
ENCODING 20121
SWIDTH 545 0
DWIDTH 12 0
BBX 11 11 0 -1
BITMAP
FFE0
1000
1F80
1080
3880
2680
7100
4D00
0100
0100
FFE0
ENDCHAR
STARTCHAR U+4E9A
ENCODING 20122
SWIDTH 545 0
DWIDTH 12 0
BBX 12 11 0 -1
BITMAP
7FE0
0900
0900
4920
4920
2940
2940
0900
0900
0900
FFF0
ENDCHAR
STARTCHAR U+4E9B
ENCODING 20123
SWIDTH 545 0
DWIDTH 12 0
BBX 11 11 0 -1
BITMAP
2200
2260
BB80
A200
A220
BA20
E1E0
0000
7FC0
0000
FFE0
ENDCHAR
STARTCHAR U+4E9C
ENCODING 20124
SWIDTH 545 0
DWIDTH 12 0
BBX 12 11 0 -1
BITMAP
7FE0
0900
0900
7FE0
4920
4920
4920
7FE0
0900
0900
FFF0
ENDCHAR
STARTCHAR U+4E9D
ENCODING 20125
SWIDTH 545 0
DWIDTH 12 0
BBX 11 11 0 -1
BITMAP
1100
2080
7FC0
1080
2100
4A40
F7A0
0000
7FC0
0000
FFE0
ENDCHAR
STARTCHAR U+4E9E
ENCODING 20126
SWIDTH 545 0
DWIDTH 12 0
BBX 11 11 0 -1
BITMAP
7FE0
0900
0900
79E0
4020
4020
79E0
0900
0900
0900
FFE0
ENDCHAR
STARTCHAR U+4E9F
ENCODING 20127
SWIDTH 545 0
DWIDTH 12 0
BBX 11 11 0 -1
BITMAP
7FC0
1000
3800
0BE0
EA20
A940
A880
E940
1220
0000
FFE0
ENDCHAR
STARTCHAR U+4EA0
ENCODING 20128
SWIDTH 545 0
DWIDTH 12 0
BBX 11 3 0 6
BITMAP
0800
0400
FFE0
ENDCHAR
STARTCHAR U+4EA1
ENCODING 20129
SWIDTH 545 0
DWIDTH 12 0
BBX 11 11 0 -1
BITMAP
0800
0400
FFE0
2000
2000
2000
2000
2000
2000
2000
3FC0
ENDCHAR
STARTCHAR U+4EA2
ENCODING 20130
SWIDTH 545 0
DWIDTH 12 0
BBX 11 11 0 -1
BITMAP
0400
FFE0
0000
1F00
1100
1100
1100
1100
1120
2120
C0E0
ENDCHAR
STARTCHAR U+4EA3
ENCODING 20131
SWIDTH 545 0
DWIDTH 12 0
BBX 11 11 0 -1
BITMAP
0400
FFE0
1100
1100
1100
1100
1100
1100
2100
2100
4100
ENDCHAR
STARTCHAR U+4EA4
ENCODING 20132
SWIDTH 545 0
DWIDTH 12 0
BBX 11 11 0 -1
BITMAP
0400
FFE0
0000
2080
4040
9120
0A00
0400
0A00
3180
C060
ENDCHAR
STARTCHAR U+4EA5
ENCODING 20133
SWIDTH 545 0
DWIDTH 12 0
BBX 11 11 0 -1
BITMAP
0400
FFE0
1000
2100
7E00
0440
1880
6100
0600
1980
E060
ENDCHAR
STARTCHAR U+4EA6
ENCODING 20134
SWIDTH 545 0
DWIDTH 12 0
BBX 11 11 0 -1
BITMAP
0800
0400
FFE0
0900
2940
2940
4920
4920
0900
1100
6300
ENDCHAR
STARTCHAR U+4EA7
ENCODING 20135
SWIDTH 545 0
DWIDTH 12 0
BBX 11 11 0 -1
BITMAP
0200
7FE0
1080
0900
7FE0
4000
4000
4000
4000
8000
8000
ENDCHAR
STARTCHAR U+4EA8
ENCODING 20136
SWIDTH 545 0
DWIDTH 12 0
BBX 11 11 0 -1
BITMAP
0400
FFE0
2080
3F80
0000
7FC0
0080
0100
0200
0200
0E00
ENDCHAR
STARTCHAR U+4EA9
ENCODING 20137
SWIDTH 545 0
DWIDTH 12 0
BBX 11 11 0 -1
BITMAP
0800
0400
FFE0
0000
7FC0
4440
4440
7FC0
4440
4440
7FC0
ENDCHAR
STARTCHAR U+4EAA
ENCODING 20138
SWIDTH 545 0
DWIDTH 12 0
BBX 11 11 0 -1
BITMAP
0400
FFE0
1100
5140
9120
2200
7F80
0080
0080
0040
0020
ENDCHAR
STARTCHAR U+4EAB
ENCODING 20139
SWIDTH 545 0
DWIDTH 12 0
BBX 12 11 0 -1
BITMAP
0400
FFE0
2080
2080
7FC0
0100
0200
FFF0
0400
0400
1C00
ENDCHAR
STARTCHAR U+4EAC
ENCODING 20140
SWIDTH 545 0
DWIDTH 12 0
BBX 11 11 0 -1
BITMAP
0400
FFE0
0000
3F80
2080
2080
3F80
0400
4440
8420
1C00
ENDCHAR
STARTCHAR U+4EAD
ENCODING 20141
SWIDTH 545 0
DWIDTH 12 0
BBX 11 11 0 -1
BITMAP
0400
FFE0
2080
3F80
0000
FFE0
8020
7FC0
0400
0400
1C00
ENDCHAR
STARTCHAR U+4EAE
ENCODING 20142
SWIDTH 545 0
DWIDTH 12 0
BBX 11 11 0 -1
BITMAP
0400
FFE0
2080
3F80
0000
FFE0
8020
1200
1200
2220
C1E0
ENDCHAR
STARTCHAR U+4EAF
ENCODING 20143
SWIDTH 545 0
DWIDTH 12 0
BBX 11 11 0 -1
BITMAP
0400
FFE0
0000
3F80
2080
7FC0
4040
7FC0
4040
7FC0
4040
ENDCHAR
STARTCHAR U+4EB0
ENCODING 20144
SWIDTH 545 0
DWIDTH 12 0
BBX 11 11 0 -1
BITMAP
0400
FFE0
2080
3F80
2080
2080
3F80
0400
4440
8420
1C00
ENDCHAR
STARTCHAR U+4EB1
ENCODING 20145
SWIDTH 545 0
DWIDTH 12 0
BBX 11 11 0 -1
BITMAP
0400
FFE0
2000
2FC0
4840
4FC0
C840
4840
4FC0
4000
5FE0
ENDCHAR
STARTCHAR U+4EB2
ENCODING 20146
SWIDTH 545 0
DWIDTH 12 0
BBX 11 11 0 -1
BITMAP
0400
7FC0
2080
1100
FFE0
0400
7FE0
0400
2480
4440
9C20
ENDCHAR
STARTCHAR U+4EB3
ENCODING 20147
SWIDTH 545 0
DWIDTH 12 0
BBX 11 11 0 -1
BITMAP
0400
FFE0
2080
FFE0
8020
3F80
0400
7FC0
0400
0420
03E0
ENDCHAR
STARTCHAR U+4EB4
ENCODING 20148
SWIDTH 545 0
DWIDTH 12 0
BBX 11 11 0 -1
BITMAP
0400
FFE0
2080
FFE0
8420
7FC0
0800
FF00
1120
2120
C0E0
ENDCHAR
STARTCHAR U+4EB5
ENCODING 20149
SWIDTH 545 0
DWIDTH 12 0
BBX 11 11 0 -1
BITMAP
0400
FFE0
2200
7780
2280
73A0
2CC0
3220
E140
2080
3860
ENDCHAR
STARTCHAR U+4EB6
ENCODING 20150
SWIDTH 545 0
DWIDTH 12 0
BBX 11 11 0 -1
BITMAP
0400
FFE0
5140
5F40
4040
7FC0
2080
3F80
2080
2080
FFE0
ENDCHAR
STARTCHAR U+4EB7
ENCODING 20151
SWIDTH 545 0
DWIDTH 12 0
BBX 11 11 0 -1
BITMAP
0400
FFE0
1100
7FC0
4A80
7FE0
4A80
7F80
4A00
9A80
AA60
ENDCHAR
STARTCHAR U+4EB8
ENCODING 20152
SWIDTH 545 0
DWIDTH 12 0
BBX 11 11 0 -1
BITMAP
2220
F940
93E0
F2A0
03E0
F2A0
13E0
F880
23E0
2080
6080
ENDCHAR
STARTCHAR U+4EB9
ENCODING 20153
SWIDTH 545 0
DWIDTH 12 0
BBX 11 11 0 -1
BITMAP
0400
FFE0
5140
7FC0
5540
5540
FFE0
A0A0
3F80
2080
FFE0
ENDCHAR
STARTCHAR U+4EBA
ENCODING 20154
SWIDTH 545 0
DWIDTH 12 0
BBX 11 11 0 -1
BITMAP
0400
0400
0400
0400
0A00
0A00
1100
1100
2080
4040
8020
ENDCHAR
STARTCHAR U+4EBB
ENCODING 20155
SWIDTH 545 0
DWIDTH 12 0
BBX 5 11 2 -1
BITMAP
08
08
10
10
30
50
90
10
10
10
10
ENDCHAR
STARTCHAR U+4EBC
ENCODING 20156
SWIDTH 545 0
DWIDTH 12 0
BBX 9 9 1 0
BITMAP
0800
0800
1400
2200
4100
8080
0000
0000
FF80
ENDCHAR
STARTCHAR U+4EBD
ENCODING 20157
SWIDTH 545 0
DWIDTH 12 0
BBX 11 9 0 1
BITMAP
0400
0A00
1100
2080
4040
8020
0800
0600
0100
ENDCHAR
STARTCHAR U+4EBE
ENCODING 20158
SWIDTH 545 0
DWIDTH 12 0
BBX 10 11 1 -1
BITMAP
8400
8400
8400
8400
8A00
8A00
9100
A080
C040
8000
FFC0
ENDCHAR
STARTCHAR U+4EBF
ENCODING 20159
SWIDTH 545 0
DWIDTH 12 0
BBX 11 11 0 -1
BITMAP
2FC0
2080
4100
4200
C200
4400
4400
4800
4820
4820
47E0
ENDCHAR
STARTCHAR U+4EC0
ENCODING 20160
SWIDTH 545 0
DWIDTH 12 0
BBX 11 11 0 -1
BITMAP
2200
2200
4200
7FE0
C200
4200
4200
4200
4200
4200
4200
ENDCHAR
STARTCHAR U+4EC1
ENCODING 20161
SWIDTH 545 0
DWIDTH 12 0
BBX 11 11 0 -1
BITMAP
2000
2FE0
4000
4000
C000
4000
4000
4000
4000
4FE0
4000
ENDCHAR
STARTCHAR U+4EC2
ENCODING 20162
SWIDTH 545 0
DWIDTH 12 0
BBX 11 11 0 -1
BITMAP
2200
2200
4200
4FE0
C220
4220
4220
4420
4420
4820
50E0
ENDCHAR
STARTCHAR U+4EC3
ENCODING 20163
SWIDTH 545 0
DWIDTH 12 0
BBX 11 11 0 -1
BITMAP
2000
2FE0
4100
4100
C100
4100
4100
4100
4100
4100
4700
ENDCHAR
STARTCHAR U+4EC4
ENCODING 20164
SWIDTH 545 0
DWIDTH 12 0
BBX 11 11 0 -1
BITMAP
7FE0
4000
4200
4200
4200
4200
4500
4500
4880
9040
A020
ENDCHAR
STARTCHAR U+4EC5
ENCODING 20165
SWIDTH 545 0
DWIDTH 12 0
BBX 11 12 0 -1
BITMAP
1000
17E0
2020
2820
6820
A440
2440
2280
2100
2280
2440
2820
ENDCHAR
STARTCHAR U+4EC6
ENCODING 20166
SWIDTH 545 0
DWIDTH 12 0
BBX 11 11 0 -1
BITMAP
1100
1100
2100
2100
6180
A140
2120
2100
2100
2100
2100
ENDCHAR
STARTCHAR U+4EC7
ENCODING 20167
SWIDTH 545 0
DWIDTH 12 0
BBX 11 11 0 -1
BITMAP
2400
2400
4400
5F80
C480
4480
4480
4480
48A0
48A0
5060
ENDCHAR
STARTCHAR U+4EC8
ENCODING 20168
SWIDTH 545 0
DWIDTH 12 0
BBX 11 11 0 -1
BITMAP
2180
2480
4480
4480
C480
4480
4840
4840
4840
5020
5020
ENDCHAR
STARTCHAR U+4EC9
ENCODING 20169
SWIDTH 545 0
DWIDTH 12 0
BBX 11 11 0 -1
BITMAP
2780
2480
4480
4480
C480
4480
4480
4480
48A0
48A0
5060
ENDCHAR
STARTCHAR U+4ECA
ENCODING 20170
SWIDTH 545 0
DWIDTH 12 0
BBX 11 11 0 -1
BITMAP
0E00
1100
2080
5F40
8020
7FC0
0040
0080
0100
0200
0C00
ENDCHAR
STARTCHAR U+4ECB
ENCODING 20171
SWIDTH 545 0
DWIDTH 12 0
BBX 11 11 0 -1
BITMAP
0E00
1100
2080
5140
9120
1100
1100
1100
2100
2100
4100
ENDCHAR
STARTCHAR U+4ECC
ENCODING 20172
SWIDTH 545 0
DWIDTH 12 0
BBX 11 11 0 -1
BITMAP
0400
0400
0A00
1100
2080
4440
0400
0A00
1100
2080
C060
ENDCHAR
STARTCHAR U+4ECD
ENCODING 20173
SWIDTH 545 0
DWIDTH 12 0
BBX 11 11 0 -1
BITMAP
2F80
2480
4480
44E0
C420
4420
4420
4420
4820
4820
50E0
ENDCHAR
STARTCHAR U+4ECE
ENCODING 20174
SWIDTH 545 0
DWIDTH 12 0
BBX 11 11 0 -1
BITMAP
1100
1100
1100
1100
1100
1100
2A80
2A80
4440
4440
8820
ENDCHAR
STARTCHAR U+4ECF
ENCODING 20175
SWIDTH 545 0
DWIDTH 12 0
BBX 11 11 0 -1
BITMAP
2200
2200
4200
4200
C400
4400
4400
4400
4840
4840
5FA0
ENDCHAR
STARTCHAR U+4ED0
ENCODING 20176
SWIDTH 545 0
DWIDTH 12 0
BBX 11 11 0 -1
BITMAP
0E00
1100
2080
4440
8420
0400
7FC0
0400
0400
0400
0400
ENDCHAR
STARTCHAR U+4ED1
ENCODING 20177
SWIDTH 545 0
DWIDTH 12 0
BBX 11 11 0 -1
BITMAP
0400
0A00
1100
2080
E060
2100
2600
3800
2040
2040
1FC0
ENDCHAR
STARTCHAR U+4ED2
ENCODING 20178
SWIDTH 545 0
DWIDTH 12 0
BBX 10 10 1 0
BITMAP
0C00
1200
2100
4080
9840
0600
0000
3000
0C00
0300
ENDCHAR
STARTCHAR U+4ED3
ENCODING 20179
SWIDTH 545 0
DWIDTH 12 0
BBX 10 11 1 -1
BITMAP
0C00
1200
2100
4080
BF40
2100
2100
2100
2640
2040
1FC0
ENDCHAR
STARTCHAR U+4ED4
ENCODING 20180
SWIDTH 545 0
DWIDTH 12 0
BBX 11 11 0 -1
BITMAP
27E0
2020
4040
4080
CFE0
4080
4080
4080
4080
4080
4380
ENDCHAR
STARTCHAR U+4ED5
ENCODING 20181
SWIDTH 545 0
DWIDTH 12 0
BBX 11 11 0 -1
BITMAP
2100
2100
4100
4FE0
C100
4100
4100
4100
4100
4100
4FE0
ENDCHAR
STARTCHAR U+4ED6
ENCODING 20182
SWIDTH 545 0
DWIDTH 12 0
BBX 11 11 0 -1
BITMAP
2200
2AC0
4B40
4E40
DA40
4A40
4AC0
4A00
4A20
4820
4FE0
ENDCHAR
STARTCHAR U+4ED7
ENCODING 20183
SWIDTH 545 0
DWIDTH 12 0
BBX 11 11 0 -1
BITMAP
2080
2080
4FE0
4080
C880
4480
4280
4100
4100
4280
4C60
ENDCHAR
STARTCHAR U+4ED8
ENCODING 20184
SWIDTH 545 0
DWIDTH 12 0
BBX 11 11 0 -1
BITMAP
2040
2040
4FE0
4040
C040
4440
4240
4040
4040
4040
41C0
ENDCHAR
STARTCHAR U+4ED9
ENCODING 20185
SWIDTH 545 0
DWIDTH 12 0
BBX 11 11 0 -1
BITMAP
2100
2100
4100
4920
C920
4920
4920
4920
4920
4920
4FE0
ENDCHAR
STARTCHAR U+4EDA
ENCODING 20186
SWIDTH 545 0
DWIDTH 12 0
BBX 11 11 0 -1
BITMAP
0400
0A00
3180
C060
0400
0400
4440
4440
4440
7FC0
4040
ENDCHAR
STARTCHAR U+4EDB
ENCODING 20187
SWIDTH 545 0
DWIDTH 12 0
BBX 11 11 0 -1
BITMAP
21C0
2E00
4200
4200
C200
5FE0
4200
4200
4220
4220
41E0
ENDCHAR
STARTCHAR U+4EDC
ENCODING 20188
SWIDTH 545 0
DWIDTH 12 0
BBX 11 11 0 -1
BITMAP
2000
2FE0
4100
4100
C100
4100
4100
4100
4100
4100
4FE0
ENDCHAR
STARTCHAR U+4EDD
ENCODING 20189
SWIDTH 545 0
DWIDTH 12 0
BBX 11 11 0 -1
BITMAP
0E00
1100
2080
4040
8020
7FC0
0400
0400
0400
0400
FFE0
ENDCHAR
STARTCHAR U+4EDE
ENCODING 20190
SWIDTH 545 0
DWIDTH 12 0
BBX 11 11 0 -1
BITMAP
2FE0
2220
4220
4A20
C620
4220
4220
4220
4420
4420
48E0
ENDCHAR
STARTCHAR U+4EDF
ENCODING 20191
SWIDTH 545 0
DWIDTH 12 0
BBX 11 11 0 -1
BITMAP
2060
2F80
4100
4100
C100
5FE0
4100
4100
4100
4100
4100
ENDCHAR
STARTCHAR U+4EE0
ENCODING 20192
SWIDTH 545 0
DWIDTH 12 0
BBX 11 11 0 -1
BITMAP
2FE0
2100
4100
4100
C100
4FE0
4100
4100
4100
4100
4100
ENDCHAR
STARTCHAR U+4EE1
ENCODING 20193
SWIDTH 545 0
DWIDTH 12 0
BBX 11 11 0 -1
BITMAP
2400
27E0
4800
5000
CFC0
4080
4100
4200
4420
4820
47E0
ENDCHAR
STARTCHAR U+4EE2
ENCODING 20194
SWIDTH 545 0
DWIDTH 12 0
BBX 11 11 0 -1
BITMAP
2200
27E0
4420
4820
D020
4420
4220
4120
4020
4020
40E0
ENDCHAR
STARTCHAR U+4EE3
ENCODING 20195
SWIDTH 545 0
DWIDTH 12 0
BBX 11 11 0 -1
BITMAP
2140
2120
4100
5FE0
C100
4100
4100
4100
40A0
40A0
4060
ENDCHAR
STARTCHAR U+4EE4
ENCODING 20196
SWIDTH 545 0
DWIDTH 12 0
BBX 11 11 0 -1
BITMAP
0E00
1100
2080
5F40
8020
7FC0
0040
0080
0900
0600
0100
ENDCHAR
STARTCHAR U+4EE5
ENCODING 20197
SWIDTH 545 0
DWIDTH 12 0
BBX 11 11 0 -1
BITMAP
4080
4080
5080
4880
4480
4080
4080
4080
7140
C220
0C20
ENDCHAR
STARTCHAR U+4EE6
ENCODING 20198
SWIDTH 545 0
DWIDTH 12 0
BBX 11 11 0 -1
BITMAP
2100
2100
4100
4940
C940
4920
5120
5120
4100
4100
4700
ENDCHAR
STARTCHAR U+4EE7
ENCODING 20199
SWIDTH 545 0
DWIDTH 12 0
BBX 11 11 0 -1
BITMAP
0400
07C0
0400
0400
FFE0
0400
0400
0400
0A00
3180
C060
ENDCHAR
STARTCHAR U+4EE8
ENCODING 20200
SWIDTH 545 0
DWIDTH 12 0
BBX 11 11 0 -1
BITMAP
2FE0
2000
4000
4000
CFE0
4000
4000
4000
4000
4FE0
4000
ENDCHAR
STARTCHAR U+4EE9
ENCODING 20201
SWIDTH 545 0
DWIDTH 12 0
BBX 11 11 0 -1
BITMAP
2200
2200
4200
4200
C3C0
4200
4200
4200
4200
4200
5FE0
ENDCHAR
STARTCHAR U+4EEA
ENCODING 20202
SWIDTH 545 0
DWIDTH 12 0
BBX 11 11 0 -1
BITMAP
2440
2240
5040
4880
C880
4500
4200
4200
4500
4880
5060
ENDCHAR
STARTCHAR U+4EEB
ENCODING 20203
SWIDTH 545 0
DWIDTH 12 0
BBX 11 11 0 -1
BITMAP
2200
2200
4200
4480
C480
4900
5100
4240
4440
4FA0
4000
ENDCHAR
STARTCHAR U+4EEC
ENCODING 20204
SWIDTH 545 0
DWIDTH 12 0
BBX 11 11 0 -1
BITMAP
29E0
2420
5020
5020
D020
5020
5020
5020
5020
5020
50E0
ENDCHAR
STARTCHAR U+4EED
ENCODING 20205
SWIDTH 545 0
DWIDTH 12 0
BBX 11 11 0 -1
BITMAP
2FE0
2220
4220
4A20
C620
4220
4220
4520
44A0
4820
50E0
ENDCHAR
STARTCHAR U+4EEE
ENCODING 20206
SWIDTH 545 0
DWIDTH 12 0
BBX 11 11 0 -1
BITMAP
2FE0
2800
4800
4FE0
CA20
4A20
4940
4940
4880
5140
5220
ENDCHAR
STARTCHAR U+4EEF
ENCODING 20207
SWIDTH 545 0
DWIDTH 12 0
BBX 11 11 0 -1
BITMAP
2200
2240
4A40
4A20
CA20
5200
4240
4040
4080
4300
5C00
ENDCHAR
STARTCHAR U+4EF0
ENCODING 20208
SWIDTH 545 0
DWIDTH 12 0
BBX 11 11 0 -1
BITMAP
2400
39E0
5120
5120
D120
5120
5120
5120
5520
5960
4100
ENDCHAR
STARTCHAR U+4EF1
ENCODING 20209
SWIDTH 545 0
DWIDTH 12 0
BBX 11 11 0 -1
BITMAP
2100
2280
4440
4FE0
C000
4FE0
4040
4040
4080
4100
4200
ENDCHAR
STARTCHAR U+4EF2
ENCODING 20210
SWIDTH 545 0
DWIDTH 12 0
BBX 11 11 0 -1
BITMAP
2100
2100
4FE0
4920
C920
4920
4FE0
4100
4100
4100
4100
ENDCHAR
STARTCHAR U+4EF3
ENCODING 20211
SWIDTH 545 0
DWIDTH 12 0
BBX 11 11 0 -1
BITMAP
2100
2900
4900
4920
CFC0
4900
4900
4900
4920
4B20
4CE0
ENDCHAR
STARTCHAR U+4EF4
ENCODING 20212
SWIDTH 545 0
DWIDTH 12 0
BBX 10 11 1 -1
BITMAP
2FC0
2840
4840
4FC0
C840
4840
4FC0
4840
4840
4840
51C0
ENDCHAR
STARTCHAR U+4EF5
ENCODING 20213
SWIDTH 545 0
DWIDTH 12 0
BBX 11 11 0 -1
BITMAP
2400
27E0
4900
5100
C100
5FE0
4100
4100
4100
4100
4100
ENDCHAR
STARTCHAR U+4EF6
ENCODING 20214
SWIDTH 545 0
DWIDTH 12 0
BBX 11 11 0 -1
BITMAP
2900
2FE0
4900
5100
C100
5FE0
4100
4100
4100
4100
4100
ENDCHAR
STARTCHAR U+4EF7
ENCODING 20215
SWIDTH 545 0
DWIDTH 12 0
BBX 11 11 0 -1
BITMAP
2300
2480
4840
5020
C480
4480
4480
4480
4480
4880
5080
ENDCHAR
STARTCHAR U+4EF8
ENCODING 20216
SWIDTH 545 0
DWIDTH 12 0
BBX 11 11 0 -1
BITMAP
2060
2F80
4100
4100
CFE0
4100
4100
4280
4280
4440
4820
ENDCHAR
STARTCHAR U+4EF9
ENCODING 20217
SWIDTH 545 0
DWIDTH 12 0
BBX 11 11 0 -1
BITMAP
2100
2FE0
4100
4100
CFE0
4100
4100
4FE0
4100
4100
4100
ENDCHAR
STARTCHAR U+4EFA
ENCODING 20218
SWIDTH 545 0
DWIDTH 12 0
BBX 11 11 0 -1
BITMAP
0400
0A00
3180
C060
7FC0
4000
4000
7FC0
4000
4000
7FC0
ENDCHAR
STARTCHAR U+4EFB
ENCODING 20219
SWIDTH 545 0
DWIDTH 12 0
BBX 11 11 0 -1
BITMAP
2FE0
2100
4100
4100
C100
5FE0
4100
4100
4100
4100
4FE0
ENDCHAR
STARTCHAR U+4EFC
ENCODING 20220
SWIDTH 545 0
DWIDTH 12 0
BBX 11 11 0 -1
BITMAP
2FE0
2100
4100
4100
C100
4FE0
4100
4100
4100
4100
4FE0
ENDCHAR
STARTCHAR U+4EFD
ENCODING 20221
SWIDTH 545 0
DWIDTH 12 0
BBX 11 11 0 -1
BITMAP
2500
2880
4880
5040
EFA0
4480
4480
4480
4880
4880
5380
ENDCHAR
STARTCHAR U+4EFE
ENCODING 20222
SWIDTH 545 0
DWIDTH 12 0
BBX 11 11 0 -1
BITMAP
2FE0
2200
4200
47C0
C440
4840
4880
4F80
4100
4100
5FE0
ENDCHAR
STARTCHAR U+4EFF
ENCODING 20223
SWIDTH 545 0
DWIDTH 12 0
BBX 12 11 0 -1
BITMAP
2100
2FF0
4200
4200
C3E0
4220
4220
4220
4420
4420
48E0
ENDCHAR
STARTCHAR U+4F00
ENCODING 20224
SWIDTH 545 0
DWIDTH 12 0
BBX 11 11 0 -1
BITMAP
2580
2480
4840
4840
D220
4200
4400
4400
4840
4840
5FA0
ENDCHAR
STARTCHAR U+4F01
ENCODING 20225
SWIDTH 545 0
DWIDTH 12 0
BBX 11 11 0 -1
BITMAP
0400
0A00
1100
2480
C460
2400
2780
2400
2400
2400
FFE0
ENDCHAR
STARTCHAR U+4F02
ENCODING 20226
SWIDTH 545 0
DWIDTH 12 0
BBX 11 11 0 -1
BITMAP
2100
2FE0
4100
4FE0
C920
4920
4920
4920
4960
4100
4100
ENDCHAR
STARTCHAR U+4F03
ENCODING 20227
SWIDTH 545 0
DWIDTH 12 0
BBX 11 11 0 -1
BITMAP
2FE0
2440
4280
5FE0
C120
4140
4100
4100
4100
4100
4700
ENDCHAR
STARTCHAR U+4F04
ENCODING 20228
SWIDTH 545 0
DWIDTH 12 0
BBX 11 11 0 -1
BITMAP
2FE0
2120
4120
4FE0
C900
4900
4FE0
4120
4120
4160
4100
ENDCHAR
STARTCHAR U+4F05
ENCODING 20229
SWIDTH 545 0
DWIDTH 12 0
BBX 11 11 0 -1
BITMAP
2100
2FE0
4100
4920
C920
4920
4FE0
4100
4120
4120
40E0
ENDCHAR
STARTCHAR U+4F06
ENCODING 20230
SWIDTH 545 0
DWIDTH 12 0
BBX 11 11 0 -1
BITMAP
2400
27E0
4AA0
52A0
C4A0
44A0
4920
5120
4220
4420
40E0
ENDCHAR
STARTCHAR U+4F07
ENCODING 20231
SWIDTH 545 0
DWIDTH 12 0
BBX 11 11 0 -1
BITMAP
2780
2480
4480
4860
C000
47C0
4440
4280
4100
4280
4C60
ENDCHAR
STARTCHAR U+4F08
ENCODING 20232
SWIDTH 545 0
DWIDTH 12 0
BBX 11 11 0 -1
BITMAP
2400
2200
4100
4400
C440
4440
5420
5420
6440
4440
43C0
ENDCHAR
STARTCHAR U+4F09
ENCODING 20233
SWIDTH 545 0
DWIDTH 12 0
BBX 11 11 0 -1
BITMAP
2100
2FE0
4000
4000
C780
4480
4480
4480
44A0
48A0
5060
ENDCHAR
STARTCHAR U+4F0A
ENCODING 20234
SWIDTH 545 0
DWIDTH 12 0
BBX 11 11 0 -1
BITMAP
2FC0
2240
4240
5FE0
C240
4240
4FC0
4200
4200
4400
5800
ENDCHAR
STARTCHAR U+4F0B
ENCODING 20235
SWIDTH 545 0
DWIDTH 12 0
BBX 10 11 0 -1
BITMAP
2FC0
2840
4880
4900
CFC0
4840
4C40
4A80
4900
5280
5440
ENDCHAR
STARTCHAR U+4F0C
ENCODING 20236
SWIDTH 545 0
DWIDTH 12 0
BBX 11 11 0 -1
BITMAP
2FE0
2800
4BC0
4A40
CA40
4A40
4AC0
4A00
4A20
5220
51E0
ENDCHAR
STARTCHAR U+4F0D
ENCODING 20237
SWIDTH 545 0
DWIDTH 12 0
BBX 11 11 0 -1
BITMAP
2000
3FE0
4200
4200
DFC0
4440
4440
4440
4440
4440
5FE0
ENDCHAR
STARTCHAR U+4F0E
ENCODING 20238
SWIDTH 545 0
DWIDTH 12 0
BBX 11 11 0 -1
BITMAP
2100
2FE0
4100
4100
CFE0
4440
4440
4280
4100
4280
4C60
ENDCHAR
STARTCHAR U+4F0F
ENCODING 20239
SWIDTH 545 0
DWIDTH 12 0
BBX 11 11 0 -1
BITMAP
2140
2120
4100
4FE0
C100
4100
4100
4280
4280
4440
4820
ENDCHAR
STARTCHAR U+4F10
ENCODING 20240
SWIDTH 545 0
DWIDTH 12 0
BBX 11 11 0 -1
BITMAP
2240
2220
4200
5FE0
C200
4240
4280
4100
4320
44A0
5840
ENDCHAR
STARTCHAR U+4F11
ENCODING 20241
SWIDTH 545 0
DWIDTH 12 0
BBX 11 11 0 -1
BITMAP
2100
2100
4FE0
4100
C100
4380
4540
4920
4100
4100
4100
ENDCHAR
STARTCHAR U+4F12
ENCODING 20242
SWIDTH 545 0
DWIDTH 12 0
BBX 11 11 0 -1
BITMAP
2FE0
2800
4800
4FE0
C880
4880
4880
4880
4880
5080
5080
ENDCHAR
STARTCHAR U+4F13
ENCODING 20243
SWIDTH 545 0
DWIDTH 12 0
BBX 11 11 0 -1
BITMAP
2FE0
2080
4100
4300
C580
4940
5120
4100
4100
4100
4100
ENDCHAR
STARTCHAR U+4F14
ENCODING 20244
SWIDTH 545 0
DWIDTH 12 0
BBX 11 11 0 -1
BITMAP
2FE0
2820
4780
4480
C480
4480
4480
4480
44A0
48A0
5060
ENDCHAR
STARTCHAR U+4F15
ENCODING 20245
SWIDTH 545 0
DWIDTH 12 0
BBX 11 11 0 -1
BITMAP
2100
2FE0
4100
4100
CFE0
4100
4280
4280
4440
4440
4820
ENDCHAR
STARTCHAR U+4F16
ENCODING 20246
SWIDTH 545 0
DWIDTH 12 0
BBX 11 11 0 -1
BITMAP
2400
2400
5FE0
4400
C7E0
4420
4A20
4940
4880
5140
5220
ENDCHAR
STARTCHAR U+4F17
ENCODING 20247
SWIDTH 545 0
DWIDTH 12 0
BBX 11 11 0 -1
BITMAP
0400
0A00
1100
2080
C060
1100
1100
1100
1100
2A80
C460
ENDCHAR
STARTCHAR U+4F18
ENCODING 20248
SWIDTH 545 0
DWIDTH 12 0
BBX 11 11 0 -1
BITMAP
2500
2480
4400
7FE0
C400
4500
4500
4500
4920
4920
50E0
ENDCHAR
STARTCHAR U+4F19
ENCODING 20249
SWIDTH 545 0
DWIDTH 12 0
BBX 11 11 0 -1
BITMAP
2200
2200
5240
CA40
4A80
4200
4500
4500
4880
5040
6020
ENDCHAR
STARTCHAR U+4F1A
ENCODING 20250
SWIDTH 545 0
DWIDTH 12 0
BBX 11 11 0 -1
BITMAP
0E00
1100
2080
5F40
8020
0000
FFE0
0800
1100
2080
7F40
ENDCHAR
STARTCHAR U+4F1B
ENCODING 20251
SWIDTH 545 0
DWIDTH 12 0
BBX 11 11 0 -1
BITMAP
2FE0
2800
4A20
4940
C880
4880
4880
4940
4A20
4800
4FE0
ENDCHAR
STARTCHAR U+4F1C
ENCODING 20252
SWIDTH 545 0
DWIDTH 12 0
BBX 11 11 0 -1
BITMAP
2400
2F80
4480
44A0
C8A0
50E0
4200
5FE0
4200
4200
4200
ENDCHAR
STARTCHAR U+4F1D
ENCODING 20253
SWIDTH 545 0
DWIDTH 12 0
BBX 11 11 0 -1
BITMAP
2FC0
2000
4000
4000
DFE0
4200
4400
4440
4840
5FA0
4020
ENDCHAR
STARTCHAR U+4F1E
ENCODING 20254
SWIDTH 545 0
DWIDTH 12 0
BBX 11 11 0 -1
BITMAP
0400
0A00
1100
2480
C460
2480
1500
FFE0
0400
0400
0400
ENDCHAR
STARTCHAR U+4F1F
ENCODING 20255
SWIDTH 545 0
DWIDTH 12 0
BBX 11 11 0 -1
BITMAP
2200
3FE0
4200
5FC0
C200
5FE0
4220
4220
42E0
4200
4200
ENDCHAR
STARTCHAR U+4F20
ENCODING 20256
SWIDTH 545 0
DWIDTH 12 0
BBX 11 11 0 -1
BITMAP
2200
2FC0
4400
5FE0
C800
4FE0
4040
4880
4500
4200
4100
ENDCHAR
STARTCHAR U+4F21
ENCODING 20257
SWIDTH 545 0
DWIDTH 12 0
BBX 10 11 1 -1
BITMAP
2400
3FC0
4800
5200
DFC0
4200
4200
5FC0
4200
4200
4200
ENDCHAR
STARTCHAR U+4F22
ENCODING 20258
SWIDTH 545 0
DWIDTH 12 0
BBX 11 11 0 -1
BITMAP
2FE0
2080
4880
4880
DFE0
4280
4280
4480
4480
4880
5380
ENDCHAR
STARTCHAR U+4F23
ENCODING 20259
SWIDTH 545 0
DWIDTH 12 0
BBX 11 11 0 -1
BITMAP
2FC0
2840
4A40
4A40
CA40
4A40
4200
4500
4520
4920
51E0
ENDCHAR
STARTCHAR U+4F24
ENCODING 20260
SWIDTH 545 0
DWIDTH 12 0
BBX 11 11 0 -1
BITMAP
2800
2FE0
4A00
5200
CFE0
4220
4220
4220
4220
4420
58E0
ENDCHAR
STARTCHAR U+4F25
ENCODING 20261
SWIDTH 545 0
DWIDTH 12 0
BBX 11 11 0 -1
BITMAP
2800
2840
4880
4B00
C800
7FE0
4A00
4900
4880
4840
4E20
ENDCHAR
STARTCHAR U+4F26
ENCODING 20262
SWIDTH 545 0
DWIDTH 12 0
BBX 11 11 0 -1
BITMAP
2300
2480
4840
5020
C800
4980
4E00
4800
4820
4820
47E0
ENDCHAR
STARTCHAR U+4F27
ENCODING 20263
SWIDTH 545 0
DWIDTH 12 0
BBX 11 11 0 -1
BITMAP
2200
2500
4880
5060
EF80
4880
4880
4B80
4820
4820
47E0
ENDCHAR
STARTCHAR U+4F28
ENCODING 20264
SWIDTH 545 0
DWIDTH 12 0
BBX 11 11 0 -1
BITMAP
2400
2FE0
4820
5020
C720
4020
4020
4720
4020
4020
40E0
ENDCHAR
STARTCHAR U+4F29
ENCODING 20265
SWIDTH 545 0
DWIDTH 12 0
BBX 11 11 0 -1
BITMAP
2100
2FE0
4440
4440
C440
4280
4280
4100
4100
4280
4C60
ENDCHAR
STARTCHAR U+4F2A
ENCODING 20266
SWIDTH 545 0
DWIDTH 12 0
BBX 11 11 0 -1
BITMAP
2A00
2600
5FE0
4220
C220
4320
42A0
4420
4420
4820
50E0
ENDCHAR
STARTCHAR U+4F2B
ENCODING 20267
SWIDTH 545 0
DWIDTH 12 0
BBX 11 11 0 -1
BITMAP
2200
2100
5FE0
5020
C000
4000
4000
4000
4000
5FE0
4000
ENDCHAR
STARTCHAR U+4F2C
ENCODING 20268
SWIDTH 545 0
DWIDTH 12 0
BBX 11 11 0 -1
BITMAP
2FC0
2840
4840
4FC0
CA00
4A00
4900
4900
4880
5040
5020
ENDCHAR
STARTCHAR U+4F2D
ENCODING 20269
SWIDTH 545 0
DWIDTH 12 0
BBX 11 11 0 -1
BITMAP
2100
2FE0
4200
4400
C840
4F80
4100
4240
4440
4FA0
4020
ENDCHAR
STARTCHAR U+4F2E
ENCODING 20270
SWIDTH 545 0
DWIDTH 12 0
BBX 11 11 0 -1
BITMAP
2800
28E0
5EA0
4AA0
CAA0
4AA0
4AA0
4440
4440
4AA0
51A0
ENDCHAR
STARTCHAR U+4F2F
ENCODING 20271
SWIDTH 545 0
DWIDTH 12 0
BBX 11 11 0 -1
BITMAP
2100
2200
4FE0
4820
C820
4820
4FE0
4820
4820
4820
4FE0
ENDCHAR
STARTCHAR U+4F30
ENCODING 20272
SWIDTH 545 0
DWIDTH 12 0
BBX 11 11 0 -1
BITMAP
2100
2100
4FE0
4100
C100
4FE0
4820
4820
4820
4FE0
4820
ENDCHAR
STARTCHAR U+4F31
ENCODING 20273
SWIDTH 545 0
DWIDTH 12 0
BBX 11 11 0 -1
BITMAP
2100
2280
4440
4820
C100
4940
4920
4920
5120
4100
4700
ENDCHAR
STARTCHAR U+4F32
ENCODING 20274
SWIDTH 545 0
DWIDTH 12 0
BBX 11 11 0 -1
BITMAP
2FE0
2820
4820
4FE0
C800
4A20
4BC0
4A00
5220
5220
63E0
ENDCHAR
STARTCHAR U+4F33
ENCODING 20275
SWIDTH 545 0
DWIDTH 12 0
BBX 11 11 0 -1
BITMAP
2A40
2A40
4A40
5FE0
CA40
4A40
4A40
4BC0
4800
4800
4FE0
ENDCHAR
STARTCHAR U+4F34
ENCODING 20276
SWIDTH 545 0
DWIDTH 12 0
BBX 11 11 0 -1
BITMAP
2100
2920
4540
4100
CFE0
4100
4100
4FE0
4100
4100
4100
ENDCHAR
STARTCHAR U+4F35
ENCODING 20277
SWIDTH 545 0
DWIDTH 12 0
BBX 11 11 0 -1
BITMAP
2000
2FE0
4AA0
4AA0
CAA0
4AA0
4AA0
4CE0
4820
4FE0
4820
ENDCHAR
STARTCHAR U+4F36
ENCODING 20278
SWIDTH 545 0
DWIDTH 12 0
BBX 11 11 0 -1
BITMAP
2300
2480
4840
57A0
C000
4FC0
4040
4880
4500
4200
4100
ENDCHAR
STARTCHAR U+4F37
ENCODING 20279
SWIDTH 545 0
DWIDTH 12 0
BBX 11 11 0 -1
BITMAP
2100
2100
4FE0
4920
C920
4920
4FE0
4920
4920
4920
4FE0
ENDCHAR
STARTCHAR U+4F38
ENCODING 20280
SWIDTH 545 0
DWIDTH 12 0
BBX 11 11 0 -1
BITMAP
2100
2FE0
4920
4920
CFE0
4920
4920
4FE0
4100
4100
4100
ENDCHAR
STARTCHAR U+4F39
ENCODING 20281
SWIDTH 545 0
DWIDTH 12 0
BBX 11 11 0 -1
BITMAP
2FC0
2840
4840
4FC0
C840
4840
4FC0
4840
4840
4840
5FE0
ENDCHAR
STARTCHAR U+4F3A
ENCODING 20282
SWIDTH 545 0
DWIDTH 12 0
BBX 11 11 0 -1
BITMAP
2FE0
2020
4FA0
4020
CFA0
48A0
48A0
4FA0
4020
4020
40E0
ENDCHAR
STARTCHAR U+4F3B
ENCODING 20283
SWIDTH 545 0
DWIDTH 12 0
BBX 11 11 0 -1
BITMAP
2FE0
2100
4920
4540
C100
4FE0
4100
4100
4100
4100
4100
ENDCHAR
STARTCHAR U+4F3C
ENCODING 20284
SWIDTH 545 0
DWIDTH 12 0
BBX 11 11 0 -1
BITMAP
2840
2840
4A40
4940
C940
4840
4840
4A80
4C80
4940
4220
ENDCHAR
STARTCHAR U+4F3D
ENCODING 20285
SWIDTH 545 0
DWIDTH 12 0
BBX 11 11 0 -1
BITMAP
2800
28E0
5EA0
4AA0
CAA0
4AA0
4AA0
4AA0
4AA0
52A0
56E0
ENDCHAR
STARTCHAR U+4F3E
ENCODING 20286
SWIDTH 545 0
DWIDTH 12 0
BBX 11 11 0 -1
BITMAP
2FE0
2080
4100
4300
C580
4940
4120
4100
4100
4000
4FE0
ENDCHAR
STARTCHAR U+4F3F
ENCODING 20287
SWIDTH 545 0
DWIDTH 12 0
BBX 10 11 1 -1
BITMAP
2FC0
2840
4840
4840
C840
4FC0
4000
4480
4480
4840
4840
ENDCHAR
STARTCHAR U+4F40
ENCODING 20288
SWIDTH 545 0
DWIDTH 12 0
BBX 11 11 0 -1
BITMAP
2FC0
2840
4840
4840
CFC0
4800
4FE0
4820
4820
4820
4FE0
ENDCHAR
STARTCHAR U+4F41
ENCODING 20289
SWIDTH 545 0
DWIDTH 12 0
BBX 11 11 0 -1
BITMAP
2200
2200
4440
4440
CFA0
4000
4FE0
4820
4820
4820
4FE0
ENDCHAR
STARTCHAR U+4F42
ENCODING 20290
SWIDTH 545 0
DWIDTH 12 0
BBX 11 11 0 -1
BITMAP
2FE0
2100
4100
4100
C9E0
4900
4900
4900
4900
4900
4FE0
ENDCHAR
STARTCHAR U+4F43
ENCODING 20291
SWIDTH 545 0
DWIDTH 12 0
BBX 11 11 0 -1
BITMAP
2000
2FE0
4920
4920
C920
4FE0
4920
4920
4920
4920
4FE0
ENDCHAR
STARTCHAR U+4F44
ENCODING 20292
SWIDTH 545 0
DWIDTH 12 0
BBX 11 11 0 -1
BITMAP
2840
2840
5FE0
4840
C840
4840
4FC0
4840
4840
4840
4FC0
ENDCHAR
STARTCHAR U+4F45
ENCODING 20293
SWIDTH 545 0
DWIDTH 12 0
BBX 11 11 0 -1
BITMAP
2100
2FE0
4100
4100
CFE0
4100
4540
4540
4540
4920
4100
ENDCHAR
STARTCHAR U+4F46
ENCODING 20294
SWIDTH 545 0
DWIDTH 12 0
BBX 11 11 0 -1
BITMAP
2000
2FC0
4840
4840
CFC0
4840
4840
4840
4FC0
4000
5FE0
ENDCHAR
STARTCHAR U+4F47
ENCODING 20295
SWIDTH 545 0
DWIDTH 12 0
BBX 11 11 0 -1
BITMAP
2100
2FE0
4820
4000
C000
4FE0
4100
4100
4100
4100
4700
ENDCHAR
STARTCHAR U+4F48
ENCODING 20296
SWIDTH 545 0
DWIDTH 12 0
BBX 11 11 0 -1
BITMAP
2200
3FE0
4400
4900
DFE0
6920
4920
4920
4960
4100
4100
ENDCHAR
STARTCHAR U+4F49
ENCODING 20297
SWIDTH 545 0
DWIDTH 12 0
BBX 11 11 0 -1
BITMAP
2100
2100
4FE0
4100
C100
4FE0
4200
4440
4840
49A0
4E20
ENDCHAR
STARTCHAR U+4F4A
ENCODING 20298
SWIDTH 545 0
DWIDTH 12 0
BBX 11 11 0 -1
BITMAP
2100
2FE0
4920
4900
CFE0
4820
4A20
4940
4880
5140
5620
ENDCHAR
STARTCHAR U+4F4B
ENCODING 20299
SWIDTH 545 0
DWIDTH 12 0
BBX 11 11 0 -1
BITMAP
2FE0
2220
4220
4420
C8E0
4000
4FE0
4820
4820
4820
4FE0
ENDCHAR
STARTCHAR U+4F4C
ENCODING 20300
SWIDTH 545 0
DWIDTH 12 0
BBX 11 11 0 -1
BITMAP
2100
2500
4500
5520
D7C0
5500
5500
5500
5520
5720
5CE0
ENDCHAR
STARTCHAR U+4F4D
ENCODING 20301
SWIDTH 545 0
DWIDTH 12 0
BBX 11 11 0 -1
BITMAP
2200
2100
5FE0
4000
C840
4840
4440
4480
4480
4080
5FE0
ENDCHAR
STARTCHAR U+4F4E
ENCODING 20302
SWIDTH 545 0
DWIDTH 12 0
BBX 11 11 0 -1
BITMAP
21C0
2F00
4900
4900
CFE0
4900
4900
4880
4EA0
5860
4720
ENDCHAR
STARTCHAR U+4F4F
ENCODING 20303
SWIDTH 545 0
DWIDTH 12 0
BBX 11 11 0 -1
BITMAP
2200
2100
4FE0
4100
C100
4100
4FE0
4100
4100
4100
4FE0
ENDCHAR
STARTCHAR U+4F50
ENCODING 20304
SWIDTH 545 0
DWIDTH 12 0
BBX 11 11 0 -1
BITMAP
2200
3FE0
4400
4400
C7C0
4900
4900
5100
5100
6100
4FE0
ENDCHAR
STARTCHAR U+4F51
ENCODING 20305
SWIDTH 545 0
DWIDTH 12 0
BBX 11 11 0 -1
BITMAP
2200
2FE0
4200
4200
C7E0
4C20
7420
4420
4420
47E0
4420
ENDCHAR
STARTCHAR U+4F52
ENCODING 20306
SWIDTH 545 0
DWIDTH 12 0
BBX 11 11 0 -1
BITMAP
2200
2200
4FC0
4A40
CA40
4A40
5FE0
4200
4200
4500
58E0
ENDCHAR
STARTCHAR U+4F53
ENCODING 20307
SWIDTH 545 0
DWIDTH 12 0
BBX 11 11 0 -1
BITMAP
2200
2200
5FC0
4200
C700
4A80
5240
6220
5FC0
4200
4200
ENDCHAR
STARTCHAR U+4F54
ENCODING 20308
SWIDTH 545 0
DWIDTH 12 0
BBX 10 11 1 -1
BITMAP
2200
2200
43C0
4200
C200
5FC0
5040
5040
5040
5040
5FC0
ENDCHAR
STARTCHAR U+4F55
ENCODING 20309
SWIDTH 545 0
DWIDTH 12 0
BBX 11 11 0 -1
BITMAP
2FE0
2040
4040
4F40
C940
4940
4F40
4040
4040
4040
41C0
ENDCHAR
STARTCHAR U+4F56
ENCODING 20310
SWIDTH 545 0
DWIDTH 12 0
BBX 11 11 0 -1
BITMAP
2400
2200
4080
4480
C480
4540
5520
5620
6440
4C40
53C0
ENDCHAR
STARTCHAR U+4F57
ENCODING 20311
SWIDTH 545 0
DWIDTH 12 0
BBX 11 11 0 -1
BITMAP
2100
2FE0
4820
4000
C420
44C0
4700
4400
4420
4420
47E0
ENDCHAR
STARTCHAR U+4F58
ENCODING 20312
SWIDTH 545 0
DWIDTH 12 0
BBX 11 11 0 -1
BITMAP
0400
0A00
1100
3F80
4040
8020
3F80
0400
2480
4440
0400
ENDCHAR
STARTCHAR U+4F59
ENCODING 20313
SWIDTH 545 0
DWIDTH 12 0
BBX 11 11 0 -1
BITMAP
0400
0A00
1100
3F80
4440
8420
3F80
0400
2480
4440
0C00
ENDCHAR
STARTCHAR U+4F5A
ENCODING 20314
SWIDTH 545 0
DWIDTH 12 0
BBX 11 11 0 -1
BITMAP
2100
2900
4FE0
5100
C100
4FE0
4100
4100
4280
4440
5820
ENDCHAR
STARTCHAR U+4F5B
ENCODING 20315
SWIDTH 545 0
DWIDTH 12 0
BBX 11 11 0 -1
BITMAP
2480
3FE0
44A0
5FE0
D480
5FE0
44A0
44A0
44E0
4880
5080
ENDCHAR
STARTCHAR U+4F5C
ENCODING 20316
SWIDTH 545 0
DWIDTH 12 0
BBX 11 11 0 -1
BITMAP
2800
2FE0
4A00
5200
C3C0
4200
4200
43C0
4200
4200
4200
ENDCHAR
STARTCHAR U+4F5D
ENCODING 20317
SWIDTH 545 0
DWIDTH 12 0
BBX 11 11 0 -1
BITMAP
2800
2FE0
4820
5020
C7A0
44A0
44A0
47A0
4020
4020
40E0
ENDCHAR
STARTCHAR U+4F5E
ENCODING 20318
SWIDTH 545 0
DWIDTH 12 0
BBX 11 11 0 -1
BITMAP
2FC0
2000
5FE0
4200
DFE0
4480
4480
4480
4300
4480
5860
ENDCHAR
STARTCHAR U+4F5F
ENCODING 20319
SWIDTH 545 0
DWIDTH 12 0
BBX 11 11 0 -1
BITMAP
2400
27C0
4880
5500
C200
4D80
7260
4100
4800
4600
4180
ENDCHAR
STARTCHAR U+4F60
ENCODING 20320
SWIDTH 545 0
DWIDTH 12 0
BBX 11 11 0 -1
BITMAP
2400
27E0
4820
4920
D140
4100
4940
4920
5120
4100
4700
ENDCHAR
STARTCHAR U+4F61
ENCODING 20321
SWIDTH 545 0
DWIDTH 12 0
BBX 11 11 0 -1
BITMAP
2100
2280
4440
4820
C000
4100
4920
4920
4920
4FE0
4820
ENDCHAR
STARTCHAR U+4F62
ENCODING 20322
SWIDTH 545 0
DWIDTH 12 0
BBX 11 11 0 -1
BITMAP
2FE0
2800
4800
4FC0
C840
4840
4FC0
4800
4800
4FE0
4800
ENDCHAR
STARTCHAR U+4F63
ENCODING 20323
SWIDTH 545 0
DWIDTH 12 0
BBX 11 11 0 -1
BITMAP
2FE0
2920
4920
4FE0
C920
4920
4FE0
4920
4920
4920
5160
ENDCHAR
STARTCHAR U+4F64
ENCODING 20324
SWIDTH 545 0
DWIDTH 12 0
BBX 11 11 0 -1
BITMAP
2000
3FE0
4800
4F80
C880
4C80
4A80
4980
48A0
48A0
5E60
ENDCHAR
STARTCHAR U+4F65
ENCODING 20325
SWIDTH 545 0
DWIDTH 12 0
BBX 11 11 0 -1
BITMAP
0400
0A00
1100
2080
DF60
0000
2440
1480
1480
0100
FFE0
ENDCHAR
STARTCHAR U+4F66
ENCODING 20326
SWIDTH 545 0
DWIDTH 12 0
BBX 11 11 0 -1
BITMAP
2FE0
2200
4200
4200
C7E0
4C20
5420
4420
4420
47E0
4420
ENDCHAR
STARTCHAR U+4F67
ENCODING 20327
SWIDTH 545 0
DWIDTH 12 0
BBX 11 11 0 -1
BITMAP
2200
2200
43C0
4200
DFE0
4200
4300
4280
4240
4200
4200
ENDCHAR
STARTCHAR U+4F68
ENCODING 20328
SWIDTH 545 0
DWIDTH 12 0
BBX 11 11 0 -1
BITMAP
2800
2FC0
4840
5F40
C940
4940
4F40
48C0
4820
4820
47E0
ENDCHAR
STARTCHAR U+4F69
ENCODING 20329
SWIDTH 545 0
DWIDTH 12 0
BBX 11 11 0 -1
BITMAP
3FC0
3040
5F40
5440
DF40
5540
5540
5540
5540
5740
6420
ENDCHAR
STARTCHAR U+4F6A
ENCODING 20330
SWIDTH 545 0
DWIDTH 12 0
BBX 11 11 0 -1
BITMAP
2000
2FE0
4820
4820
CBA0
4AA0
4AA0
4BA0
4820
4820
4FE0
ENDCHAR
STARTCHAR U+4F6B
ENCODING 20331
SWIDTH 545 0
DWIDTH 12 0
BBX 11 11 0 -1
BITMAP
2400
27C0
4840
5480
C300
4480
5860
4FC0
4840
4840
4FC0
ENDCHAR
STARTCHAR U+4F6C
ENCODING 20332
SWIDTH 545 0
DWIDTH 12 0
BBX 11 11 0 -1
BITMAP
2240
2FE0
4280
4300
DFE0
4400
4C40
5780
4420
4420
43E0
ENDCHAR
STARTCHAR U+4F6D
ENCODING 20333
SWIDTH 545 0
DWIDTH 12 0
BBX 10 11 1 -1
BITMAP
2400
2FC0
5880
4700
D8C0
4200
5FC0
4A00
5FC0
4200
4200
ENDCHAR
STARTCHAR U+4F6E
ENCODING 20334
SWIDTH 545 0
DWIDTH 12 0
BBX 10 11 1 -1
BITMAP
2200
2500
4880
5040
CF80
4000
4F80
4880
4880
4880
4F80
ENDCHAR
STARTCHAR U+4F6F
ENCODING 20335
SWIDTH 545 0
DWIDTH 12 0
BBX 11 11 0 -1
BITMAP
2440
2280
4FE0
4100
C100
4FE0
4100
4100
4FE0
4100
4100
ENDCHAR
STARTCHAR U+4F70
ENCODING 20336
SWIDTH 545 0
DWIDTH 12 0
BBX 11 11 0 -1
BITMAP
2FE0
2200
4400
4FE0
C820
4820
4FE0
4820
4820
4FE0
4820
ENDCHAR
STARTCHAR U+4F71
ENCODING 20337
SWIDTH 545 0
DWIDTH 12 0
BBX 11 11 0 -1
BITMAP
0E00
1100
3F80
C060
7FC0
0400
2400
27C0
2400
2400
FFE0
ENDCHAR
STARTCHAR U+4F72
ENCODING 20338
SWIDTH 545 0
DWIDTH 12 0
BBX 10 11 1 -1
BITMAP
2400
27C0
4C40
5280
C100
4600
5FC0
4840
4840
4840
4FC0
ENDCHAR
STARTCHAR U+4F73
ENCODING 20339
SWIDTH 545 0
DWIDTH 12 0
BBX 11 11 0 -1
BITMAP
2100
2FE0
4100
4100
CFE0
4100
4100
4FE0
4100
4100
4FE0
ENDCHAR
STARTCHAR U+4F74
ENCODING 20340
SWIDTH 545 0
DWIDTH 12 0
BBX 11 11 0 -1
BITMAP
3FE0
2880
4880
4F80
C880
4F80
4880
4880
5FE0
4080
4080
ENDCHAR
STARTCHAR U+4F75
ENCODING 20341
SWIDTH 545 0
DWIDTH 12 0
BBX 11 11 0 -1
BITMAP
2840
2480
5FE0
4480
C480
5FE0
4480
4480
4880
4880
5080
ENDCHAR
STARTCHAR U+4F76
ENCODING 20342
SWIDTH 545 0
DWIDTH 12 0
BBX 11 11 0 -1
BITMAP
2100
2FE0
4100
4100
CFE0
4000
4FE0
4820
4820
4820
4FE0
ENDCHAR
STARTCHAR U+4F77
ENCODING 20343
SWIDTH 545 0
DWIDTH 12 0
BBX 11 11 0 -1
BITMAP
2FC0
2840
4FC0
4840
CFC0
4800
4920
4940
4880
4840
4E20
ENDCHAR
STARTCHAR U+4F78
ENCODING 20344
SWIDTH 545 0
DWIDTH 12 0
BBX 10 11 1 -1
BITMAP
20C0
3F00
4200
5FC0
C200
4200
5FC0
5040
5040
5040
5FC0
ENDCHAR
STARTCHAR U+4F79
ENCODING 20345
SWIDTH 545 0
DWIDTH 12 0
BBX 11 11 0 -1
BITMAP
2200
23C0
4480
4FE0
C800
4BC0
4A40
4AC0
4A00
5220
53E0
ENDCHAR
STARTCHAR U+4F7A
ENCODING 20346
SWIDTH 545 0
DWIDTH 12 0
BBX 10 11 1 -1
BITMAP
2200
2500
4880
5040
CF80
4200
4200
4F80
4200
4200
5FC0
ENDCHAR
STARTCHAR U+4F7B
ENCODING 20347
SWIDTH 545 0
DWIDTH 12 0
BBX 11 11 0 -1
BITMAP
2500
2520
5540
4D80
C500
4D80
5540
6520
4500
4920
50E0
ENDCHAR
STARTCHAR U+4F7C
ENCODING 20348
SWIDTH 545 0
DWIDTH 12 0
BBX 10 11 1 -1
BITMAP
2200
3FC0
4500
4880
D040
4880
4880
4500
4200
4500
58C0
ENDCHAR
STARTCHAR U+4F7D
ENCODING 20349
SWIDTH 545 0
DWIDTH 12 0
BBX 11 11 0 -1
BITMAP
2100
2100
43E0
5A20
C2A0
4480
4080
4080
5880
4140
4620
ENDCHAR
STARTCHAR U+4F7E
ENCODING 20350
SWIDTH 545 0
DWIDTH 12 0
BBX 11 11 0 -1
BITMAP
2980
2880
5040
5FC0
E8A0
4F80
4880
4F80
4880
4880
4980
ENDCHAR
STARTCHAR U+4F7F
ENCODING 20351
SWIDTH 545 0
DWIDTH 12 0
BBX 11 11 0 -1
BITMAP
2100
2FE0
4100
4FE0
C920
4920
4FE0
4100
4500
4200
4DE0
ENDCHAR
STARTCHAR U+4F80
ENCODING 20352
SWIDTH 545 0
DWIDTH 12 0
BBX 11 11 0 -1
BITMAP
3F20
2A20
4AA0
4AA0
DFA0
4AA0
4AA0
4AA0
4A20
5220
52E0
ENDCHAR
STARTCHAR U+4F81
ENCODING 20353
SWIDTH 545 0
DWIDTH 12 0
BBX 10 11 1 -1
BITMAP
2200
2A00
4F80
5200
C200
5FC0
4500
4500
4540
4940
50C0
ENDCHAR
STARTCHAR U+4F82
ENCODING 20354
SWIDTH 545 0
DWIDTH 12 0
BBX 11 11 0 -1
BITMAP
2100
2FE0
4800
4FC0
C900
4900
4FE0
4900
4920
5120
50E0
ENDCHAR
STARTCHAR U+4F83
ENCODING 20355
SWIDTH 545 0
DWIDTH 12 0
BBX 11 11 0 -1
BITMAP
2F80
2880
4880
4F80
C000
4A80
4A80
4A80
4A80
5280
6060
ENDCHAR
STARTCHAR U+4F84
ENCODING 20356
SWIDTH 545 0
DWIDTH 12 0
BBX 11 11 0 -1
BITMAP
2FE0
2100
4200
4440
CFA0
4100
4100
4FE0
4100
4100
4FE0
ENDCHAR
STARTCHAR U+4F85
ENCODING 20357
SWIDTH 545 0
DWIDTH 12 0
BBX 10 11 1 -1
BITMAP
2200
3FC0
4400
4880
DF00
4240
4480
4900
5280
4440
4840
ENDCHAR
STARTCHAR U+4F86
ENCODING 20358
SWIDTH 545 0
DWIDTH 12 0
BBX 11 11 0 -1
BITMAP
0400
7FC0
0400
2480
2480
5540
0E00
1500
2480
C460
0400
ENDCHAR
STARTCHAR U+4F87
ENCODING 20359
SWIDTH 545 0
DWIDTH 12 0
BBX 0 0 0 0
BITMAP
ENDCHAR
STARTCHAR U+4F88
ENCODING 20360
SWIDTH 545 0
DWIDTH 12 0
BBX 11 11 0 -1
BITMAP
2100
23E0
4C20
42C0
C300
4C80
43E0
4C20
42C0
4300
5C00
ENDCHAR
STARTCHAR U+4F89
ENCODING 20361
SWIDTH 545 0
DWIDTH 12 0
BBX 11 11 0 -1
BITMAP
2200
3FE0
4480
4FC0
D020
5FE0
4400
4FC0
4040
4040
41C0
ENDCHAR
STARTCHAR U+4F8A
ENCODING 20362
SWIDTH 545 0
DWIDTH 12 0
BBX 0 0 0 0
BITMAP
ENDCHAR
STARTCHAR U+4F8B
ENCODING 20363
SWIDTH 545 0
DWIDTH 12 0
BBX 11 11 0 -1
BITMAP
3F20
2820
48A0
4EA0
CAA0
52A0
4AA0
44A0
44A0
4820
5060
ENDCHAR
STARTCHAR U+4F8C
ENCODING 20364
SWIDTH 545 0
DWIDTH 12 0
BBX 0 0 0 0
BITMAP
ENDCHAR
STARTCHAR U+4F8D
ENCODING 20365
SWIDTH 545 0
DWIDTH 12 0
BBX 11 11 0 -1
BITMAP
2100
2FE0
4100
4FE0
C040
5FE0
4840
4440
4240
4040
41C0
ENDCHAR
STARTCHAR U+4F8E
ENCODING 20366
SWIDTH 545 0
DWIDTH 12 0
BBX 0 0 0 0
BITMAP
ENDCHAR
STARTCHAR U+4F8F
ENCODING 20367
SWIDTH 545 0
DWIDTH 12 0
BBX 11 11 0 -1
BITMAP
2100
2900
4FE0
5100
C100
5FE0
4380
4540
4920
5100
4100
ENDCHAR
STARTCHAR U+4F90
ENCODING 20368
SWIDTH 545 0
DWIDTH 12 0
BBX 0 0 0 0
BITMAP
ENDCHAR
STARTCHAR U+4F91
ENCODING 20369
SWIDTH 545 0
DWIDTH 12 0
BBX 11 11 0 -1
BITMAP
2100
2FE0
4200
47E0
CC20
57E0
4420
47E0
4420
4420
4460
ENDCHAR
STARTCHAR U+4F92
ENCODING 20370
SWIDTH 545 0
DWIDTH 12 0
BBX 11 11 0 -1
BITMAP
2400
2200
5FE0
5020
C200
5FE0
4480
4480
4300
4480
5860
ENDCHAR
STARTCHAR U+4F93
ENCODING 20371
SWIDTH 545 0
DWIDTH 12 0
BBX 11 11 0 -1
BITMAP
2200
2FC0
4240
5FE0
C240
4FC0
4200
5FC0
4200
5FE0
4200
ENDCHAR
STARTCHAR U+4F94
ENCODING 20372
SWIDTH 545 0
DWIDTH 12 0
BBX 11 11 0 -1
BITMAP
2200
2480
4840
5FA0
CA00
4FC0
5200
4200
5FE0
4200
4200
ENDCHAR
STARTCHAR U+4F95
ENCODING 20373
SWIDTH 545 0
DWIDTH 12 0
BBX 10 11 1 -1
BITMAP
2000
3FC0
4200
5FC0
D540
5540
5540
5540
5540
5540
50C0
ENDCHAR
STARTCHAR U+4F96
ENCODING 20374
SWIDTH 545 0
DWIDTH 12 0
BBX 11 11 0 -1
BITMAP
0400
0A00
1100
3F80
C060
7FC0
4A40
7FC0
4A40
4A40
4AC0
ENDCHAR
STARTCHAR U+4F97
ENCODING 20375
SWIDTH 545 0
DWIDTH 12 0
BBX 11 11 0 -1
BITMAP
3FE0
3020
57A0
5020
D7A0
54A0
54A0
57A0
5020
5020
50E0
ENDCHAR
STARTCHAR U+4F98
ENCODING 20376
SWIDTH 545 0
DWIDTH 12 0
BBX 11 11 0 -1
BITMAP
2200
3FE0
5020
4F80
C200
4200
5FC0
4200
4220
4220
41E0
ENDCHAR
STARTCHAR U+4F99
ENCODING 20377
SWIDTH 545 0
DWIDTH 12 0
BBX 11 11 0 -1
BITMAP
20C0
20A0
5FE0
4080
DF80
4480
4480
4480
47A0
5CA0
4060
ENDCHAR
STARTCHAR U+4F9A
ENCODING 20378
SWIDTH 545 0
DWIDTH 12 0
BBX 11 11 0 -1
BITMAP
2400
2FE0
4820
5020
CF20
4920
4F20
4920
4F20
4020
40E0
ENDCHAR
STARTCHAR U+4F9B
ENCODING 20379
SWIDTH 545 0
DWIDTH 12 0
BBX 11 11 0 -1
BITMAP
2480
2480
5FE0
4480
C480
4480
5FE0
4000
4480
4840
5020
ENDCHAR
STARTCHAR U+4F9C
ENCODING 20380
SWIDTH 545 0
DWIDTH 12 0
BBX 11 11 0 -1
BITMAP
2200
2FC0
4840
4A40
C940
5FE0
4840
4A40
4940
4840
51C0
ENDCHAR
STARTCHAR U+4F9D
ENCODING 20381
SWIDTH 545 0
DWIDTH 12 0
BBX 11 11 0 -1
BITMAP
2200
3FE0
4200
4400
C500
4920
5940
6880
4880
4840
4E20
ENDCHAR
STARTCHAR U+4F9E
ENCODING 20382
SWIDTH 545 0
DWIDTH 12 0
BBX 11 11 0 -1
BITMAP
2400
24E0
5EA0
4AA0
CAA0
4AA0
4AA0
44A0
44A0
4AE0
51A0
ENDCHAR
STARTCHAR U+4F9F
ENCODING 20383
SWIDTH 545 0
DWIDTH 12 0
BBX 11 11 0 -1
BITMAP
2200
2200
5FE0
4400
CBC0
5840
6FE0
4880
4880
4880
4980
ENDCHAR
STARTCHAR U+4FA0
ENCODING 20384
SWIDTH 545 0
DWIDTH 12 0
BBX 11 11 0 -1
BITMAP
2100
2FC0
4100
4920
C540
4100
5FE0
4100
4280
4440
5820
ENDCHAR
STARTCHAR U+4FA1
ENCODING 20385
SWIDTH 545 0
DWIDTH 12 0
BBX 0 0 0 0
BITMAP
ENDCHAR
STARTCHAR U+4FA2
ENCODING 20386
SWIDTH 545 0
DWIDTH 12 0
BBX 0 0 0 0
BITMAP
ENDCHAR
STARTCHAR U+4FA3
ENCODING 20387
SWIDTH 545 0
DWIDTH 12 0
BBX 11 11 0 -1
BITMAP
27C0
2440
4440
47C0
C000
4FE0
4820
4820
4820
4FE0
4820
ENDCHAR
STARTCHAR U+4FA4
ENCODING 20388
SWIDTH 545 0
DWIDTH 12 0
BBX 0 0 0 0
BITMAP
ENDCHAR
STARTCHAR U+4FA5
ENCODING 20389
SWIDTH 545 0
DWIDTH 12 0
BBX 11 11 0 -1
BITMAP
2260
2F80
4240
41A0
CE60
4000
5FE0
4480
44A0
48A0
5060
ENDCHAR
STARTCHAR U+4FA6
ENCODING 20390
SWIDTH 545 0
DWIDTH 12 0
BBX 11 11 0 -1
BITMAP
2200
23C0
4200
4FC0
C840
4A40
4A40
4A40
4200
4480
5860
ENDCHAR
STARTCHAR U+4FA7
ENCODING 20391
SWIDTH 545 0
DWIDTH 12 0
BBX 11 11 0 -1
BITMAP
2020
3F20
5120
5520
D520
5520
5520
5520
4420
4A20
5160
ENDCHAR
STARTCHAR U+4FA8
ENCODING 20392
SWIDTH 545 0
DWIDTH 12 0
BBX 11 11 0 -1
BITMAP
2FC0
2200
5FE0
4480
C840
54A0
4480
4480
4480
4480
4880
ENDCHAR
STARTCHAR U+4FA9
ENCODING 20393
SWIDTH 545 0
DWIDTH 12 0
BBX 11 11 0 -1
BITMAP
2300
2480
4840
57A0
C000
4000
5FE0
4200
4480
4840
5FA0
ENDCHAR
STARTCHAR U+4FAA
ENCODING 20394
SWIDTH 545 0
DWIDTH 12 0
BBX 11 11 0 -1
BITMAP
2200
3FE0
4480
4300
C480
5860
4480
4480
4480
4880
5080
ENDCHAR
STARTCHAR U+4FAB
ENCODING 20395
SWIDTH 545 0
DWIDTH 12 0
BBX 0 0 0 0
BITMAP
ENDCHAR
STARTCHAR U+4FAC
ENCODING 20396
SWIDTH 545 0
DWIDTH 12 0
BBX 11 11 0 -1
BITMAP
2200
3FE0
5220
4600
C920
5940
6880
4880
4840
4840
4E20
ENDCHAR
STARTCHAR U+4FAD
ENCODING 20397
SWIDTH 545 0
DWIDTH 12 0
BBX 0 0 0 0
BITMAP
ENDCHAR
STARTCHAR U+4FAE
ENCODING 20398
SWIDTH 545 0
DWIDTH 12 0
BBX 11 11 0 -1
BITMAP
2800
2FE0
5000
4FC0
CA40
4940
5FE0
4A40
4940
4FE0
4080
ENDCHAR
STARTCHAR U+4FAF
ENCODING 20399
SWIDTH 545 0
DWIDTH 12 0
BBX 11 11 0 -1
BITMAP
2FC0
2040
5FE0
4800
CFE0
5100
4100
5FE0
4280
4440
5820
ENDCHAR
STARTCHAR U+4FB0
ENCODING 20400
SWIDTH 545 0
DWIDTH 12 0
BBX 0 0 0 0
BITMAP
ENDCHAR
STARTCHAR U+4FB1
ENCODING 20401
SWIDTH 545 0
DWIDTH 12 0
BBX 0 0 0 0
BITMAP
ENDCHAR
STARTCHAR U+4FB2
ENCODING 20402
SWIDTH 545 0
DWIDTH 12 0
BBX 0 0 0 0
BITMAP
ENDCHAR
STARTCHAR U+4FB3
ENCODING 20403
SWIDTH 545 0
DWIDTH 12 0
BBX 0 0 0 0
BITMAP
ENDCHAR
STARTCHAR U+4FB4
ENCODING 20404
SWIDTH 545 0
DWIDTH 12 0
BBX 0 0 0 0
BITMAP
ENDCHAR
STARTCHAR U+4FB5
ENCODING 20405
SWIDTH 545 0
DWIDTH 12 0
BBX 11 11 0 -1
BITMAP
2FC0
2040
5FE0
4040
DFE0
5020
4FC0
4480
4300
4480
5860
ENDCHAR
STARTCHAR U+4FB6
ENCODING 20406
SWIDTH 545 0
DWIDTH 12 0
BBX 11 11 0 -1
BITMAP
27C0
2440
4440
47C0
C200
4FE0
4820
4820
4820
4FE0
4820
ENDCHAR
STARTCHAR U+4FB7
ENCODING 20407
SWIDTH 545 0
DWIDTH 12 0
BBX 11 11 0 -1
BITMAP
2FC0
2840
4FC0
4800
CFE0
4820
4BA0
4AA0
4BA0
5020
50E0
ENDCHAR
STARTCHAR U+4FB8
ENCODING 20408
SWIDTH 545 0
DWIDTH 12 0
BBX 0 0 0 0
BITMAP
ENDCHAR
STARTCHAR U+4FB9
ENCODING 20409
SWIDTH 545 0
DWIDTH 12 0
BBX 0 0 0 0
BITMAP
ENDCHAR
STARTCHAR U+4FBA
ENCODING 20410
SWIDTH 545 0
DWIDTH 12 0
BBX 0 0 0 0
BITMAP
ENDCHAR
STARTCHAR U+4FBB
ENCODING 20411
SWIDTH 545 0
DWIDTH 12 0
BBX 0 0 0 0
BITMAP
ENDCHAR
STARTCHAR U+4FBC
ENCODING 20412
SWIDTH 545 0
DWIDTH 12 0
BBX 0 0 0 0
BITMAP
ENDCHAR
STARTCHAR U+4FBD
ENCODING 20413
SWIDTH 545 0
DWIDTH 12 0
BBX 0 0 0 0
BITMAP
ENDCHAR
STARTCHAR U+4FBE
ENCODING 20414
SWIDTH 545 0
DWIDTH 12 0
BBX 0 0 0 0
BITMAP
ENDCHAR
STARTCHAR U+4FBF
ENCODING 20415
SWIDTH 545 0
DWIDTH 12 0
BBX 11 11 0 -1
BITMAP
2FE0
2100
4FE0
4920
CFE0
4920
4FE0
4500
4200
4500
58E0
ENDCHAR
STARTCHAR U+4FC0
ENCODING 20416
SWIDTH 545 0
DWIDTH 12 0
BBX 0 0 0 0
BITMAP
ENDCHAR
STARTCHAR U+4FC1
ENCODING 20417
SWIDTH 545 0
DWIDTH 12 0
BBX 0 0 0 0
BITMAP
ENDCHAR
STARTCHAR U+4FC2
ENCODING 20418
SWIDTH 545 0
DWIDTH 12 0
BBX 11 11 0 -1
BITMAP
2060
3F80
4200
5F80
C100
4640
5FA0
4200
5280
6240
4E20
ENDCHAR
STARTCHAR U+4FC3
ENCODING 20419
SWIDTH 545 0
DWIDTH 12 0
BBX 11 11 0 -1
BITMAP
2FE0
2820
4820
4FE0
C100
4100
49E0
4900
4900
4900
57E0
ENDCHAR
STARTCHAR U+4FC4
ENCODING 20420
SWIDTH 545 0
DWIDTH 12 0
BBX 11 11 0 -1
BITMAP
2680
2CA0
4480
5FE0
C480
4480
46A0
5CC0
4580
44A0
5C60
ENDCHAR
STARTCHAR U+4FC5
ENCODING 20421
SWIDTH 545 0
DWIDTH 12 0
BBX 11 11 0 -1
BITMAP
2280
2240
5FE0
4200
D240
4A80
4700
4A80
5260
4200
4E00
ENDCHAR
STARTCHAR U+4FC6
ENCODING 20422
SWIDTH 545 0
DWIDTH 12 0
BBX 0 0 0 0
BITMAP
ENDCHAR
STARTCHAR U+4FC7
ENCODING 20423
SWIDTH 545 0
DWIDTH 12 0
BBX 0 0 0 0
BITMAP
ENDCHAR
STARTCHAR U+4FC8
ENCODING 20424
SWIDTH 545 0
DWIDTH 12 0
BBX 0 0 0 0
BITMAP
ENDCHAR
STARTCHAR U+4FC9
ENCODING 20425
SWIDTH 545 0
DWIDTH 12 0
BBX 0 0 0 0
BITMAP
ENDCHAR
STARTCHAR U+4FCA
ENCODING 20426
SWIDTH 545 0
DWIDTH 12 0
BBX 11 11 0 -1
BITMAP
2480
2840
5FE0
4880
D260
4780
4C80
5480
4300
4480
5860
ENDCHAR
STARTCHAR U+4FCB
ENCODING 20427
SWIDTH 545 0
DWIDTH 12 0
BBX 0 0 0 0
BITMAP
ENDCHAR
STARTCHAR U+4FCC
ENCODING 20428
SWIDTH 545 0
DWIDTH 12 0
BBX 0 0 0 0
BITMAP
ENDCHAR
STARTCHAR U+4FCD
ENCODING 20429
SWIDTH 545 0
DWIDTH 12 0
BBX 0 0 0 0
BITMAP
ENDCHAR
STARTCHAR U+4FCE
ENCODING 20430
SWIDTH 545 0
DWIDTH 12 0
BBX 11 11 0 -1
BITMAP
27C0
2440
2440
57C0
5440
8C40
27C0
2440
5440
5440
8FE0
ENDCHAR
STARTCHAR U+4FCF
ENCODING 20431
SWIDTH 545 0
DWIDTH 12 0
BBX 11 11 0 -1
BITMAP
2920
2540
4100
4FE0
C820
4FE0
4820
4FE0
4820
4820
50E0
ENDCHAR
STARTCHAR U+4FD0
ENCODING 20432
SWIDTH 545 0
DWIDTH 12 0
BBX 11 11 0 -1
BITMAP
2620
3CA0
44A0
44A0
DEA0
44A0
46A0
4DA0
54A0
4420
4460
ENDCHAR
STARTCHAR U+4FD1
ENCODING 20433
SWIDTH 545 0
DWIDTH 12 0
BBX 11 11 0 -1
BITMAP
2FE0
2440
4280
4FE0
C920
4FE0
4920
4FE0
4920
4920
4960
ENDCHAR
STARTCHAR U+4FD2
ENCODING 20434
SWIDTH 545 0
DWIDTH 12 0
BBX 0 0 0 0
BITMAP
ENDCHAR
STARTCHAR U+4FD3
ENCODING 20435
SWIDTH 545 0
DWIDTH 12 0
BBX 0 0 0 0
BITMAP
ENDCHAR
STARTCHAR U+4FD4
ENCODING 20436
SWIDTH 545 0
DWIDTH 12 0
BBX 0 0 0 0
BITMAP
ENDCHAR
STARTCHAR U+4FD5
ENCODING 20437
SWIDTH 545 0
DWIDTH 12 0
BBX 0 0 0 0
BITMAP
ENDCHAR
STARTCHAR U+4FD6
ENCODING 20438
SWIDTH 545 0
DWIDTH 12 0
BBX 0 0 0 0
BITMAP
ENDCHAR
STARTCHAR U+4FD7
ENCODING 20439
SWIDTH 545 0
DWIDTH 12 0
BBX 11 11 0 -1
BITMAP
2480
2840
5320
4480
C840
5020
4FC0
4840
4840
4840
4FC0
ENDCHAR
STARTCHAR U+4FD8
ENCODING 20440
SWIDTH 545 0
DWIDTH 12 0
BBX 11 11 0 -1
BITMAP
2FE0
2A20
4540
4000
CFE0
4080
4100
5FE0
4100
4100
4700
ENDCHAR
STARTCHAR U+4FD9
ENCODING 20441
SWIDTH 545 0
DWIDTH 12 0
BBX 0 0 0 0
BITMAP
ENDCHAR
STARTCHAR U+4FDA
ENCODING 20442
SWIDTH 545 0
DWIDTH 12 0
BBX 11 11 0 -1
BITMAP
2FE0
2920
4FE0
4920
C920
4FE0
4100
4FE0
4100
4100
4FE0
ENDCHAR
STARTCHAR U+4FDB
ENCODING 20443
SWIDTH 545 0
DWIDTH 12 0
BBX 0 0 0 0
BITMAP
ENDCHAR
STARTCHAR U+4FDC
ENCODING 20444
SWIDTH 545 0
DWIDTH 12 0
BBX 11 11 0 -1
BITMAP
2200
3FC0
5240
5FC0
D240
7FE0
4400
4FC0
4040
4040
41C0
ENDCHAR
STARTCHAR U+4FDD
ENCODING 20445
SWIDTH 545 0
DWIDTH 12 0
BBX 10 11 0 -1
BITMAP
2F80
2880
4880
4F80
C200
5FC0
4200
4A80
5240
4200
4200
ENDCHAR
STARTCHAR U+4FDE
ENCODING 20446
SWIDTH 545 0
DWIDTH 12 0
BBX 11 11 0 -1
BITMAP
0E00
1100
2080
DF60
0040
7D40
4540
7D40
4540
7D40
44C0
ENDCHAR
STARTCHAR U+4FDF
ENCODING 20447
SWIDTH 545 0
DWIDTH 12 0
BBX 11 11 0 -1
BITMAP
2480
2840
5FA0
4800
CFE0
5100
4100
5FE0
4280
4440
5820
ENDCHAR
STARTCHAR U+4FE0
ENCODING 20448
SWIDTH 545 0
DWIDTH 12 0
BBX 11 11 0 -1
BITMAP
2100
2FE0
4100
4540
C540
4BA0
4100
4100
4280
4440
5820
ENDCHAR
STARTCHAR U+4FE1
ENCODING 20449
SWIDTH 545 0
DWIDTH 12 0
BBX 11 11 0 -1
BITMAP
2100
2FE0
4000
47C0
C000
47C0
4000
4FE0
4820
4820
4FE0
ENDCHAR
STARTCHAR U+4FE2
ENCODING 20450
SWIDTH 545 0
DWIDTH 12 0
BBX 0 0 0 0
BITMAP
ENDCHAR
STARTCHAR U+4FE3
ENCODING 20451
SWIDTH 545 0
DWIDTH 12 0
BBX 11 11 0 -1
BITMAP
2FC0
2840
4840
4FC0
C000
4FC0
4200
5FE0
4500
4880
5060
ENDCHAR
STARTCHAR U+4FE4
ENCODING 20452
SWIDTH 545 0
DWIDTH 12 0
BBX 0 0 0 0
BITMAP
ENDCHAR
STARTCHAR U+4FE5
ENCODING 20453
SWIDTH 545 0
DWIDTH 12 0
BBX 0 0 0 0
BITMAP
ENDCHAR
STARTCHAR U+4FE6
ENCODING 20454
SWIDTH 545 0
DWIDTH 12 0
BBX 11 11 0 -1
BITMAP
2400
3FE0
4400
5FC0
C400
7FE0
4880
4FE0
5480
6280
4180
ENDCHAR
STARTCHAR U+4FE7
ENCODING 20455
SWIDTH 545 0
DWIDTH 12 0
BBX 0 0 0 0
BITMAP
ENDCHAR
STARTCHAR U+4FE8
ENCODING 20456
SWIDTH 545 0
DWIDTH 12 0
BBX 11 11 0 -1
BITMAP
3FE0
2280
4AA0
46C0
DFE0
5000
5000
5000
5000
5000
6000
ENDCHAR
STARTCHAR U+4FE9
ENCODING 20457
SWIDTH 545 0
DWIDTH 12 0
BBX 11 11 0 -1
BITMAP
3FE0
2500
5FE0
5520
D520
5520
5AA0
5460
5020
5020
50E0
ENDCHAR
STARTCHAR U+4FEA
ENCODING 20458
SWIDTH 545 0
DWIDTH 12 0
BBX 11 11 0 -1
BITMAP
2FE0
2000
4EE0
4AA0
CAA0
4AA0
4EE0
4AA0
4AA0
4AA0
5560
ENDCHAR
STARTCHAR U+4FEB
ENCODING 20459
SWIDTH 545 0
DWIDTH 12 0
BBX 0 0 0 0
BITMAP
ENDCHAR
STARTCHAR U+4FEC
ENCODING 20460
SWIDTH 545 0
DWIDTH 12 0
BBX 0 0 0 0
BITMAP
ENDCHAR
STARTCHAR U+4FED
ENCODING 20461
SWIDTH 545 0
DWIDTH 12 0
BBX 11 11 0 -1
BITMAP
2300
2480
4840
57A0
C000
4A40
4A40
4540
4580
4080
5FE0
ENDCHAR
STARTCHAR U+4FEE
ENCODING 20462
SWIDTH 545 0
DWIDTH 12 0
BBX 11 11 0 -1
BITMAP
2200
27C0
5C40
5380
D440
59A0
5640
5180
5640
5180
4E00
ENDCHAR
STARTCHAR U+4FEF
ENCODING 20463
SWIDTH 545 0
DWIDTH 12 0
BBX 11 11 0 -1
BITMAP
2200
3FE0
5240
5440
DFE0
5440
5540
54C0
5440
5440
64C0
ENDCHAR
STARTCHAR U+4FF1
ENCODING 20465
SWIDTH 545 0
DWIDTH 12 0
BBX 11 11 0 -1
BITMAP
2F80
2880
4F80
4880
CF80
4880
4880
7FE0
4880
5040
6020
ENDCHAR
STARTCHAR U+4FF3
ENCODING 20467
SWIDTH 545 0
DWIDTH 12 0
BBX 11 11 0 -1
BITMAP
2480
2480
5CE0
4480
C480
5CE0
4480
4480
5CE0
4480
4880
ENDCHAR
STARTCHAR U+4FF8
ENCODING 20472
SWIDTH 545 0
DWIDTH 12 0
BBX 11 11 0 -1
BITMAP
2200
3FC0
4400
5FC0
C880
7FE0
5240
6FA0
4200
5FC0
4200
ENDCHAR
STARTCHAR U+4FFA
ENCODING 20474
SWIDTH 545 0
DWIDTH 12 0
BBX 11 11 0 -1
BITMAP
2200
3FE0
4880
5240
FFE0
5240
5FC0
5240
5FC0
4200
43E0
ENDCHAR
STARTCHAR U+4FFE
ENCODING 20478
SWIDTH 545 0
DWIDTH 12 0
BBX 11 11 0 -1
BITMAP
2200
2FE0
4920
4FE0
CA20
4FE0
4500
5FE0
4100
4100
4100
ENDCHAR
STARTCHAR U+5000
ENCODING 20480
SWIDTH 545 0
DWIDTH 12 0
BBX 11 11 0 -1
BITMAP
2FC0
2800
4FC0
4800
CFC0
4800
7FE0
4940
4880
4A40
4C20
ENDCHAR
STARTCHAR U+5006
ENCODING 20486
SWIDTH 545 0
DWIDTH 12 0
BBX 11 11 0 -1
BITMAP
2000
3FE0
4200
5FE0
D220
5FA0
56A0
56A0
5B60
5220
5060
ENDCHAR
STARTCHAR U+5009
ENCODING 20489
SWIDTH 545 0
DWIDTH 12 0
BBX 11 11 0 -1
BITMAP
0600
0900
1F80
30C0
5FA0
1080
1F80
3000
3FC0
5040
9FC0
ENDCHAR
STARTCHAR U+500B
ENCODING 20491
SWIDTH 545 0
DWIDTH 12 0
BBX 11 11 0 -1
BITMAP
3FE0
3220
57A0
5220
D7A0
54A0
54A0
57A0
5020
5FE0
5020
ENDCHAR
STARTCHAR U+500C
ENCODING 20492
SWIDTH 545 0
DWIDTH 12 0
BBX 11 11 0 -1
BITMAP
2200
3FE0
5020
4F80
C880
4F80
4800
4FC0
4840
4840
4FC0
ENDCHAR
STARTCHAR U+500D
ENCODING 20493
SWIDTH 545 0
DWIDTH 12 0
BBX 11 11 0 -1
BITMAP
2200
3FE0
4480
4480
DFE0
4000
4FC0
4840
4840
4FC0
4840
ENDCHAR
STARTCHAR U+500F
ENCODING 20495
SWIDTH 545 0
DWIDTH 12 0
BBX 11 11 0 -1
BITMAP
2200
23C0
5680
5900
D6C0
5920
5140
5FE0
5280
4440
5820
ENDCHAR
STARTCHAR U+5011
ENCODING 20497
SWIDTH 545 0
DWIDTH 12 0
BBX 11 11 0 -1
BITMAP
2EE0
2AA0
4EE0
4AA0
CEE0
4820
4820
4820
4820
4820
48E0
ENDCHAR
STARTCHAR U+5012
ENCODING 20498
SWIDTH 545 0
DWIDTH 12 0
BBX 11 11 0 -1
BITMAP
3F20
24A0
48A0
4AA0
DFA0
44A0
44A0
5FA0
44A0
4720
5C60
ENDCHAR
STARTCHAR U+5014
ENCODING 20500
SWIDTH 545 0
DWIDTH 12 0
BBX 11 11 0 -1
BITMAP
2FE0
2820
4FE0
4880
CAA0
4AA0
4BE0
4880
4AA0
52A0
53E0
ENDCHAR
STARTCHAR U+5016
ENCODING 20502
SWIDTH 545 0
DWIDTH 12 0
BBX 11 11 0 -1
BITMAP
2200
3FC0
4200
7FE0
C880
4500
7FE0
4200
5FC0
4200
4200
ENDCHAR
STARTCHAR U+5018
ENCODING 20504
SWIDTH 545 0
DWIDTH 12 0
BBX 11 11 0 -1
BITMAP
2200
2A40
4680
5FE0
D020
57A0
54A0
54A0
57A0
5020
50E0
ENDCHAR
STARTCHAR U+5019
ENCODING 20505
SWIDTH 545 0
DWIDTH 12 0
BBX 11 11 0 -1
BITMAP
27C0
2040
5040
5FE0
D400
57E0
5900
57E0
5100
5280
4C60
ENDCHAR
STARTCHAR U+501A
ENCODING 20506
SWIDTH 545 0
DWIDTH 12 0
BBX 11 11 0 -1
BITMAP
2200
3FE0
4500
4880
FFE0
4040
4F40
4940
4F40
4040
40C0
ENDCHAR
STARTCHAR U+501C
ENCODING 20508
SWIDTH 545 0
DWIDTH 12 0
BBX 11 11 0 -1
BITMAP
3FE0
3220
5FE0
5220
DFE0
5020
57A0
54A0
57A0
5020
60E0
ENDCHAR
STARTCHAR U+501F
ENCODING 20511
SWIDTH 545 0
DWIDTH 12 0
BBX 11 11 0 -1
BITMAP
2480
3FE0
4480
5FE0
C000
4FC0
4840
4FC0
4840
4FC0
4840
ENDCHAR
STARTCHAR U+5021
ENCODING 20513
SWIDTH 545 0
DWIDTH 12 0
BBX 11 11 0 -1
BITMAP
2FC0
2840
4FC0
4840
CFC0
4000
5FE0
5020
5FE0
5020
5FE0
ENDCHAR
STARTCHAR U+5023
ENCODING 20515
SWIDTH 545 0
DWIDTH 12 0
BBX 11 11 0 -1
BITMAP
2880
2480
5FE0
4920
CE20
4AA0
4AA0
4A40
4A40
52A0
56A0
ENDCHAR
STARTCHAR U+5025
ENCODING 20517
SWIDTH 545 0
DWIDTH 12 0
BBX 11 11 0 -1
BITMAP
2200
3FE0
5520
4540
C9C0
4000
4FC0
4200
4200
4200
5FE0
ENDCHAR
STARTCHAR U+5026
ENCODING 20518
SWIDTH 545 0
DWIDTH 12 0
BBX 11 11 0 -1
BITMAP
2A80
3FC0
4400
7FE0
C880
5FC0
68A0
4880
4B80
4820
4FE0
ENDCHAR
STARTCHAR U+5028
ENCODING 20520
SWIDTH 545 0
DWIDTH 12 0
BBX 11 11 0 -1
BITMAP
2FE0
2820
4FE0
4880
CFE0
4880
4FE0
4C20
4C20
57E0
5420
ENDCHAR
STARTCHAR U+5029
ENCODING 20521
SWIDTH 545 0
DWIDTH 12 0
BBX 11 11 0 -1
BITMAP
2200
3FC0
4200
5FC0
C200
7FE0
4880
4F80
4880
4F80
5080
ENDCHAR
STARTCHAR U+502A
ENCODING 20522
SWIDTH 545 0
DWIDTH 12 0
BBX 11 11 0 -1
BITMAP
2200
2CE0
4820
4EE0
C820
4FE0
4280
4280
4280
44A0
58E0
ENDCHAR
STARTCHAR U+502B
ENCODING 20523
SWIDTH 545 0
DWIDTH 12 0
BBX 11 11 0 -1
BITMAP
2200
2500
4880
5FC0
E020
5FC0
5540
5FC0
5540
5540
50C0
ENDCHAR
STARTCHAR U+502C
ENCODING 20524
SWIDTH 545 0
DWIDTH 12 0
BBX 11 11 0 -1
BITMAP
2380
2200
5FC0
5040
DFC0
5040
5FC0
4200
7FE0
4200
4200
ENDCHAR
STARTCHAR U+502D
ENCODING 20525
SWIDTH 545 0
DWIDTH 12 0
BBX 11 11 0 -1
BITMAP
2FE0
2100
5FE0
4580
D960
4200
5FE0
4480
4480
4300
5CE0
ENDCHAR
STARTCHAR U+502E
ENCODING 20526
SWIDTH 545 0
DWIDTH 12 0
BBX 11 11 0 -1
BITMAP
3FC0
3240
5FC0
5240
DFC0
4200
7FE0
4700
4A80
5240
4200
ENDCHAR
STARTCHAR U+503A
ENCODING 20538
SWIDTH 545 0
DWIDTH 12 0
BBX 11 11 0 -1
BITMAP
2200
3FC0
4200
5FC0
C200
7FE0
5040
5240
5240
4500
58C0
ENDCHAR
STARTCHAR U+503C
ENCODING 20540
SWIDTH 545 0
DWIDTH 12 0
BBX 11 11 0 -1
BITMAP
2200
3FE0
4200
5FC0
D040
5FC0
5040
5FC0
5040
5040
7FE0
ENDCHAR
STARTCHAR U+503E
ENCODING 20542
SWIDTH 545 0
DWIDTH 12 0
BBX 11 11 0 -1
BITMAP
23E0
3080
53E0
5E20
D2A0
52A0
56A0
5AA0
5080
4140
4620
ENDCHAR
STARTCHAR U+5043
ENCODING 20547
SWIDTH 545 0
DWIDTH 12 0
BBX 11 11 0 -1
BITMAP
3FE0
3440
57C0
5440
D7C0
5100
5FE0
5440
5380
5440
5FE0
ENDCHAR
STARTCHAR U+5047
ENCODING 20551
SWIDTH 545 0
DWIDTH 12 0
BBX 11 11 0 -1
BITMAP
2EE0
2A20
4A20
4EE0
C800
4EE0
48A0
4EA0
4840
48A0
48A0
ENDCHAR
STARTCHAR U+5048
ENCODING 20552
SWIDTH 545 0
DWIDTH 12 0
BBX 11 11 0 -1
BITMAP
2FC0
2840
4FC0
4840
CFC0
4400
4FE0
5920
4AA0
4F20
40C0
ENDCHAR
STARTCHAR U+5049
ENCODING 20553
SWIDTH 545 0
DWIDTH 12 0
BBX 11 11 0 -1
BITMAP
2200
2FC0
4240
5FE0
C840
4FC0
4100
5FE0
4900
4FE0
4100
ENDCHAR
STARTCHAR U+504C
ENCODING 20556
SWIDTH 545 0
DWIDTH 12 0
BBX 11 11 0 -1
BITMAP
2880
3DE0
4880
4200
DFE0
4800
5FC0
6840
4840
4FC0
4840
ENDCHAR
STARTCHAR U+504E
ENCODING 20558
SWIDTH 545 0
DWIDTH 12 0
BBX 11 11 0 -1
BITMAP
2FC0
2A40
4FC0
4A40
CFC0
4000
5FC0
4A20
4940
4880
4E60
ENDCHAR
STARTCHAR U+504F
ENCODING 20559
SWIDTH 545 0
DWIDTH 12 0
BBX 11 11 0 -1
BITMAP
2100
2FE0
4820
4FE0
C800
4FE0
4AA0
4FE0
4AA0
4AA0
5060
ENDCHAR
STARTCHAR U+5055
ENCODING 20565
SWIDTH 545 0
DWIDTH 12 0
BBX 11 11 0 -1
BITMAP
2880
2EE0
4880
4AA0
CCE0
4200
4FE0
4820
4FE0
4820
4FE0
ENDCHAR
STARTCHAR U+505A
ENCODING 20570
SWIDTH 545 0
DWIDTH 12 0
BBX 11 11 0 -1
BITMAP
2900
29E0
5D40
4940
CA40
5D40
5540
5480
5480
5D40
4220
ENDCHAR
STARTCHAR U+505C
ENCODING 20572
SWIDTH 545 0
DWIDTH 12 0
BBX 11 11 0 -1
BITMAP
2200
3FE0
4840
4FC0
C000
5FE0
5020
4FC0
4100
4100
4700
ENDCHAR
STARTCHAR U+5065
ENCODING 20581
SWIDTH 545 0
DWIDTH 12 0
BBX 11 11 0 -1
BITMAP
2080
23E0
58A0
4BE0
C8A0
53E0
4880
4BE0
4880
5480
63E0
ENDCHAR
STARTCHAR U+506C
ENCODING 20588
SWIDTH 545 0
DWIDTH 12 0
BBX 11 11 0 -1
BITMAP
2400
2FE0
54A0
4CA0
CB20
52A0
6440
4200
4940
58A0
6F80
ENDCHAR
STARTCHAR U+506D
ENCODING 20589
SWIDTH 545 0
DWIDTH 12 0
BBX 11 11 0 -1
BITMAP
3FE0
2200
5FE0
54A0
D7A0
54A0
57A0
54A0
54A0
5FE0
5020
ENDCHAR
STARTCHAR U+506F
ENCODING 20591
SWIDTH 545 0
DWIDTH 12 0
BBX 11 11 0 -1
BITMAP
2100
3FE0
4840
4840
CFC0
4520
4940
5880
6880
4A40
4C20
ENDCHAR
STARTCHAR U+5074
ENCODING 20596
SWIDTH 545 0
DWIDTH 12 0
BBX 11 11 0 -1
BITMAP
3E20
32A0
52A0
5EA0
D2A0
52A0
5EA0
52A0
5EA0
4A20
5160
ENDCHAR
STARTCHAR U+5075
ENCODING 20597
SWIDTH 545 0
DWIDTH 12 0
BBX 11 11 0 -1
BITMAP
23C0
2200
4FC0
4840
CFC0
4840
4FC0
4840
4FC0
4480
5860
ENDCHAR
STARTCHAR U+5076
ENCODING 20598
SWIDTH 545 0
DWIDTH 12 0
BBX 11 11 0 -1
BITMAP
2FC0
2A40
4FC0
4A40
CFC0
4200
5FE0
52A0
57A0
5020
5060
ENDCHAR
STARTCHAR U+5077
ENCODING 20599
SWIDTH 545 0
DWIDTH 12 0
BBX 11 11 0 -1
BITMAP
2200
2500
4880
5740
E020
5D40
5540
5D40
5540
5D40
54C0
ENDCHAR
STARTCHAR U+507A
ENCODING 20602
SWIDTH 545 0
DWIDTH 12 0
BBX 11 11 0 -1
BITMAP
2200
3FE0
4840
4FC0
C000
5FE0
5020
4FC0
4100
4100
4700
ENDCHAR
STARTCHAR U+507B
ENCODING 20603
SWIDTH 545 0
DWIDTH 12 0
BBX 11 11 0 -1
BITMAP
2540
2100
4FE0
4540
C920
4200
5FE0
4480
4480
4300
5CE0
ENDCHAR
STARTCHAR U+507D
ENCODING 20605
SWIDTH 545 0
DWIDTH 12 0
BBX 11 11 0 -1
BITMAP
2500
2F80
4480
4FC0
C840
5FE0
6020
42A0
5560
6220
40E0
ENDCHAR
STARTCHAR U+507E
ENCODING 20606
SWIDTH 545 0
DWIDTH 12 0
BBX 11 11 0 -1
BITMAP
2100
2FE0
4540
4FE0
C440
4FE0
4820
4920
4920
4280
5C60
ENDCHAR
STARTCHAR U+507F
ENCODING 20607
SWIDTH 545 0
DWIDTH 12 0
BBX 11 11 0 -1
BITMAP
2940
2580
5FE0
5020
CFC0
4000
5FE0
4200
4480
4840
5FA0
ENDCHAR
STARTCHAR U+5080
ENCODING 20608
SWIDTH 545 0
DWIDTH 12 0
BBX 11 11 0 -1
BITMAP
2400
3FC0
5240
5FC0
D240
5FC0
4540
45A0
45C0
4920
51E0
ENDCHAR
STARTCHAR U+5085
ENCODING 20613
SWIDTH 545 0
DWIDTH 12 0
BBX 11 11 0 -1
BITMAP
2140
3FE0
4920
4FE0
C920
4FE0
4940
5FE0
4840
4440
40C0
ENDCHAR
STARTCHAR U+5088
ENCODING 20616
SWIDTH 545 0
DWIDTH 12 0
BBX 11 11 0 -1
BITMAP
2FE0
2280
4FE0
4AA0
CFE0
4100
4FE0
4100
4540
4920
4100
ENDCHAR
STARTCHAR U+508D
ENCODING 20621
SWIDTH 545 0
DWIDTH 12 0
BBX 11 11 0 -1
BITMAP
2200
3FE0
4480
5FE0
D220
4FC0
4200
47C0
4440
4840
51C0
ENDCHAR
STARTCHAR U+5091
ENCODING 20625
SWIDTH 545 0
DWIDTH 12 0
BBX 11 11 0 -1
BITMAP
2840
2DE0
5540
4DE0
C440
4900
5FE0
4100
4540
4920
5100
ENDCHAR
STARTCHAR U+5096
ENCODING 20630
SWIDTH 545 0
DWIDTH 12 0
BBX 11 11 0 -1
BITMAP
2300
2680
4940
5FE0
C840
4FC0
4840
4FE0
4C20
5420
57E0
ENDCHAR
STARTCHAR U+5098
ENCODING 20632
SWIDTH 545 0
DWIDTH 12 0
BBX 11 11 0 -1
BITMAP
0400
0A00
3180
C460
2480
5540
2480
5540
0400
FFE0
0400
ENDCHAR
STARTCHAR U+5099
ENCODING 20633
SWIDTH 545 0
DWIDTH 12 0
BBX 11 11 0 -1
BITMAP
2480
3FE0
4480
5FE0
C920
5FE0
6920
4FE0
4920
4920
50E0
ENDCHAR
STARTCHAR U+509A
ENCODING 20634
SWIDTH 545 0
DWIDTH 12 0
BBX 11 11 0 -1
BITMAP
2880
2480
5FE0
4AA0
D120
42A0
4AA0
4440
4440
4AA0
51A0
ENDCHAR
STARTCHAR U+50A2
ENCODING 20642
SWIDTH 545 0
DWIDTH 12 0
BBX 11 11 0 -1
BITMAP
2200
3FE0
5020
4FC0
C920
5240
4D80
5340
4D20
5100
4700
ENDCHAR
STARTCHAR U+50A3
ENCODING 20643
SWIDTH 545 0
DWIDTH 12 0
BBX 11 11 0 -1
BITMAP
2200
3FC0
4200
5FC0
C400
7FE0
5240
6AA0
4700
4A80
5640
ENDCHAR
STARTCHAR U+50A5
ENCODING 20645
SWIDTH 545 0
DWIDTH 12 0
BBX 11 11 0 -1
BITMAP
2A40
2680
5FE0
5020
CFC0
4840
4FC0
4500
4520
4920
50E0
ENDCHAR
STARTCHAR U+50A7
ENCODING 20647
SWIDTH 545 0
DWIDTH 12 0
BBX 11 11 0 -1
BITMAP
2200
3FE0
5020
4FC0
C800
4FE0
4880
4880
7FE0
4880
5060
ENDCHAR
STARTCHAR U+50A8
ENCODING 20648
SWIDTH 545 0
DWIDTH 12 0
BBX 11 11 0 -1
BITMAP
2120
27C0
5140
57E0
C100
73C0
5640
53C0
5A40
5240
43C0
ENDCHAR
STARTCHAR U+50A9
ENCODING 20649
SWIDTH 545 0
DWIDTH 12 0
BBX 11 11 0 -1
BITMAP
2080
3D40
45E0
5740
D540
49E0
4940
55E0
5340
6140
41E0
ENDCHAR
STARTCHAR U+50AC
ENCODING 20652
SWIDTH 545 0
DWIDTH 12 0
BBX 11 11 0 -1
BITMAP
2100
2920
4FE0
4480
CFE0
5880
6FE0
4880
4FE0
4880
4FE0
ENDCHAR
STARTCHAR U+50AD
ENCODING 20653
SWIDTH 545 0
DWIDTH 12 0
BBX 11 11 0 -1
BITMAP
2100
3FE0
5140
5FE0
D140
5FC0
5540
57C0
5540
57C0
6940
ENDCHAR
STARTCHAR U+50AF
ENCODING 20655
SWIDTH 545 0
DWIDTH 12 0
BBX 11 11 0 -1
BITMAP
2200
3FC0
5540
5240
D540
5FC0
4200
4940
5920
6840
47C0
ENDCHAR
STARTCHAR U+50B2
ENCODING 20658
SWIDTH 545 0
DWIDTH 12 0
BBX 11 11 0 -1
BITMAP
2480
3E80
44E0
5EA0
C520
5EA0
48A0
4E40
4A40
4AA0
56A0
ENDCHAR
STARTCHAR U+50B3
ENCODING 20659
SWIDTH 545 0
DWIDTH 12 0
BBX 11 11 0 -1
BITMAP
2200
3FE0
4940
4FC0
C940
5FE0
4140
5FE0
4840
4440
41C0
ENDCHAR
STARTCHAR U+50B5
ENCODING 20661
SWIDTH 545 0
DWIDTH 12 0
BBX 11 11 0 -1
BITMAP
2200
3FE0
4200
5FE0
C200
5FE0
4840
4FC0
4840
4FC0
5020
ENDCHAR
STARTCHAR U+50B7
ENCODING 20663
SWIDTH 545 0
DWIDTH 12 0
BBX 11 11 0 -1
BITMAP
2400
3FE0
4840
4FC0
C840
5FE0
4800
5FE0
4AA0
5520
42E0
ENDCHAR
STARTCHAR U+50BA
ENCODING 20666
SWIDTH 545 0
DWIDTH 12 0
BBX 11 11 0 -1
BITMAP
2800
2EE0
52A0
6A40
D420
4FC0
7000
5FE0
4940
4920
5720
ENDCHAR
STARTCHAR U+50BB
ENCODING 20667
SWIDTH 545 0
DWIDTH 12 0
BBX 11 11 0 -1
BITMAP
2200
3FC0
5540
5240
DFC0
4A80
7760
4C80
5480
4300
5CE0
ENDCHAR
STARTCHAR U+50BE
ENCODING 20670
SWIDTH 545 0
DWIDTH 12 0
BBX 11 11 0 -1
BITMAP
23E0
3080
53E0
5E20
D3E0
5220
57E0
5A20
53E0
4140
4620
ENDCHAR
STARTCHAR U+50C5
ENCODING 20677
SWIDTH 545 0
DWIDTH 12 0
BBX 11 11 0 -1
BITMAP
2880
3FE0
4880
5FE0
D220
5FE0
4200
5FE0
4200
4200
5FE0
ENDCHAR
STARTCHAR U+50C7
ENCODING 20679
SWIDTH 545 0
DWIDTH 12 0
BBX 11 11 0 -1
BITMAP
2EE0
2AA0
4660
4AA0
C480
4960
4280
4D20
4240
4180
4E00
ENDCHAR
STARTCHAR U+50CE
ENCODING 20686
SWIDTH 545 0
DWIDTH 12 0
BBX 11 11 0 -1
BITMAP
2EE0
2AA0
4EE0
4880
CFE0
4280
4FE0
4280
4FE0
4440
4820
ENDCHAR
STARTCHAR U+50CF
ENCODING 20687
SWIDTH 545 0
DWIDTH 12 0
BBX 11 11 0 -1
BITMAP
2780
2880
5FE0
4920
CFE0
4500
5AA0
45C0
5A80
44C0
5BA0
ENDCHAR
STARTCHAR U+50D1
ENCODING 20689
SWIDTH 545 0
DWIDTH 12 0
BBX 11 11 0 -1
BITMAP
2FC0
2200
5FE0
4CC0
D7A0
4000
5FE0
5020
57A0
54A0
57E0
ENDCHAR
STARTCHAR U+50D5
ENCODING 20693
SWIDTH 545 0
DWIDTH 12 0
BBX 11 11 0 -1
BITMAP
2AA0
2280
4FE0
4440
CFE0
4100
4FE0
4100
4FE0
4280
4C60
ENDCHAR
STARTCHAR U+50D6
ENCODING 20694
SWIDTH 545 0
DWIDTH 12 0
BBX 11 11 0 -1
BITMAP
2200
3FE0
4840
4FC0
C480
5FE0
4000
4FC0
4840
4FC0
4840
ENDCHAR
STARTCHAR U+50DA
ENCODING 20698
SWIDTH 545 0
DWIDTH 12 0
BBX 11 11 0 -1
BITMAP
2200
3FE0
54A0
4FC0
D860
6FC0
4840
4FC0
4100
4940
5320
ENDCHAR
STARTCHAR U+50E5
ENCODING 20709
SWIDTH 545 0
DWIDTH 12 0
BBX 11 11 0 -1
BITMAP
2200
3FE0
4200
5FC0
CA80
5FC0
4A80
5FE0
4500
4520
58E0
ENDCHAR
STARTCHAR U+50E6
ENCODING 20710
SWIDTH 545 0
DWIDTH 12 0
BBX 11 11 0 -1
BITMAP
2940
3D00
43E0
5D00
D580
5D80
4980
5D80
6AA0
4AA0
5C60
ENDCHAR
STARTCHAR U+50E7
ENCODING 20711
SWIDTH 545 0
DWIDTH 12 0
BBX 11 11 0 -1
BITMAP
2480
3FE0
5120
5FE0
D120
5FE0
4840
4FC0
4840
4FC0
4840
ENDCHAR
STARTCHAR U+50E9
ENCODING 20713
SWIDTH 545 0
DWIDTH 12 0
BBX 11 11 0 -1
BITMAP
2EE0
2AA0
4EE0
4AA0
CFE0
4AA0
4BA0
4AA0
4BA0
4AA0
4CE0
ENDCHAR
STARTCHAR U+50EC
ENCODING 20716
SWIDTH 545 0
DWIDTH 12 0
BBX 11 11 0 -1
BITMAP
2500
2FE0
5900
6FC0
C900
4FC0
4900
4FE0
4540
52A0
52A0
ENDCHAR
STARTCHAR U+50ED
ENCODING 20717
SWIDTH 545 0
DWIDTH 12 0
BBX 11 11 0 -1
BITMAP
3FE0
3540
5FE0
4CC0
D760
4000
4FC0
4840
4FC0
4840
4FC0
ENDCHAR
STARTCHAR U+50EE
ENCODING 20718
SWIDTH 545 0
DWIDTH 12 0
BBX 11 11 0 -1
BITMAP
2100
2FE0
4440
4FE0
C920
4FE0
4920
4920
4FE0
4100
4FE0
ENDCHAR
STARTCHAR U+50F1
ENCODING 20721
SWIDTH 545 0
DWIDTH 12 0
BBX 11 11 0 -1
BITMAP
2FE0
2800
4FE0
4820
CFE0
4A80
4FE0
4A80
4BE0
5280
53E0
ENDCHAR
STARTCHAR U+50F3
ENCODING 20723
SWIDTH 545 0
DWIDTH 12 0
BBX 11 11 0 -1
BITMAP
2FE0
2280
4FE0
4AA0
CAA0
4FE0
4540
5FE0
4100
4540
4920
ENDCHAR
STARTCHAR U+50F5
ENCODING 20725
SWIDTH 545 0
DWIDTH 12 0
BBX 11 11 0 -1
BITMAP
3FC0
2000
5FC0
5240
DFC0
5240
7FE0
5240
5FC0
5240
7FE0
ENDCHAR
STARTCHAR U+50F9
ENCODING 20729
SWIDTH 545 0
DWIDTH 12 0
BBX 11 11 0 -1
BITMAP
2FE0
2280
4FE0
4AA0
CFE0
4440
47C0
4440
47C0
4280
4C60
ENDCHAR
STARTCHAR U+50FB
ENCODING 20731
SWIDTH 545 0
DWIDTH 12 0
BBX 11 11 0 -1
BITMAP
3C80
37E0
5540
5D40
D3E0
5C80
5480
77E0
5480
5C80
5480
ENDCHAR
STARTCHAR U+5100
ENCODING 20736
SWIDTH 545 0
DWIDTH 12 0
BBX 11 11 0 -1
BITMAP
2440
2FE0
4100
4FE0
C100
5FE0
4540
5FE0
4540
5C80
4560
ENDCHAR
STARTCHAR U+5102
ENCODING 20738
SWIDTH 545 0
DWIDTH 12 0
BBX 11 11 0 -1
BITMAP
2500
3FC0
5540
5FC0
D540
5FC0
5000
5FE0
5540
5480
6660
ENDCHAR
STARTCHAR U+5104
ENCODING 20740
SWIDTH 545 0
DWIDTH 12 0
BBX 11 11 0 -1
BITMAP
2200
3FE0
4880
5FE0
D040
5FC0
5040
5FC0
4A40
5920
67C0
ENDCHAR
STARTCHAR U+5105
ENCODING 20741
SWIDTH 545 0
DWIDTH 12 0
BBX 11 11 0 -1
BITMAP
2A80
3FE0
5020
4FC0
C840
5FE0
5220
5FE0
5220
5FE0
5020
ENDCHAR
STARTCHAR U+5106
ENCODING 20742
SWIDTH 545 0
DWIDTH 12 0
BBX 11 11 0 -1
BITMAP
2A80
3F80
4AE0
50A0
DF20
62A0
5EA0
5240
5E40
42A0
46A0
ENDCHAR
STARTCHAR U+5107
ENCODING 20743
SWIDTH 545 0
DWIDTH 12 0
BBX 11 11 0 -1
BITMAP
2FE0
2AA0
4FE0
4000
DFE0
4820
4FE0
4500
5CA0
4440
4620
ENDCHAR
STARTCHAR U+5108
ENCODING 20744
SWIDTH 545 0
DWIDTH 12 0
BBX 11 11 0 -1
BITMAP
8200
4500
0F80
B060
5FC0
1540
5FC0
4880
8F80
8880
8F80
ENDCHAR
STARTCHAR U+5109
ENCODING 20745
SWIDTH 545 0
DWIDTH 12 0
BBX 11 11 0 -1
BITMAP
8200
4500
0F80
B060
5DC0
1540
5DC0
4880
8880
9540
A220
ENDCHAR
STARTCHAR U+510B
ENCODING 20747
SWIDTH 545 0
DWIDTH 12 0
BBX 11 11 0 -1
BITMAP
2780
2900
5FE0
7540
DFE0
5000
57C0
5000
57C0
5440
67C0
ENDCHAR
STARTCHAR U+5110
ENCODING 20752
SWIDTH 545 0
DWIDTH 12 0
BBX 11 11 0 -1
BITMAP
2200
3FE0
5020
4FC0
D280
47C0
5840
4FC0
4840
4FC0
5860
ENDCHAR
STARTCHAR U+5112
ENCODING 20754
SWIDTH 545 0
DWIDTH 12 0
BBX 11 11 0 -1
BITMAP
3FE0
2200
5FE0
5220
CDC0
4000
5FE0
4200
5FE0
54A0
54A0
ENDCHAR
STARTCHAR U+5114
ENCODING 20756
SWIDTH 545 0
DWIDTH 12 0
BBX 11 11 0 -1
BITMAP
2200
3FE0
4200
5FE0
E020
5FC0
4240
7FE0
5640
5D40
40C0
ENDCHAR
STARTCHAR U+5115
ENCODING 20757
SWIDTH 545 0
DWIDTH 12 0
BBX 11 11 0 -1
BITMAP
2200
3FE0
4500
5FE0
D540
6920
4FC0
4840
4FC0
4840
5040
ENDCHAR
STARTCHAR U+5118
ENCODING 20760
SWIDTH 545 0
DWIDTH 12 0
BBX 11 11 0 -1
BITMAP
2200
3FC0
4240
7FE0
C240
5FE0
5540
6AA0
5FC0
5540
7FE0
ENDCHAR
STARTCHAR U+5121
ENCODING 20769
SWIDTH 545 0
DWIDTH 12 0
BBX 11 11 0 -1
BITMAP
2FC0
2A40
4FC0
4A40
CFC0
4000
5FE0
5520
5FE0
5520
5FE0
ENDCHAR
STARTCHAR U+513F
ENCODING 20799
SWIDTH 545 0
DWIDTH 12 0
BBX 11 11 0 -1
BITMAP
1100
1100
1100
1100
1100
1100
1100
2100
2120
4120
80E0
ENDCHAR
STARTCHAR U+5140
ENCODING 20800
SWIDTH 545 0
DWIDTH 12 0
BBX 11 11 0 -1
BITMAP
FFE0
1100
1100
1100
1100
1100
1100
2100
2120
4120
80E0
ENDCHAR
STARTCHAR U+5141
ENCODING 20801
SWIDTH 545 0
DWIDTH 12 0
BBX 11 11 0 -1
BITMAP
0800
0800
1100
2080
7F40
1200
1200
1200
1220
2220
C1E0
ENDCHAR
STARTCHAR U+5143
ENCODING 20803
SWIDTH 545 0
DWIDTH 12 0
BBX 11 11 0 -1
BITMAP
7FC0
0000
0000
FFE0
1200
1200
1200
1200
1220
2220
C1E0
ENDCHAR
STARTCHAR U+5144
ENCODING 20804
SWIDTH 545 0
DWIDTH 12 0
BBX 11 11 0 -1
BITMAP
7F80
4080
4080
4080
7F80
1200
1200
1200
1220
2220
C1E0
ENDCHAR
STARTCHAR U+5145
ENCODING 20805
SWIDTH 545 0
DWIDTH 12 0
BBX 11 11 0 -1
BITMAP
0400
FFE0
1000
1100
2080
7F40
1200
1200
1220
2220
C1E0
ENDCHAR
STARTCHAR U+5146
ENCODING 20806
SWIDTH 545 0
DWIDTH 12 0
BBX 11 11 0 -1
BITMAP
1200
9220
5240
3280
1300
3280
5240
9200
1220
2220
C1E0
ENDCHAR
STARTCHAR U+5147
ENCODING 20807
SWIDTH 545 0
DWIDTH 12 0
BBX 11 11 0 -1
BITMAP
5140
4A40
4440
4A40
5140
7FC0
1200
1200
1220
2220
C1E0
ENDCHAR
STARTCHAR U+5148
ENCODING 20808
SWIDTH 545 0
DWIDTH 12 0
BBX 11 11 0 -1
BITMAP
0400
2400
3FC0
4400
0400
FFE0
0900
0900
0920
1120
E0E0
ENDCHAR
STARTCHAR U+5149
ENCODING 20809
SWIDTH 545 0
DWIDTH 12 0
BBX 11 11 0 -1
BITMAP
0400
4440
2480
0400
FFE0
1200
1200
1200
1220
2220
C1E0
ENDCHAR
STARTCHAR U+514B
ENCODING 20811
SWIDTH 545 0
DWIDTH 12 0
BBX 11 11 0 -1
BITMAP
0400
FFE0
0400
3F80
2080
2080
3F80
1200
1220
2220
C1E0
ENDCHAR
STARTCHAR U+514C
ENCODING 20812
SWIDTH 545 0
DWIDTH 12 0
BBX 11 11 0 -1
BITMAP
0A00
1100
2080
FFC0
20A0
2080
3F80
1200
1220
2220
C1E0
ENDCHAR
STARTCHAR U+514D
ENCODING 20813
SWIDTH 545 0
DWIDTH 12 0
BBX 11 11 0 -1
BITMAP
1000
3F00
4200
FFC0
4440
4440
7FC0
0A00
0A20
1220
E1E0
ENDCHAR
STARTCHAR U+5151
ENCODING 20817
SWIDTH 545 0
DWIDTH 12 0
BBX 11 11 0 -1
BITMAP
1100
0A00
3FC0
2040
2040
3FC0
0A00
0A00
0A20
1220
E1E0
ENDCHAR
STARTCHAR U+5152
ENCODING 20818
SWIDTH 545 0
DWIDTH 12 0
BBX 11 11 0 -1
BITMAP
1800
E3C0
8040
F3C0
8040
FFC0
1200
1200
1220
2220
C1E0
ENDCHAR
STARTCHAR U+5154
ENCODING 20820
SWIDTH 545 0
DWIDTH 12 0
BBX 11 11 0 -1
BITMAP
1000
3F00
4200
FFC0
4440
4440
7FC0
0B00
0AA0
1220
E1E0
ENDCHAR
STARTCHAR U+5155
ENCODING 20821
SWIDTH 545 0
DWIDTH 12 0
BBX 11 11 0 -1
BITMAP
F3C0
9240
9E40
8040
8040
FFC0
1200
1200
1220
2220
C1E0
ENDCHAR
STARTCHAR U+5156
ENCODING 20822
SWIDTH 545 0
DWIDTH 12 0
BBX 11 11 0 -1
BITMAP
0400
FFE0
2080
4A40
9120
3F80
1200
1200
1220
2220
C1E0
ENDCHAR
STARTCHAR U+5157
ENCODING 20823
SWIDTH 545 0
DWIDTH 12 0
BBX 11 11 0 -1
BITMAP
0400
FFE0
1100
3F80
60C0
2080
3F80
0A00
1220
2220
C1E0
ENDCHAR
STARTCHAR U+5159
ENCODING 20825
SWIDTH 545 0
DWIDTH 12 0
BBX 11 11 0 -1
BITMAP
2100
F900
2100
FFE0
8900
F900
5100
5100
5120
5020
8FE0
ENDCHAR
STARTCHAR U+515A
ENCODING 20826
SWIDTH 545 0
DWIDTH 12 0
BBX 11 11 0 -1
BITMAP
4440
FFE0
8020
3F80
2080
2080
3F80
0A00
0A20
1220
E1E0
ENDCHAR
STARTCHAR U+515B
ENCODING 20827
SWIDTH 545 0
DWIDTH 12 0
BBX 11 11 0 -1
BITMAP
27C0
F900
2100
FFE0
8900
F900
5100
5100
5120
5020
8FE0
ENDCHAR
STARTCHAR U+515C
ENCODING 20828
SWIDTH 545 0
DWIDTH 12 0
BBX 11 11 0 -1
BITMAP
2800
DEE0
9220
9E20
9220
DEE0
0000
1200
1220
2220
C1E0
ENDCHAR
STARTCHAR U+515D
ENCODING 20829
SWIDTH 545 0
DWIDTH 12 0
BBX 11 11 0 -1
BITMAP
2280
FA80
2460
F800
8FC0
FA40
5240
5240
54E0
5020
8FE0
ENDCHAR
STARTCHAR U+515E
ENCODING 20830
SWIDTH 545 0
DWIDTH 12 0
BBX 11 11 0 -1
BITMAP
27C0
F900
21C0
FF00
89C0
FF00
5140
51C0
5020
5020
8FE0
ENDCHAR
STARTCHAR U+5161
ENCODING 20833
SWIDTH 545 0
DWIDTH 12 0
BBX 11 11 0 -1
BITMAP
27C0
F900
27C0
FC40
8C40
FFC0
5440
5440
57E0
5020
8FE0
ENDCHAR
STARTCHAR U+5162
ENCODING 20834
SWIDTH 545 0
DWIDTH 12 0
BBX 11 11 0 -1
BITMAP
2100
F7C0
2100
F7C0
9440
9440
F7C0
5280
52A0
5AA0
9460
ENDCHAR
STARTCHAR U+5163
ENCODING 20835
SWIDTH 545 0
DWIDTH 12 0
BBX 11 11 0 -1
BITMAP
27E0
FD40
27C0
FD40
8FC0
FD00
57C0
5520
5BE0
5020
8FE0
ENDCHAR
STARTCHAR U+5165
ENCODING 20837
SWIDTH 545 0
DWIDTH 12 0
BBX 11 11 0 -1
BITMAP
1C00
0400
0400
0400
0A00
0A00
1100
1100
2080
4040
8020
ENDCHAR
STARTCHAR U+5167
ENCODING 20839
SWIDTH 545 0
DWIDTH 12 0
BBX 9 11 1 -1
BITMAP
3800
0800
FF80
8880
8880
9480
A280
C180
8080
8080
8180
ENDCHAR
STARTCHAR U+5168
ENCODING 20840
SWIDTH 545 0
DWIDTH 12 0
BBX 11 11 0 -1
BITMAP
0E00
1100
2080
4040
BFA0
0400
0400
3F80
0400
0400
7FC0
ENDCHAR
STARTCHAR U+5169
ENCODING 20841
SWIDTH 545 0
DWIDTH 12 0
BBX 11 11 0 -1
BITMAP
7FC0
0400
FFE0
8420
B5A0
94A0
94A0
AD60
C620
8420
80E0
ENDCHAR
STARTCHAR U+516B
ENCODING 20843
SWIDTH 545 0
DWIDTH 12 0
BBX 11 11 0 -1
BITMAP
0300
1100
1100
1100
1100
1100
1100
2080
2080
4040
8020
ENDCHAR
STARTCHAR U+516C
ENCODING 20844
SWIDTH 545 0
DWIDTH 12 0
BBX 11 11 0 -1
BITMAP
0300
2100
2100
2080
4880
4840
8820
1100
1080
2080
7F40
ENDCHAR
STARTCHAR U+516D
ENCODING 20845
SWIDTH 545 0
DWIDTH 12 0
BBX 11 11 0 -1
BITMAP
0800
0400
FFE0
0000
0000
2080
2080
2080
4040
4040
8020
ENDCHAR
STARTCHAR U+516E
ENCODING 20846
SWIDTH 545 0
DWIDTH 12 0
BBX 11 11 0 -1
BITMAP
2300
2080
4040
7FC0
9020
1000
3F80
0080
0080
0080
0380
ENDCHAR
STARTCHAR U+5170
ENCODING 20848
SWIDTH 545 0
DWIDTH 12 0
BBX 11 11 0 -1
BITMAP
2080
1100
7FC0
0000
0000
0000
3F80
0000
0000
0000
FFE0
ENDCHAR
STARTCHAR U+5171
ENCODING 20849
SWIDTH 545 0
DWIDTH 12 0
BBX 11 11 0 -1
BITMAP
1100
1100
7FC0
1100
1100
1100
FFE0
0000
1100
2080
4040
ENDCHAR
STARTCHAR U+5173
ENCODING 20851
SWIDTH 545 0
DWIDTH 12 0
BBX 11 11 0 -1
BITMAP
2080
1100
7FC0
0400
0400
FFE0
0400
0A00
0A00
1100
E0E0
ENDCHAR
STARTCHAR U+5174
ENCODING 20852
SWIDTH 545 0
DWIDTH 12 0
BBX 11 11 0 -1
BITMAP
1080
5080
4880
2900
2100
0000
FFE0
0000
2080
4040
8020
ENDCHAR
STARTCHAR U+5175
ENCODING 20853
SWIDTH 545 0
DWIDTH 12 0
BBX 11 11 0 -1
BITMAP
0180
3E00
2000
3FC0
2100
2100
2100
FFE0
1100
2080
C060
ENDCHAR
STARTCHAR U+5176
ENCODING 20854
SWIDTH 545 0
DWIDTH 12 0
BBX 11 11 0 -1
BITMAP
1100
FFE0
1100
1F00
1100
1F00
1100
FFE0
1100
2080
C060
ENDCHAR
STARTCHAR U+5177
ENCODING 20855
SWIDTH 545 0
DWIDTH 12 0
BBX 11 11 0 -1
BITMAP
3F80
2080
3F80
2080
3F80
2080
3F80
2080
FFE0
1100
E0E0
ENDCHAR
STARTCHAR U+5178
ENCODING 20856
SWIDTH 545 0
DWIDTH 12 0
BBX 11 12 0 -1
BITMAP
0A00
0A00
7FC0
4A40
4A40
7FC0
4A40
4A40
FFE0
1100
2080
C060
ENDCHAR
STARTCHAR U+5179
ENCODING 20857
SWIDTH 545 0
DWIDTH 12 0
BBX 11 11 0 -1
BITMAP
1080
0900
FFE0
1080
1080
2520
7BC0
1080
2100
4A40
77A0
ENDCHAR
STARTCHAR U+517B
ENCODING 20859
SWIDTH 545 0
DWIDTH 12 0
BBX 11 11 0 -1
BITMAP
1100
7FC0
0400
3F80
0800
FFE0
2080
D160
1100
2100
4100
ENDCHAR
STARTCHAR U+517C
ENCODING 20860
SWIDTH 545 0
DWIDTH 12 0
BBX 11 11 0 -1
BITMAP
1100
FFE0
0A00
7FC0
0A40
FFE0
0A40
7FC0
2A80
4A40
8A20
ENDCHAR
STARTCHAR U+517D
ENCODING 20861
SWIDTH 545 0
DWIDTH 12 0
BBX 11 11 0 -1
BITMAP
1100
7FC0
4440
7FC0
4440
7FC0
0000
FFE0
2080
2080
3F80
ENDCHAR
STARTCHAR U+5180
ENCODING 20864
SWIDTH 545 0
DWIDTH 12 0
BBX 11 11 0 -1
BITMAP
0A60
FB80
0A20
FFE0
2480
3F80
2480
7FC0
1100
FFE0
2080
ENDCHAR
STARTCHAR U+5181
ENCODING 20865
SWIDTH 545 0
DWIDTH 12 0
BBX 11 11 0 -1
BITMAP
5FC0
2840
FFC0
AA80
FFC0
AA80
FFC0
2D20
FD40
2C80
3660
ENDCHAR
STARTCHAR U+5182
ENCODING 20866
SWIDTH 545 0
DWIDTH 12 0
BBX 10 11 1 -1
BITMAP
FFC0
8040
8040
8040
8040
8040
8040
8040
8040
8040
81C0
ENDCHAR
STARTCHAR U+5185
ENCODING 20869
SWIDTH 545 0
DWIDTH 12 0
BBX 11 11 0 -1
BITMAP
0400
0400
FFE0
8420
8420
8A20
9120
A0A0
8020
8020
80E0
ENDCHAR
STARTCHAR U+5188
ENCODING 20872
SWIDTH 545 0
DWIDTH 12 0
BBX 10 11 1 -1
BITMAP
FFC0
8040
A240
9440
8840
8840
9440
A240
8040
8040
81C0
ENDCHAR
STARTCHAR U+5189
ENCODING 20873
SWIDTH 545 0
DWIDTH 12 0
BBX 11 11 0 -1
BITMAP
0400
7FC0
4440
4440
7FC0
4440
4440
FFE0
4040
4040
41C0
ENDCHAR
STARTCHAR U+518A
ENCODING 20874
SWIDTH 545 0
DWIDTH 12 0
BBX 11 11 0 -1
BITMAP
7FC0
5240
5240
5240
FFE0
5240
5240
5240
5240
5240
40C0
ENDCHAR
STARTCHAR U+518C
ENCODING 20876
SWIDTH 545 0
DWIDTH 12 0
BBX 11 11 0 -1
BITMAP
7BC0
4A40
4A40
4A40
FFE0
4A40
4A40
4A40
4A40
4A40
94C0
ENDCHAR
STARTCHAR U+518D
ENCODING 20877
SWIDTH 545 0
DWIDTH 12 0
BBX 11 11 0 -1
BITMAP
FFE0
0400
7FC0
4440
7FC0
4440
4440
FFE0
4040
4040
40C0
ENDCHAR
STARTCHAR U+5191
ENCODING 20881
SWIDTH 545 0
DWIDTH 12 0
BBX 9 11 1 -1
BITMAP
0800
FF80
8880
FF80
8880
FF80
4100
5D00
4100
5D00
4100
ENDCHAR
STARTCHAR U+5192
ENCODING 20882
SWIDTH 545 0
DWIDTH 12 0
BBX 9 11 1 -1
BITMAP
FF80
8080
FF80
8080
FF80
4100
7F00
4100
7F00
4100
7F00
ENDCHAR
STARTCHAR U+5195
ENCODING 20885
SWIDTH 545 0
DWIDTH 12 0
BBX 11 11 0 -1
BITMAP
7FC0
4040
5F40
4040
3F00
4200
FFC0
4440
7FC0
1220
E1E0
ENDCHAR
STARTCHAR U+5196
ENCODING 20886
SWIDTH 545 0
DWIDTH 12 0
BBX 10 2 1 4
BITMAP
FFC0
8040
ENDCHAR
STARTCHAR U+5197
ENCODING 20887
SWIDTH 545 0
DWIDTH 12 0
BBX 11 11 0 -1
BITMAP
7FC0
4040
0000
1F00
1100
1100
1100
1100
1120
2120
C0E0
ENDCHAR
STARTCHAR U+5199
ENCODING 20889
SWIDTH 545 0
DWIDTH 12 0
BBX 11 11 0 -1
BITMAP
FFE0
8020
2000
3F80
2000
3F80
0080
FFE0
0080
0080
0380
ENDCHAR
STARTCHAR U+519B
ENCODING 20891
SWIDTH 545 0
DWIDTH 12 0
BBX 11 11 0 -1
BITMAP
7FC0
4840
3F80
1400
2400
7FC0
0400
FFE0
0400
0400
0400
ENDCHAR
STARTCHAR U+519C
ENCODING 20892
SWIDTH 545 0
DWIDTH 12 0
BBX 11 11 0 -1
BITMAP
0400
7FE0
4420
0A00
1200
3120
D140
1080
1080
1040
1C20
ENDCHAR
STARTCHAR U+51A0
ENCODING 20896
SWIDTH 545 0
DWIDTH 12 0
BBX 11 11 0 -1
BITMAP
FFE0
8020
7C40
03E0
7C40
2A40
2940
2840
29A0
4820
87E0
ENDCHAR
STARTCHAR U+51A2
ENCODING 20898
SWIDTH 545 0
DWIDTH 12 0
BBX 11 11 0 -1
BITMAP
FFE0
8020
7FC0
0400
1A40
6680
3B00
7680
1A60
E200
0C00
ENDCHAR
STARTCHAR U+51A4
ENCODING 20900
SWIDTH 545 0
DWIDTH 12 0
BBX 10 11 1 -1
BITMAP
FFC0
A040
3E00
4400
FF80
4880
7F80
1600
1540
2440
C3C0
ENDCHAR
STARTCHAR U+51A5
ENCODING 20901
SWIDTH 545 0
DWIDTH 12 0
BBX 11 11 0 -1
BITMAP
7FC0
4040
3F80
2080
3F80
2080
3F80
0400
FFE0
2080
C060
ENDCHAR
STARTCHAR U+51AA
ENCODING 20906
SWIDTH 545 0
DWIDTH 12 0
BBX 11 11 0 -1
BITMAP
FFE0
9120
7FC0
2080
3F80
2080
FFE0
2480
7FC0
A4A0
2580
ENDCHAR
STARTCHAR U+51AB
ENCODING 20907
SWIDTH 545 0
DWIDTH 12 0
BBX 2 11 3 -1
BITMAP
80
40
00
00
00
00
40
40
80
80
80
ENDCHAR
STARTCHAR U+51AC
ENCODING 20908
SWIDTH 545 0
DWIDTH 12 0
BBX 11 11 0 -1
BITMAP
0800
0F80
1080
2900
0600
1980
E660
0100
0800
0600
0180
ENDCHAR
STARTCHAR U+51AF
ENCODING 20911
SWIDTH 545 0
DWIDTH 12 0
BBX 11 11 0 -1
BITMAP
9F80
4080
0880
0880
0880
0FE0
4020
5FA0
8020
8020
80E0
ENDCHAR
STARTCHAR U+51B0
ENCODING 20912
SWIDTH 545 0
DWIDTH 12 0
BBX 11 11 0 -1
BITMAP
8100
4120
1D40
0580
0580
0540
4940
4920
9120
A100
8700
ENDCHAR
STARTCHAR U+51B1
ENCODING 20913
SWIDTH 545 0
DWIDTH 12 0
BBX 11 11 0 -1
BITMAP
8000
5FE0
0400
07C0
0840
0840
4840
5F80
8080
8080
9FE0
ENDCHAR
STARTCHAR U+51B2
ENCODING 20914
SWIDTH 545 0
DWIDTH 12 0
BBX 11 11 0 -1
BITMAP
8200
4200
1FE0
1220
1220
1220
5FE0
4200
8200
8200
8200
ENDCHAR
STARTCHAR U+51B3
ENCODING 20915
SWIDTH 545 0
DWIDTH 12 0
BBX 11 11 0 -1
BITMAP
8200
5FC0
0240
0240
0240
3FE0
4200
4200
8480
8840
B020
ENDCHAR
STARTCHAR U+51B5
ENCODING 20917
SWIDTH 545 0
DWIDTH 12 0
BBX 11 11 0 -1
BITMAP
9FC0
5040
1040
1040
1FC0
0500
4500
4500
8520
8920
B0E0
ENDCHAR
STARTCHAR U+51B6
ENCODING 20918
SWIDTH 545 0
DWIDTH 12 0
BBX 11 11 0 -1
BITMAP
8200
4400
0840
1FA0
0000
1FC0
5040
5040
9040
9FC0
9040
ENDCHAR
STARTCHAR U+51B7
ENCODING 20919
SWIDTH 545 0
DWIDTH 12 0
BBX 11 11 0 -1
BITMAP
8300
4480
0840
17A0
0000
5FE0
4040
8880
8500
8200
0100
ENDCHAR
STARTCHAR U+51BB
ENCODING 20923
SWIDTH 545 0
DWIDTH 12 0
BBX 11 11 0 -1
BITMAP
4200
2FE0
0400
0500
0900
1FE0
4100
4940
9120
8100
8700
ENDCHAR
STARTCHAR U+51BC
ENCODING 20924
SWIDTH 545 0
DWIDTH 12 0
BBX 11 11 0 -1
BITMAP
8200
5200
1FC0
2200
0200
3FE0
4500
4500
8520
8920
B0E0
ENDCHAR
STARTCHAR U+51BD
ENCODING 20925
SWIDTH 545 0
DWIDTH 12 0
BBX 11 11 0 -1
BITMAP
9E20
48A0
0EA0
0AA0
0AA0
12A0
4AA0
44A0
8420
8820
90E0
ENDCHAR
STARTCHAR U+51C0
ENCODING 20928
SWIDTH 545 0
DWIDTH 12 0
BBX 11 11 0 -1
BITMAP
8F80
5100
1FC0
0240
3FE0
0240
5FC0
4200
8200
8200
8E00
ENDCHAR
STARTCHAR U+51C4
ENCODING 20932
SWIDTH 545 0
DWIDTH 12 0
BBX 11 11 0 -1
BITMAP
8200
5FC0
0240
3FE0
0240
1FC0
4200
7FE0
8880
8700
B8E0
ENDCHAR
STARTCHAR U+51C6
ENCODING 20934
SWIDTH 545 0
DWIDTH 12 0
BBX 11 11 0 -1
BITMAP
8A00
4900
1FE0
1100
3FC0
1100
5FC0
5100
9100
9FE0
9000
ENDCHAR
STARTCHAR U+51C7
ENCODING 20935
SWIDTH 545 0
DWIDTH 12 0
BBX 11 11 0 -1
BITMAP
9180
5280
3A80
1280
3440
1540
5920
5200
9240
9440
97A0
ENDCHAR
STARTCHAR U+51C9
ENCODING 20937
SWIDTH 545 0
DWIDTH 12 0
BBX 11 11 0 -1
BITMAP
8200
5FE0
0000
0FC0
0840
0840
4FC0
4100
8940
9120
8300
ENDCHAR
STARTCHAR U+51CB
ENCODING 20939
SWIDTH 545 0
DWIDTH 12 0
BBX 11 11 0 -1
BITMAP
9FE0
5220
1FA0
1220
1FA0
1020
57A0
54A0
97A0
A020
A0E0
ENDCHAR
STARTCHAR U+51CC
ENCODING 20940
SWIDTH 545 0
DWIDTH 12 0
BBX 11 11 0 -1
BITMAP
8200
5FC0
0200
3FE0
0880
3460
4F80
5880
A700
8880
B060
ENDCHAR
STARTCHAR U+51CD
ENCODING 20941
SWIDTH 545 0
DWIDTH 12 0
BBX 11 11 0 -1
BITMAP
8100
4FE0
0100
0FE0
0920
0FE0
4920
4FE0
8500
8940
9120
ENDCHAR
STARTCHAR U+51CF
ENCODING 20943
SWIDTH 545 0
DWIDTH 12 0
BBX 11 11 0 -1
BITMAP
8140
5FE0
1100
1D20
1120
1D40
5540
5580
9D20
A2A0
AC60
ENDCHAR
STARTCHAR U+51D1
ENCODING 20945
SWIDTH 545 0
DWIDTH 12 0
BBX 11 11 0 -1
BITMAP
8200
5FE0
0400
1FC0
0880
3FE0
5240
6FA0
8200
8500
B8E0
ENDCHAR
STARTCHAR U+51DB
ENCODING 20955
SWIDTH 545 0
DWIDTH 12 0
BBX 11 11 0 -1
BITMAP
8200
7FE0
1540
1740
1040
1FC0
4000
7FE0
8200
9240
A620
ENDCHAR
STARTCHAR U+51DC
ENCODING 20956
SWIDTH 545 0
DWIDTH 12 0
BBX 11 11 0 -1
BITMAP
0200
BFE0
5540
1740
1040
3FE0
4200
7FE0
8200
9240
A620
ENDCHAR
STARTCHAR U+51DD
ENCODING 20957
SWIDTH 545 0
DWIDTH 12 0
BBX 11 11 0 -1
BITMAP
A7E0
7840
2280
1FE0
20A0
3A80
52E0
7E80
9280
AA80
ADE0
ENDCHAR
STARTCHAR U+51E0
ENCODING 20960
SWIDTH 545 0
DWIDTH 12 0
BBX 11 11 0 -1
BITMAP
1F00
1100
1100
1100
1100
1100
1100
2100
2120
4120
80E0
ENDCHAR
STARTCHAR U+51E1
ENCODING 20961
SWIDTH 545 0
DWIDTH 12 0
BBX 11 11 0 -1
BITMAP
3F00
2100
2100
3100
2900
2500
2100
2100
4120
4120
80E0
ENDCHAR
STARTCHAR U+51E4
ENCODING 20964
SWIDTH 545 0
DWIDTH 12 0
BBX 11 11 0 -1
BITMAP
7FC0
4040
5F40
4240
4A40
4440
4A40
5140
4040
8020
8020
ENDCHAR
STARTCHAR U+51EB
ENCODING 20971
SWIDTH 545 0
DWIDTH 12 0
BBX 11 11 0 -1
BITMAP
1000
7F80
4880
4580
4000
7FC0
0040
3EC0
2220
2220
C1E0
ENDCHAR
STARTCHAR U+51ED
ENCODING 20973
SWIDTH 545 0
DWIDTH 12 0
BBX 11 11 0 -1
BITMAP
2F80
2200
5FC0
C200
4F80
0000
1F00
1100
1120
2120
C0E0
ENDCHAR
STARTCHAR U+51EF
ENCODING 20975
SWIDTH 545 0
DWIDTH 12 0
BBX 11 11 0 -1
BITMAP
23C0
AA40
FA40
0240
F240
1240
F240
8240
8240
9440
E820
ENDCHAR
STARTCHAR U+51F0
ENCODING 20976
SWIDTH 545 0
DWIDTH 12 0
BBX 11 11 0 -1
BITMAP
7FC0
4440
5F40
5140
5F40
5140
5F40
4440
5F40
8420
BFA0
ENDCHAR
STARTCHAR U+51F1
ENCODING 20977
SWIDTH 545 0
DWIDTH 12 0
BBX 11 11 0 -1
BITMAP
2380
AA80
FA80
0280
FA80
0280
FA80
8A80
FAA0
54A0
FC60
ENDCHAR
STARTCHAR U+51F3
ENCODING 20979
SWIDTH 545 0
DWIDTH 12 0
BBX 11 11 0 -1
BITMAP
7AA0
2940
1F80
2040
DFA0
1080
1F80
0900
7FC0
1120
60E0
ENDCHAR
STARTCHAR U+51F5
ENCODING 20981
SWIDTH 545 0
DWIDTH 12 0
BBX 11 10 0 -1
BITMAP
8020
8020
8020
8020
8020
8020
8020
8020
FFE0
8020
ENDCHAR
STARTCHAR U+51F6
ENCODING 20982
SWIDTH 545 0
DWIDTH 12 0
BBX 11 10 0 -1
BITMAP
8120
9120
8A20
8420
8420
8A20
B120
8020
FFE0
8020
ENDCHAR
STARTCHAR U+51F8
ENCODING 20984
SWIDTH 545 0
DWIDTH 12 0
BBX 11 11 0 -1
BITMAP
1F00
1100
1100
1100
F1E0
8020
8020
8020
8020
FFE0
8020
ENDCHAR
STARTCHAR U+51F9
ENCODING 20985
SWIDTH 545 0
DWIDTH 12 0
BBX 11 11 0 -1
BITMAP
F1E0
9120
9120
9120
9F20
8020
8020
8020
8020
FFE0
8020
ENDCHAR
STARTCHAR U+51FA
ENCODING 20986
SWIDTH 545 0
DWIDTH 12 0
BBX 11 11 0 -1
BITMAP
0400
4440
4440
4440
7FC0
0400
8420
8420
8420
FFE0
8020
ENDCHAR
STARTCHAR U+51FB
ENCODING 20987
SWIDTH 545 0
DWIDTH 12 0
BBX 11 11 0 -1
BITMAP
0400
7FC0
0400
0400
FFE0
0400
4440
4440
4440
7FC0
4040
ENDCHAR
STARTCHAR U+51FC
ENCODING 20988
SWIDTH 545 0
DWIDTH 12 0
BBX 11 11 0 -1
BITMAP
0400
84A0
F520
9620
9620
A520
A4A0
C460
8C20
8020
FFE0
ENDCHAR
STARTCHAR U+51FD
ENCODING 20989
SWIDTH 545 0
DWIDTH 12 0
BBX 11 11 0 -1
BITMAP
7FC0
0100
0200
A4A0
9520
8420
9520
A4A0
CC60
8020
FFE0
ENDCHAR
STARTCHAR U+51FF
ENCODING 20991
SWIDTH 545 0
DWIDTH 12 0
BBX 11 11 0 -1
BITMAP
4A40
2A80
FFE0
1100
8A20
BFA0
8420
BFA0
8420
8020
FFE0
ENDCHAR
STARTCHAR U+5200
ENCODING 20992
SWIDTH 545 0
DWIDTH 12 0
BBX 11 11 0 -1
BITMAP
7FE0
0820
0820
0820
0820
0820
0820
1020
1020
2020
C0E0
ENDCHAR
STARTCHAR U+5201
ENCODING 20993
SWIDTH 545 0
DWIDTH 12 0
BBX 10 11 1 -1
BITMAP
FFC0
0040
0040
0240
0C40
3040
C040
0040
0040
0040
01C0
ENDCHAR
STARTCHAR U+5202
ENCODING 20994
SWIDTH 545 0
DWIDTH 12 0
BBX 4 11 4 -1
BITMAP
10
10
90
90
90
90
90
90
10
10
70
ENDCHAR
STARTCHAR U+5203
ENCODING 20995
SWIDTH 545 0
DWIDTH 12 0
BBX 10 11 1 -1
BITMAP
FFC0
0840
0840
4840
2840
1840
0840
1040
1040
2040
C1C0
ENDCHAR
STARTCHAR U+5206
ENCODING 20998
SWIDTH 545 0
DWIDTH 12 0
BBX 11 11 0 -1
BITMAP
1300
1100
2080
4040
BFA0
0880
0880
0880
0880
1080
6380
ENDCHAR
STARTCHAR U+5207
ENCODING 20999
SWIDTH 545 0
DWIDTH 12 0
BBX 11 11 0 -1
BITMAP
27E0
2120
2120
F920
2120
2120
2120
2A20
3220
2420
08E0
ENDCHAR
STARTCHAR U+5208
ENCODING 21000
SWIDTH 545 0
DWIDTH 12 0
BBX 11 11 0 -1
BITMAP
0820
8920
4920
2920
1120
1120
1120
2920
2520
4420
80E0
ENDCHAR
STARTCHAR U+520A
ENCODING 21002
SWIDTH 545 0
DWIDTH 12 0
BBX 11 11 0 -1
BITMAP
7C20
1120
1120
1120
FF20
1120
1120
1120
1120
1020
10E0
ENDCHAR
STARTCHAR U+520D
ENCODING 21005
SWIDTH 545 0
DWIDTH 12 0
BBX 10 11 1 -1
BITMAP
1000
3F80
4200
FFC0
0040
0040
7FC0
0040
0040
FFC0
0040
ENDCHAR
STARTCHAR U+520E
ENCODING 21006
SWIDTH 545 0
DWIDTH 12 0
BBX 11 11 0 -1
BITMAP
4020
7EA0
AAA0
2AA0
4AA0
92A0
12A0
22A0
4220
8220
0EE0
ENDCHAR
STARTCHAR U+5211
ENCODING 21009
SWIDTH 545 0
DWIDTH 12 0
BBX 11 11 0 -1
BITMAP
7E20
24A0
24A0
24A0
7EA0
24A0
24A0
24A0
2420
4420
84E0
ENDCHAR
STARTCHAR U+5212
ENCODING 21010
SWIDTH 545 0
DWIDTH 12 0
BBX 11 11 0 -1
BITMAP
2820
24A0
20A0
FEA0
20A0
24A0
28A0
10A0
12A0
2A20
C6E0
ENDCHAR
STARTCHAR U+5216
ENCODING 21014
SWIDTH 545 0
DWIDTH 12 0
BBX 11 11 0 -1
BITMAP
7C20
4520
4520
7D20
4520
4520
7D20
4520
4520
4420
8CE0
ENDCHAR
STARTCHAR U+5217
ENCODING 21015
SWIDTH 545 0
DWIDTH 12 0
BBX 11 11 0 -1
BITMAP
FC20
2120
2120
7D20
4520
6520
9520
0920
0820
1020
60E0
ENDCHAR
STARTCHAR U+5218
ENCODING 21016
SWIDTH 545 0
DWIDTH 12 0
BBX 12 11 0 -1
BITMAP
1010
FE90
0490
4490
2890
2890
1090
1090
2890
4410
8070
ENDCHAR
STARTCHAR U+5219
ENCODING 21017
SWIDTH 545 0
DWIDTH 12 0
BBX 11 11 0 -1
BITMAP
7C20
4520
5520
5520
5520
5520
5520
5520
1020
2820
C6E0
ENDCHAR
STARTCHAR U+521A
ENCODING 21018
SWIDTH 545 0
DWIDTH 12 0
BBX 11 11 0 -1
BITMAP
FE20
82A0
CAA0
AAA0
92A0
92A0
AAA0
C6A0
8220
8220
8EE0
ENDCHAR
STARTCHAR U+521B
ENCODING 21019
SWIDTH 545 0
DWIDTH 12 0
BBX 11 11 0 -1
BITMAP
1020
28A0
44A0
FEA0
44A0
44A0
44A0
4CA0
42A0
4220
3EE0
ENDCHAR
STARTCHAR U+521D
ENCODING 21021
SWIDTH 545 0
DWIDTH 12 0
BBX 11 11 0 -1
BITMAP
4FE0
2220
F220
1220
2A20
3220
6A20
A220
2420
2420
28E0
ENDCHAR
STARTCHAR U+5220
ENCODING 21024
SWIDTH 545 0
DWIDTH 12 0
BBX 11 11 0 -1
BITMAP
7C20
54A0
54A0
54A0
FEA0
54A0
54A0
54A0
54A0
5420
ACE0
ENDCHAR
STARTCHAR U+5224
ENCODING 21028
SWIDTH 545 0
DWIDTH 12 0
BBX 11 11 0 -1
BITMAP
9220
54A0
10A0
FEA0
10A0
10A0
FEA0
10A0
10A0
2020
C0E0
ENDCHAR
STARTCHAR U+5225
ENCODING 21029
SWIDTH 545 0
DWIDTH 12 0
BBX 11 11 0 -1
BITMAP
7C20
4520
4520
7D20
2120
3D20
2520
2520
2520
4420
9CE0
ENDCHAR
STARTCHAR U+5228
ENCODING 21032
SWIDTH 545 0
DWIDTH 12 0
BBX 11 11 0 -1
BITMAP
4020
7EA0
82A0
7AA0
4AA0
4AA0
7AA0
44A0
40A0
4220
3EE0
ENDCHAR
STARTCHAR U+5229
ENCODING 21033
SWIDTH 545 0
DWIDTH 12 0
BBX 11 11 0 -1
BITMAP
1C20
F120
1120
FD20
1120
3120
5920
9520
1120
1020
10E0
ENDCHAR
STARTCHAR U+522A
ENCODING 21034
SWIDTH 545 0
DWIDTH 12 0
BBX 11 11 0 -1
BITMAP
FE20
AAA0
AAA0
AAA0
AAA0
FFA0
AAA0
AAA0
AAA0
AA20
86E0
ENDCHAR
STARTCHAR U+522B
ENCODING 21035
SWIDTH 545 0
DWIDTH 12 0
BBX 11 11 0 -1
BITMAP
FC20
8520
8520
FD20
2120
FD20
2520
2520
2520
4420
9CE0
ENDCHAR
STARTCHAR U+522D
ENCODING 21037
SWIDTH 545 0
DWIDTH 12 0
BBX 11 12 0 -1
BITMAP
0020
FC20
0920
1120
2920
C720
0120
FD20
1120
1120
1C20
F0E0
ENDCHAR
STARTCHAR U+522E
ENCODING 21038
SWIDTH 545 0
DWIDTH 12 0
BBX 11 11 0 -1
BITMAP
1C20
F120
1120
FF20
1120
1120
7D20
4520
4520
4420
7CE0
ENDCHAR
STARTCHAR U+5230
ENCODING 21040
SWIDTH 545 0
DWIDTH 12 0
BBX 11 11 0 -1
BITMAP
FC20
1120
2520
4320
FD20
1120
7D20
1120
1120
1C20
F0E0
ENDCHAR
STARTCHAR U+5233
ENCODING 21043
SWIDTH 545 0
DWIDTH 12 0
BBX 11 11 0 -1
BITMAP
1020
FEA0
44A0
FEA0
00A0
FEA0
20A0
7EA0
02A0
0220
0EE0
ENDCHAR
STARTCHAR U+5236
ENCODING 21046
SWIDTH 545 0
DWIDTH 12 0
BBX 11 11 0 -1
BITMAP
5020
7CA0
90A0
FEA0
10A0
FEA0
92A0
92A0
92A0
9620
10E0
ENDCHAR
STARTCHAR U+5237
ENCODING 21047
SWIDTH 545 0
DWIDTH 12 0
BBX 11 11 0 -1
BITMAP
7E20
42A0
7EA0
40A0
50A0
7EA0
52A0
52A0
5220
9620
90E0
ENDCHAR
STARTCHAR U+5238
ENCODING 21048
SWIDTH 545 0
DWIDTH 12 0
BBX 11 11 0 -1
BITMAP
4440
2480
7FC0
1100
FFE0
2080
7FC0
88A0
0880
1080
6380
ENDCHAR
STARTCHAR U+5239
ENCODING 21049
SWIDTH 545 0
DWIDTH 12 0
BBX 11 11 0 -1
BITMAP
4420
28A0
10A0
28A0
C6A0
10A0
FEA0
10A0
54A0
5420
92E0
ENDCHAR
STARTCHAR U+523A
ENCODING 21050
SWIDTH 545 0
DWIDTH 12 0
BBX 11 11 0 -1
BITMAP
1020
FEA0
10A0
FEA0
92A0
92A0
92A0
38A0
5420
9020
10E0
ENDCHAR
STARTCHAR U+523B
ENCODING 21051
SWIDTH 545 0
DWIDTH 12 0
BBX 11 11 0 -1
BITMAP
1020
FD20
2120
4520
7920
1120
2520
C920
1120
2820
C6E0
ENDCHAR
STARTCHAR U+523D
ENCODING 21053
SWIDTH 545 0
DWIDTH 12 0
BBX 11 11 0 -1
BITMAP
1020
28A0
44A0
FEA0
00A0
FEA0
20A0
20A0
44A0
4420
FAE0
ENDCHAR
STARTCHAR U+523F
ENCODING 21055
SWIDTH 545 0
DWIDTH 12 0
BBX 11 11 0 -1
BITMAP
9220
92A0
FEA0
20A0
7EA0
42A0
64A0
94A0
08A0
3020
C0E0
ENDCHAR
STARTCHAR U+5240
ENCODING 21056
SWIDTH 545 0
DWIDTH 12 0
BBX 11 11 0 -1
BITMAP
9220
92A0
FEA0
00A0
FEA0
02A0
7EA0
40A0
42A0
4C20
70E0
ENDCHAR
STARTCHAR U+5241
ENCODING 21057
SWIDTH 545 0
DWIDTH 12 0
BBX 11 11 0 -1
BITMAP
3C20
2420
24A0
C6A0
10A0
FEA0
10A0
38A0
54A0
9220
10E0
ENDCHAR
STARTCHAR U+5242
ENCODING 21058
SWIDTH 545 0
DWIDTH 12 0
BBX 11 11 0 -1
BITMAP
1020
FEA0
24A0
18A0
24A0
C2A0
24A0
24A0
24A0
2420
44E0
ENDCHAR
STARTCHAR U+5243
ENCODING 21059
SWIDTH 545 0
DWIDTH 12 0
BBX 11 11 0 -1
BITMAP
4420
28A0
FEA0
12A0
FEA0
90A0
FEA0
32A0
52A0
9620
10E0
ENDCHAR
STARTCHAR U+5247
ENCODING 21063
SWIDTH 545 0
DWIDTH 12 0
BBX 10 11 1 -1
BITMAP
FC40
8540
8540
FD40
8540
FD40
8540
FD40
4940
4840
85C0
ENDCHAR
STARTCHAR U+524A
ENCODING 21066
SWIDTH 545 0
DWIDTH 12 0
BBX 11 11 0 -1
BITMAP
1020
92A0
54A0
10A0
7EA0
42A0
7EA0
42A0
7EA0
4220
86E0
ENDCHAR
STARTCHAR U+524B
ENCODING 21067
SWIDTH 545 0
DWIDTH 12 0
BBX 11 11 0 -1
BITMAP
1040
FD40
1140
7D40
4540
4540
7D40
2840
28E0
4820
87E0
ENDCHAR
STARTCHAR U+524C
ENCODING 21068
SWIDTH 545 0
DWIDTH 12 0
BBX 11 11 0 -1
BITMAP
1020
FEA0
10A0
FEA0
92A0
92A0
FEA0
38A0
54A0
9220
10E0
ENDCHAR
STARTCHAR U+524D
ENCODING 21069
SWIDTH 545 0
DWIDTH 12 0
BBX 11 11 0 -1
BITMAP
2080
FFE0
0000
7C20
4520
7D20
4520
7D20
4520
4420
9CE0
ENDCHAR
STARTCHAR U+524E
ENCODING 21070
SWIDTH 545 0
DWIDTH 12 0
BBX 11 11 0 -1
BITMAP
4420
28A0
10A0
28A0
C6A0
10A0
FEA0
10A0
54A0
5420
92E0
ENDCHAR
STARTCHAR U+5250
ENCODING 21072
SWIDTH 545 0
DWIDTH 12 0
BBX 11 11 0 -1
BITMAP
7C20
44A0
44A0
7CA0
10A0
FEA0
92A0
AAA0
C6A0
8220
86E0
ENDCHAR
STARTCHAR U+5251
ENCODING 21073
SWIDTH 545 0
DWIDTH 12 0
BBX 11 11 0 -1
BITMAP
1820
24A0
42A0
BDA0
00A0
52A0
52A0
2AA0
28A0
FE20
00E0
ENDCHAR
STARTCHAR U+5254
ENCODING 21076
SWIDTH 545 0
DWIDTH 12 0
BBX 11 11 0 -1
BITMAP
7E20
42A0
7EA0
42A0
7EA0
40A0
7EA0
AAA0
4AA0
1220
26E0
ENDCHAR
STARTCHAR U+5256
ENCODING 21078
SWIDTH 545 0
DWIDTH 12 0
BBX 11 11 0 -1
BITMAP
1020
FEA0
28A0
28A0
FEA0
00A0
7CA0
44A0
44A0
4420
7CE0
ENDCHAR
STARTCHAR U+525B
ENCODING 21083
SWIDTH 545 0
DWIDTH 12 0
BBX 11 11 0 -1
BITMAP
FE20
82A0
AAA0
FEA0
92A0
D6A0
D6A0
FEA0
8220
8220
8660
ENDCHAR
STARTCHAR U+525C
ENCODING 21084
SWIDTH 545 0
DWIDTH 12 0
BBX 12 11 0 -1
BITMAP
0810
FF50
8150
4050
7750
5550
7550
9750
2450
2510
4670
ENDCHAR
STARTCHAR U+525D
ENCODING 21085
SWIDTH 545 0
DWIDTH 12 0
BBX 11 11 0 -1
BITMAP
2020
7CA0
44A0
7CA0
08A0
FEA0
54A0
38A0
54A0
9220
70E0
ENDCHAR
STARTCHAR U+525E
ENCODING 21086
SWIDTH 545 0
DWIDTH 12 0
BBX 11 11 0 -1
BITMAP
0820
7EA0
14A0
22A0
FFA0
02A0
7AA0
4AA0
7AA0
0220
0EE0
ENDCHAR
STARTCHAR U+5261
ENCODING 21089
SWIDTH 545 0
DWIDTH 12 0
BBX 11 11 0 -1
BITMAP
9220
54A0
10A0
28A0
C6A0
10A0
92A0
54A0
10A0
2820
C6E0
ENDCHAR
STARTCHAR U+5265
ENCODING 21093
SWIDTH 545 0
DWIDTH 12 0
BBX 11 11 0 -1
BITMAP
FC20
0520
FD20
0520
FF20
5120
3520
5920
9520
1220
70E0
ENDCHAR
STARTCHAR U+5267
ENCODING 21095
SWIDTH 545 0
DWIDTH 12 0
BBX 11 11 0 -1
BITMAP
7E20
42A0
7EA0
48A0
7EA0
48A0
7EA0
62A0
62A0
BE20
A2E0
ENDCHAR
STARTCHAR U+5269
ENCODING 21097
SWIDTH 545 0
DWIDTH 12 0
BBX 11 11 0 -1
BITMAP
FE20
10A0
FEA0
54A0
D6A0
54A0
D6A0
38A0
54A0
9220
10E0
ENDCHAR
STARTCHAR U+526A
ENCODING 21098
SWIDTH 545 0
DWIDTH 12 0
BBX 11 11 0 -1
BITMAP
1100
FFE0
4440
7D40
4540
7C40
84C0
FFC0
0840
1040
E1C0
ENDCHAR
STARTCHAR U+526F
ENCODING 21103
SWIDTH 545 0
DWIDTH 12 0
BBX 11 11 0 -1
BITMAP
FE20
00A0
7CA0
44A0
7CA0
00A0
FEA0
92A0
FEA0
9220
FEE0
ENDCHAR
STARTCHAR U+5272
ENCODING 21106
SWIDTH 545 0
DWIDTH 12 0
BBX 11 11 0 -1
BITMAP
1020
FEA0
92A0
7CA0
10A0
7CA0
10A0
FEA0
44A0
4420
7CE0
ENDCHAR
STARTCHAR U+5274
ENCODING 21108
SWIDTH 545 0
DWIDTH 12 0
BBX 10 11 0 -1
BITMAP
2040
AA40
FA40
0240
FA40
0240
FA40
8A40
FA40
5040
F9C0
ENDCHAR
STARTCHAR U+5275
ENCODING 21109
SWIDTH 545 0
DWIDTH 12 0
BBX 11 11 0 -1
BITMAP
1020
6CA0
92A0
7CA0
44A0
7CA0
44A0
7EA0
62A0
A220
BEE0
ENDCHAR
STARTCHAR U+5277
ENCODING 21111
SWIDTH 545 0
DWIDTH 12 0
BBX 11 11 0 -1
BITMAP
1020
FEA0
28A0
54A0
FEA0
A8A0
BEA0
C8A0
BEA0
8820
BEE0
ENDCHAR
STARTCHAR U+527D
ENCODING 21117
SWIDTH 545 0
DWIDTH 12 0
BBX 11 11 0 -1
BITMAP
FE20
28A0
FEA0
AAA0
FEA0
00A0
FEA0
00A0
FEA0
5420
B2E0
ENDCHAR
STARTCHAR U+527F
ENCODING 21119
SWIDTH 545 0
DWIDTH 12 0
BBX 11 11 0 -1
BITMAP
2A20
54A0
2AA0
7EA0
52A0
7EA0
52A0
FFA0
10A0
5420
92E0
ENDCHAR
STARTCHAR U+5281
ENCODING 21121
SWIDTH 545 0
DWIDTH 12 0
BBX 11 11 0 -1
BITMAP
2820
7EA0
C8A0
7EA0
48A0
7EA0
48A0
7EA0
00A0
AA20
AAE0
ENDCHAR
STARTCHAR U+5282
ENCODING 21122
SWIDTH 545 0
DWIDTH 12 0
BBX 11 11 0 -1
BITMAP
FF20
80A0
D4A0
A7A0
F5A0
AAA0
AAA0
FAA0
A2A0
A520
C960
ENDCHAR
STARTCHAR U+5283
ENCODING 21123
SWIDTH 545 0
DWIDTH 12 0
BBX 11 11 0 -1
BITMAP
0820
7EA0
0AA0
FFA0
0AA0
FFA0
6AA0
56A0
7EA0
00A0
FF60
ENDCHAR
STARTCHAR U+5287
ENCODING 21127
SWIDTH 545 0
DWIDTH 12 0
BBX 11 11 0 -1
BITMAP
1C20
10A0
7EA0
54A0
7AA0
4EA0
58A0
6DA0
56A0
A520
8860
ENDCHAR
STARTCHAR U+5288
ENCODING 21128
SWIDTH 545 0
DWIDTH 12 0
BBX 11 11 0 -1
BITMAP
7080
53E0
7940
4BE0
C880
7BE0
0080
7FC0
0840
1040
61C0
ENDCHAR
STARTCHAR U+5289
ENCODING 21129
SWIDTH 545 0
DWIDTH 12 0
BBX 11 11 0 -1
BITMAP
EE20
8AA0
AAA0
D6A0
28A0
7CA0
93A0
FEA0
54A0
5420
FEE0
ENDCHAR
STARTCHAR U+528A
ENCODING 21130
SWIDTH 545 0
DWIDTH 12 0
BBX 11 11 0 -1
BITMAP
1020
28A0
7CA0
82A0
FEA0
AAA0
FEA0
44A0
7CA0
4420
7CE0
ENDCHAR
STARTCHAR U+528D
ENCODING 21133
SWIDTH 545 0
DWIDTH 12 0
BBX 11 11 0 -1
BITMAP
1020
28A0
7CA0
83A0
EEA0
AAA0
EEA0
44A0
44A0
AA20
AAE0
ENDCHAR
STARTCHAR U+5290
ENCODING 21136
SWIDTH 545 0
DWIDTH 12 0
BBX 11 11 0 -1
BITMAP
4420
EE20
44A0
FEA0
48A0
7EA0
48A0
FEA0
24A0
1820
E6E0
ENDCHAR
STARTCHAR U+5291
ENCODING 21137
SWIDTH 545 0
DWIDTH 12 0
BBX 11 11 0 -1
BITMAP
1020
FEA0
28A0
FEA0
AAA0
48A0
7EA0
42A0
7EA0
4220
8260
ENDCHAR
STARTCHAR U+5293
ENCODING 21139
SWIDTH 545 0
DWIDTH 12 0
BBX 11 11 0 -1
BITMAP
1020
3C20
24A0
7EA0
52A0
7EA0
52A0
FFA0
24A0
2420
44E0
ENDCHAR
STARTCHAR U+529B
ENCODING 21147
SWIDTH 545 0
DWIDTH 12 0
BBX 11 11 0 -1
BITMAP
0800
0800
FFE0
0820
0820
0820
0820
1020
1020
2020
C0E0
ENDCHAR
STARTCHAR U+529D
ENCODING 21149
SWIDTH 545 0
DWIDTH 12 0
BBX 11 11 0 -1
BITMAP
0200
F200
1FE0
9220
5220
2220
2220
5420
8420
0820
10E0
ENDCHAR
STARTCHAR U+529E
ENCODING 21150
SWIDTH 545 0
DWIDTH 12 0
BBX 11 11 0 -1
BITMAP
0800
0800
FF80
0880
48C0
48A0
88A0
1080
1080
2080
C380
ENDCHAR
STARTCHAR U+529F
ENCODING 21151
SWIDTH 545 0
DWIDTH 12 0
BBX 11 11 0 -1
BITMAP
0100
F900
27E0
2120
2120
2120
2120
2220
3A20
E420
08E0
ENDCHAR
STARTCHAR U+52A0
ENCODING 21152
SWIDTH 545 0
DWIDTH 12 0
BBX 11 11 0 -1
BITMAP
2000
21E0
FD20
2520
2520
2520
2520
2520
4520
45E0
9D20
ENDCHAR
STARTCHAR U+52A1
ENCODING 21153
SWIDTH 545 0
DWIDTH 12 0
BBX 11 11 0 -1
BITMAP
0800
1F80
3100
0E00
3180
C460
3F80
0880
0880
1080
6380
ENDCHAR
STARTCHAR U+52A2
ENCODING 21154
SWIDTH 545 0
DWIDTH 12 0
BBX 11 11 0 -1
BITMAP
F900
4100
47E0
7920
4920
4920
4920
4920
4920
4A20
94E0
ENDCHAR
STARTCHAR U+52A3
ENCODING 21155
SWIDTH 545 0
DWIDTH 12 0
BBX 11 11 0 -1
BITMAP
0480
1440
64A0
0300
1C00
E400
3FE0
0420
0820
3020
C0E0
ENDCHAR
STARTCHAR U+52A8
ENCODING 21160
SWIDTH 545 0
DWIDTH 12 0
BBX 11 11 0 -1
BITMAP
0100
F900
07E0
0120
F920
2120
4A20
4A20
9420
E420
08E0
ENDCHAR
STARTCHAR U+52A9
ENCODING 21161
SWIDTH 545 0
DWIDTH 12 0
BBX 11 11 0 -1
BITMAP
0100
7900
4FE0
7920
4920
7920
4920
4A20
5A20
E420
08E0
ENDCHAR
STARTCHAR U+52AA
ENCODING 21162
SWIDTH 545 0
DWIDTH 12 0
BBX 11 11 0 -1
BITMAP
1000
7FE0
2520
18C0
6520
0400
3FE0
0420
0820
3020
C0E0
ENDCHAR
STARTCHAR U+52AB
ENCODING 21163
SWIDTH 545 0
DWIDTH 12 0
BBX 11 11 0 -1
BITMAP
2100
F900
27E0
2120
F920
2120
4A20
4A20
9420
E420
08E0
ENDCHAR
STARTCHAR U+52AC
ENCODING 21164
SWIDTH 545 0
DWIDTH 12 0
BBX 11 11 0 -1
BITMAP
4100
7FE0
8920
0920
E920
A920
A920
E920
0A20
0A20
3CE0
ENDCHAR
STARTCHAR U+52AD
ENCODING 21165
SWIDTH 545 0
DWIDTH 12 0
BBX 11 11 0 -1
BITMAP
F900
4FE0
4920
4920
9920
0120
F920
8920
8A20
8A20
FCE0
ENDCHAR
STARTCHAR U+52B1
ENCODING 21169
SWIDTH 545 0
DWIDTH 12 0
BBX 11 11 0 -1
BITMAP
F900
8100
FBE0
A120
B920
A920
A920
A920
AA20
AA20
D4E0
ENDCHAR
STARTCHAR U+52B2
ENCODING 21170
SWIDTH 545 0
DWIDTH 12 0
BBX 11 11 0 -1
BITMAP
F900
1100
27E0
D920
0120
F920
2120
2120
2120
FA20
0460
ENDCHAR
STARTCHAR U+52B3
ENCODING 21171
SWIDTH 545 0
DWIDTH 12 0
BBX 11 11 0 -1
BITMAP
1100
FFE0
1100
FFE0
8820
7F80
0880
1080
1080
2080
C380
ENDCHAR
STARTCHAR U+52BB
ENCODING 21179
SWIDTH 545 0
DWIDTH 12 0
BBX 11 11 0 -1
BITMAP
0100
F900
87E0
F920
9120
F920
9120
9120
F920
8220
FAE0
ENDCHAR
STARTCHAR U+52BE
ENCODING 21182
SWIDTH 545 0
DWIDTH 12 0
BBX 11 11 0 -1
BITMAP
2100
F900
27E0
4920
F120
2120
4920
9120
2220
5220
8CE0
ENDCHAR
STARTCHAR U+52BF
ENCODING 21183
SWIDTH 545 0
DWIDTH 12 0
BBX 11 11 0 -1
BITMAP
1200
7F80
1280
7FA0
12A0
7440
0400
7FC0
0840
3040
C1C0
ENDCHAR
STARTCHAR U+52C1
ENCODING 21185
SWIDTH 545 0
DWIDTH 12 0
BBX 11 11 0 -1
BITMAP
FD00
5500
ABE0
5520
5520
FD20
1120
1120
1120
FE20
0260
ENDCHAR
STARTCHAR U+52C3
ENCODING 21187
SWIDTH 545 0
DWIDTH 12 0
BBX 11 11 0 -1
BITMAP
2100
F900
27E0
F920
8920
7120
1120
3920
E220
2220
64E0
ENDCHAR
STARTCHAR U+52C7
ENCODING 21191
SWIDTH 545 0
DWIDTH 12 0
BBX 11 11 0 -1
BITMAP
3F80
0A00
7FC0
4440
7FC0
4440
FFE0
0420
0820
3020
C0E0
ENDCHAR
STARTCHAR U+52C9
ENCODING 21193
SWIDTH 545 0
DWIDTH 12 0
BBX 11 11 0 -1
BITMAP
4100
7900
97E0
F920
A920
A920
FA20
5220
54E0
5000
8FE0
ENDCHAR
STARTCHAR U+52CB
ENCODING 21195
SWIDTH 545 0
DWIDTH 12 0
BBX 11 11 0 -1
BITMAP
F900
8900
FBE0
0120
F920
8920
A920
A920
AA20
5220
8CE0
ENDCHAR
STARTCHAR U+52D0
ENCODING 21200
SWIDTH 545 0
DWIDTH 12 0
BBX 11 11 0 -1
BITMAP
F900
2100
FBE0
2120
6120
0120
F920
A920
AA20
FA20
04E0
ENDCHAR
STARTCHAR U+52D2
ENCODING 21202
SWIDTH 545 0
DWIDTH 12 0
BBX 11 11 0 -1
BITMAP
5100
F900
57E0
7120
2120
F920
A920
F920
2220
FA20
24E0
ENDCHAR
STARTCHAR U+52D5
ENCODING 21205
SWIDTH 545 0
DWIDTH 12 0
BBX 11 11 0 -1
BITMAP
3FC0
0880
0500
0200
FFE0
0620
0A40
1200
2200
4200
0E00
ENDCHAR
STARTCHAR U+52D6
ENCODING 21206
SWIDTH 545 0
DWIDTH 12 0
BBX 11 11 0 -1
BITMAP
FD00
8500
B7E0
8520
B520
0120
7920
4920
7A20
4A20
7CE0
ENDCHAR
STARTCHAR U+52D7
ENCODING 21207
SWIDTH 545 0
DWIDTH 12 0
BBX 11 11 0 -1
BITMAP
3FC0
2040
3FC0
2040
7FE0
4900
7BE0
4920
7920
4A20
FCE0
ENDCHAR
STARTCHAR U+52D8
ENCODING 21208
SWIDTH 545 0
DWIDTH 12 0
BBX 11 11 0 -1
BITMAP
4900
FD00
4BE0
7920
4920
7920
4920
FD20
A920
C520
FE60
ENDCHAR
STARTCHAR U+52D9
ENCODING 21209
SWIDTH 545 0
DWIDTH 12 0
BBX 11 11 0 -1
BITMAP
F900
53E0
5540
2080
F940
2AA0
67E0
A120
2120
2220
E4E0
ENDCHAR
STARTCHAR U+52DB
ENCODING 21211
SWIDTH 545 0
DWIDTH 12 0
BBX 11 11 0 -1
BITMAP
F900
8900
FBE0
0120
F920
8920
F920
8920
FA20
5220
8CE0
ENDCHAR
STARTCHAR U+52DD
ENCODING 21213
SWIDTH 545 0
DWIDTH 12 0
BBX 11 11 0 -1
BITMAP
72A0
57E0
5100
77E0
5440
5A20
77C0
5240
5240
5240
A4C0
ENDCHAR
STARTCHAR U+52DE
ENCODING 21214
SWIDTH 545 0
DWIDTH 12 0
BBX 10 11 0 -1
BITMAP
AD40
7380
2100
5280
FFC0
8840
7F80
0880
1080
2080
C380
ENDCHAR
STARTCHAR U+52DF
ENCODING 21215
SWIDTH 545 0
DWIDTH 12 0
BBX 11 11 0 -1
BITMAP
1100
FFE0
1100
3F80
2080
FFE0
2480
7FC0
88A0
1080
6380
ENDCHAR
STARTCHAR U+52E2
ENCODING 21218
SWIDTH 545 0
DWIDTH 12 0
BBX 11 11 0 -1
BITMAP
2200
FF80
2280
FEA0
AAA0
FD40
2400
FFC0
0840
3040
C1C0
ENDCHAR
STARTCHAR U+52E3
ENCODING 21219
SWIDTH 545 0
DWIDTH 12 0
BBX 11 11 0 -1
BITMAP
2100
FD00
23E0
FD20
2120
FD20
4920
7920
4920
7A20
86E0
ENDCHAR
STARTCHAR U+52E4
ENCODING 21220
SWIDTH 545 0
DWIDTH 12 0
BBX 11 11 0 -1
BITMAP
5100
F900
57E0
F920
A920
F920
2120
F920
2220
3A20
E4E0
ENDCHAR
STARTCHAR U+52E6
ENCODING 21222
SWIDTH 545 0
DWIDTH 12 0
BBX 11 11 0 -1
BITMAP
5420
A8A0
FEA0
92A0
FEA0
92A0
FEA0
10A0
FEA0
5420
92E0
ENDCHAR
STARTCHAR U+52F0
ENCODING 21232
SWIDTH 545 0
DWIDTH 12 0
BBX 11 11 0 -1
BITMAP
23E0
FAA0
2BE0
4AA0
BAA0
53E0
FC40
5520
5740
5520
ADE0
ENDCHAR
STARTCHAR U+52F3
ENCODING 21235
SWIDTH 545 0
DWIDTH 12 0
BBX 11 11 0 -1
BITMAP
FE20
1020
FEA0
54A0
7CA0
54A0
7CA0
10A0
FEA0
5420
AAE0
ENDCHAR
STARTCHAR U+52F9
ENCODING 21241
SWIDTH 545 0
DWIDTH 12 0
BBX 11 11 0 -1
BITMAP
2000
3FE0
2020
4020
8020
0020
0020
0020
0020
0020
00E0
ENDCHAR
STARTCHAR U+52FA
ENCODING 21242
SWIDTH 545 0
DWIDTH 12 0
BBX 11 11 0 -1
BITMAP
2000
3FE0
2020
4020
8820
0420
0220
0020
0020
0020
00E0
ENDCHAR
STARTCHAR U+52FB
ENCODING 21243
SWIDTH 545 0
DWIDTH 12 0
BBX 11 11 0 -1
BITMAP
2000
3FE0
2020
4020
9F20
0020
0020
3FA0
0020
0020
00E0
ENDCHAR
STARTCHAR U+52FE
ENCODING 21246
SWIDTH 545 0
DWIDTH 12 0
BBX 11 11 0 -1
BITMAP
2000
3FE0
2020
4820
8820
1120
1120
3EA0
0020
0020
00E0
ENDCHAR
STARTCHAR U+52FF
ENCODING 21247
SWIDTH 545 0
DWIDTH 12 0
BBX 11 11 0 -1
BITMAP
2000
3FE0
2920
4920
8920
1120
1220
2220
4420
0820
00E0
ENDCHAR
STARTCHAR U+5300
ENCODING 21248
SWIDTH 545 0
DWIDTH 12 0
BBX 11 11 0 -1
BITMAP
2000
3FE0
2020
4020
8C20
0220
0020
0720
7820
0020
00E0
ENDCHAR
STARTCHAR U+5305
ENCODING 21253
SWIDTH 545 0
DWIDTH 12 0
BBX 11 11 0 -1
BITMAP
2000
3FC0
4040
BF40
2140
2140
3F40
2080
2020
2020
1FE0
ENDCHAR
STARTCHAR U+5306
ENCODING 21254
SWIDTH 545 0
DWIDTH 12 0
BBX 11 11 0 -1
BITMAP
2000
3FE0
2920
4920
B920
1720
12A0
2220
4420
0820
00E0
ENDCHAR
STARTCHAR U+5308
ENCODING 21256
SWIDTH 545 0
DWIDTH 12 0
BBX 11 11 0 -1
BITMAP
2000
3FE0
2020
5220
AAA0
24A0
2AA0
20A0
3FA0
0020
00E0
ENDCHAR
STARTCHAR U+530D
ENCODING 21261
SWIDTH 545 0
DWIDTH 12 0
BBX 11 11 0 -1
BITMAP
2000
3FE0
4520
BFA0
0420
3FA0
24A0
3FA0
24A0
3FA0
24E0
ENDCHAR
STARTCHAR U+530F
ENCODING 21263
SWIDTH 545 0
DWIDTH 12 0
BBX 11 11 0 -1
BITMAP
2200
FBE0
5420
8BA0
FAA0
02A0
FBA0
4240
FA20
0A20
39E0
ENDCHAR
STARTCHAR U+5310
ENCODING 21264
SWIDTH 545 0
DWIDTH 12 0
BBX 11 11 0 -1
BITMAP
2000
3FE0
5220
9E20
0020
3F20
2920
3F20
2920
3F20
00E0
ENDCHAR
STARTCHAR U+5315
ENCODING 21269
SWIDTH 545 0
DWIDTH 12 0
BBX 9 11 2 -1
BITMAP
8000
8000
8080
FF00
8000
8000
8000
8080
8080
8080
7F80
ENDCHAR
STARTCHAR U+5316
ENCODING 21270
SWIDTH 545 0
DWIDTH 12 0
BBX 11 11 0 -1
BITMAP
2800
2800
4800
4820
C8C0
4F00
4800
4800
4820
4820
47E0
ENDCHAR
STARTCHAR U+5317
ENCODING 21271
SWIDTH 545 0
DWIDTH 12 0
BBX 11 11 0 -1
BITMAP
1200
1200
1200
F3E0
1200
1200
1200
3200
D220
1220
11E0
ENDCHAR
STARTCHAR U+5319
ENCODING 21273
SWIDTH 545 0
DWIDTH 12 0
BBX 11 11 0 -1
BITMAP
7D00
4500
7DE0
4500
7D00
0100
FD00
1100
5CE0
5000
BFE0
ENDCHAR
STARTCHAR U+531A
ENCODING 21274
SWIDTH 545 0
DWIDTH 12 0
BBX 10 10 1 -1
BITMAP
FFC0
8000
8000
8000
8000
8000
8000
8000
8000
FFC0
ENDCHAR
STARTCHAR U+531D
ENCODING 21277
SWIDTH 545 0
DWIDTH 12 0
BBX 10 11 1 -1
BITMAP
FFC0
8400
8400
BF80
A480
A480
A480
A580
8400
8000
FFC0
ENDCHAR
STARTCHAR U+5320
ENCODING 21280
SWIDTH 545 0
DWIDTH 12 0
BBX 10 11 1 -1
BITMAP
FFC0
8000
9F80
9000
9000
9F80
9200
9200
A200
8000
FFC0
ENDCHAR
STARTCHAR U+5321
ENCODING 21281
SWIDTH 545 0
DWIDTH 12 0
BBX 10 11 1 -1
BITMAP
FFC0
8000
BF80
8400
8400
BF80
8400
8400
BF80
8000
FFC0
ENDCHAR
STARTCHAR U+5323
ENCODING 21283
SWIDTH 545 0
DWIDTH 12 0
BBX 10 11 1 -1
BITMAP
FFC0
8000
BF80
A480
BF80
A480
BF80
8400
8400
8000
FFC0
ENDCHAR
STARTCHAR U+5326
ENCODING 21286
SWIDTH 545 0
DWIDTH 12 0
BBX 11 11 0 -1
BITMAP
FFC0
A200
FA00
A780
D280
FA80
9280
FAA0
94E0
8000
FFC0
ENDCHAR
STARTCHAR U+532A
ENCODING 21290
SWIDTH 545 0
DWIDTH 12 0
BBX 11 11 0 -1
BITMAP
FFE0
8900
8900
F9E0
8900
B9C0
8900
F9E0
8900
9100
FFE0
ENDCHAR
STARTCHAR U+532E
ENCODING 21294
SWIDTH 545 0
DWIDTH 12 0
BBX 11 11 0 -1
BITMAP
FFE0
8400
BF80
A480
FFC0
A080
A480
A480
8A00
B180
FFE0
ENDCHAR
STARTCHAR U+532F
ENCODING 21295
SWIDTH 545 0
DWIDTH 12 0
BBX 10 11 1 -1
BITMAP
FFC0
A500
97C0
CD00
A7C0
8500
97C0
A500
A7C0
8000
FFC0
ENDCHAR
STARTCHAR U+5331
ENCODING 21297
SWIDTH 545 0
DWIDTH 12 0
BBX 11 11 0 -1
BITMAP
FFE0
8400
BF80
A480
FFC0
A080
BF80
A080
BF80
9100
FFE0
ENDCHAR
STARTCHAR U+5339
ENCODING 21305
SWIDTH 545 0
DWIDTH 12 0
BBX 10 11 1 -1
BITMAP
FFC0
9200
9200
9200
9200
A200
C1C0
8000
8000
8000
FFC0
ENDCHAR
STARTCHAR U+533A
ENCODING 21306
SWIDTH 545 0
DWIDTH 12 0
BBX 10 11 1 -1
BITMAP
FFC0
8000
A100
9100
8A00
8400
8A00
9100
A080
8000
FFC0
ENDCHAR
STARTCHAR U+533B
ENCODING 21307
SWIDTH 545 0
DWIDTH 12 0
BBX 10 11 1 -1
BITMAP
FFC0
9000
9F80
A400
8400
BF80
8400
8A00
B180
8000
FFC0
ENDCHAR
STARTCHAR U+533E
ENCODING 21310
SWIDTH 545 0
DWIDTH 12 0
BBX 11 11 0 -1
BITMAP
FFE0
A000
BF80
A080
BF80
A000
BFC0
B540
DFC0
D540
FFE0
ENDCHAR
STARTCHAR U+533F
ENCODING 21311
SWIDTH 545 0
DWIDTH 12 0
BBX 11 11 0 -1
BITMAP
FFE0
9100
FFC0
9500
FFC0
9000
FF80
9080
9F80
8000
FFE0
ENDCHAR
STARTCHAR U+5340
ENCODING 21312
SWIDTH 545 0
DWIDTH 12 0
BBX 11 11 0 -1
BITMAP
FFE0
8000
9F80
9080
9F80
8000
BBC0
AA40
BBC0
8000
FFE0
ENDCHAR
STARTCHAR U+5341
ENCODING 21313
SWIDTH 545 0
DWIDTH 12 0
BBX 11 11 0 -1
BITMAP
0400
0400
0400
FFE0
0400
0400
0400
0400
0400
0400
0400
ENDCHAR
STARTCHAR U+5343
ENCODING 21315
SWIDTH 545 0
DWIDTH 12 0
BBX 11 11 0 -1
BITMAP
00C0
7F00
0400
0400
0400
FFE0
0400
0400
0400
0400
0400
ENDCHAR
STARTCHAR U+5344
ENCODING 21316
SWIDTH 545 0
DWIDTH 12 0
BBX 11 11 0 -1
BITMAP
1100
1100
1100
FFE0
1100
1100
1100
1100
1100
1100
1100
ENDCHAR
STARTCHAR U+5345
ENCODING 21317
SWIDTH 545 0
DWIDTH 12 0
BBX 11 11 0 -1
BITMAP
2480
2480
2480
2480
FFE0
2480
2480
2480
4480
4480
8480
ENDCHAR
STARTCHAR U+5347
ENCODING 21319
SWIDTH 545 0
DWIDTH 12 0
BBX 11 11 0 -1
BITMAP
0500
7900
1100
1100
FFE0
1100
1100
1100
2100
2100
4100
ENDCHAR
STARTCHAR U+5348
ENCODING 21320
SWIDTH 545 0
DWIDTH 12 0
BBX 11 11 0 -1
BITMAP
2000
3FC0
2400
4400
0400
FFE0
0400
0400
0400
0400
0400
ENDCHAR
STARTCHAR U+5349
ENCODING 21321
SWIDTH 545 0
DWIDTH 12 0
BBX 11 11 0 -1
BITMAP
0400
7FC0
0400
1500
1100
FFE0
1100
1100
1100
2100
C100
ENDCHAR
STARTCHAR U+534A
ENCODING 21322
SWIDTH 545 0
DWIDTH 12 0
BBX 11 11 0 -1
BITMAP
4440
2480
0400
7FC0
0400
0400
FFE0
0400
0400
0400
0400
ENDCHAR
STARTCHAR U+534E
ENCODING 21326
SWIDTH 545 0
DWIDTH 12 0
BBX 11 11 0 -1
BITMAP
1200
23C0
6E00
A220
2220
21E0
0400
FFE0
0400
0400
0400
ENDCHAR
STARTCHAR U+534F
ENCODING 21327
SWIDTH 545 0
DWIDTH 12 0
BBX 11 11 0 -1
BITMAP
4400
5F80
4480
E480
54C0
54A0
64A0
4480
4880
4880
5380
ENDCHAR
STARTCHAR U+5351
ENCODING 21329
SWIDTH 545 0
DWIDTH 12 0
BBX 11 11 0 -1
BITMAP
1000
7FC0
4440
7FC0
4440
7FC0
0A00
FFE0
0200
0200
0200
ENDCHAR
STARTCHAR U+5352
ENCODING 21330
SWIDTH 545 0
DWIDTH 12 0
BBX 11 11 0 -1
BITMAP
0400
FFE0
1100
1100
2A80
4440
FFE0
0400
0400
0400
0400
ENDCHAR
STARTCHAR U+5353
ENCODING 21331
SWIDTH 545 0
DWIDTH 12 0
BBX 11 11 0 -1
BITMAP
0780
0400
3F80
2080
3F80
2080
3F80
0400
FFE0
0400
0400
ENDCHAR
STARTCHAR U+5354
ENCODING 21332
SWIDTH 545 0
DWIDTH 12 0
BBX 11 11 0 -1
BITMAP
4100
4FC0
4240
E5C0
4880
5FE0
4AA0
4AA0
4AA0
5320
5660
ENDCHAR
STARTCHAR U+5355
ENCODING 21333
SWIDTH 545 0
DWIDTH 12 0
BBX 11 12 0 -1
BITMAP
2080
1100
7FC0
4440
7FC0
4440
7FC0
0400
FFE0
0400
0400
0400
ENDCHAR
STARTCHAR U+5356
ENCODING 21334
SWIDTH 545 0
DWIDTH 12 0
BBX 11 11 0 -1
BITMAP
0400
7FC0
0400
7FC0
2040
9480
4400
FFE0
0A00
1100
E0E0
ENDCHAR
STARTCHAR U+5357
ENCODING 21335
SWIDTH 545 0
DWIDTH 12 0
BBX 11 11 0 -1
BITMAP
0400
FFE0
0800
FFE0
9120
8A20
BFA0
8420
BFA0
8420
84E0
ENDCHAR
STARTCHAR U+535A
ENCODING 21338
SWIDTH 545 0
DWIDTH 12 0
BBX 11 11 0 -1
BITMAP
4140
5FE0
4100
EFE0
4920
4FE0
4920
4040
5FE0
4440
42C0
ENDCHAR
STARTCHAR U+535C
ENCODING 21340
SWIDTH 545 0
DWIDTH 12 0
BBX 5 11 3 -1
BITMAP
80
80
80
80
C0
B0
88
80
80
80
80
ENDCHAR
STARTCHAR U+535E
ENCODING 21342
SWIDTH 545 0
DWIDTH 12 0
BBX 11 11 0 -1
BITMAP
0800
0400
FFE0
0400
0600
0500
0480
0400
0400
0400
0400
ENDCHAR
STARTCHAR U+535F
ENCODING 21343
SWIDTH 545 0
DWIDTH 12 0
BBX 10 11 0 -1
BITMAP
0200
F200
9200
9300
9280
9240
9200
9200
F200
0200
0200
ENDCHAR
STARTCHAR U+5360
ENCODING 21344
SWIDTH 545 0
DWIDTH 12 0
BBX 9 11 1 -1
BITMAP
0800
0800
0F80
0800
0800
FF80
8080
8080
8080
FF80
8080
ENDCHAR
STARTCHAR U+5361
ENCODING 21345
SWIDTH 545 0
DWIDTH 12 0
BBX 11 11 0 -1
BITMAP
0400
07C0
0400
0400
FFE0
0400
0600
0500
0480
0400
0400
ENDCHAR
STARTCHAR U+5362
ENCODING 21346
SWIDTH 545 0
DWIDTH 12 0
BBX 11 11 0 -1
BITMAP
0200
03E0
0200
3FE0
2020
2020
3FE0
2000
2000
4000
8000
ENDCHAR
STARTCHAR U+5363
ENCODING 21347
SWIDTH 545 0
DWIDTH 12 0
BBX 10 11 1 -1
BITMAP
0800
0FC0
0800
FF80
8080
FC80
8480
FC80
8080
FF80
8080
ENDCHAR
STARTCHAR U+5364
ENCODING 21348
SWIDTH 545 0
DWIDTH 12 0
BBX 10 11 1 -1
BITMAP
0800
0FC0
0800
FF80
A280
9480
8880
9480
A280
8080
FF80
ENDCHAR
STARTCHAR U+5366
ENCODING 21350
SWIDTH 545 0
DWIDTH 12 0
BBX 11 11 0 -1
BITMAP
1080
7C80
1080
1080
FEC0
10A0
1080
7C80
1080
1080
FE80
ENDCHAR
STARTCHAR U+5367
ENCODING 21351
SWIDTH 545 0
DWIDTH 12 0
BBX 11 11 0 -1
BITMAP
FD00
9100
9100
FD80
8540
8520
FD00
9100
9100
9100
FD00
ENDCHAR
STARTCHAR U+5369
ENCODING 21353
SWIDTH 545 0
DWIDTH 12 0
BBX 5 11 4 -1
BITMAP
F8
88
88
88
88
88
88
88
B8
80
80
ENDCHAR
STARTCHAR U+536B
ENCODING 21355
SWIDTH 545 0
DWIDTH 12 0
BBX 11 10 0 -1
BITMAP
7FC0
0440
0440
0440
0440
0440
0580
0400
0400
FFE0
ENDCHAR
STARTCHAR U+536E
ENCODING 21358
SWIDTH 545 0
DWIDTH 12 0
BBX 11 11 0 -1
BITMAP
00C0
7F00
4000
7FE0
4000
4F80
4880
4880
4B20
8820
87E0
ENDCHAR
STARTCHAR U+536F
ENCODING 21359
SWIDTH 545 0
DWIDTH 12 0
BBX 11 11 0 -1
BITMAP
1BE0
E220
8A20
8A20
8A20
8A20
B220
D220
12E0
2200
4200
ENDCHAR
STARTCHAR U+5370
ENCODING 21360
SWIDTH 545 0
DWIDTH 12 0
BBX 11 11 0 -1
BITMAP
1BE0
E220
8220
8220
FA20
8220
8220
8220
9AE0
E200
0200
ENDCHAR
STARTCHAR U+5371
ENCODING 21361
SWIDTH 545 0
DWIDTH 12 0
BBX 11 11 0 -1
BITMAP
1F00
2100
FFE0
4000
4F80
4880
4880
4B00
4820
8820
8FE0
ENDCHAR
STARTCHAR U+5373
ENCODING 21363
SWIDTH 545 0
DWIDTH 12 0
BBX 11 10 0 0
BITMAP
F9E0
8920
F920
8920
F920
8120
8920
8920
B560
C100
ENDCHAR
STARTCHAR U+5374
ENCODING 21364
SWIDTH 545 0
DWIDTH 12 0
BBX 11 11 0 -1
BITMAP
11E0
1120
7D20
1120
1120
FF20
2120
2120
4560
4500
FB00
ENDCHAR
STARTCHAR U+5375
ENCODING 21365
SWIDTH 545 0
DWIDTH 12 0
BBX 11 11 0 -1
BITMAP
1BE0
E220
8220
CB20
AAA0
8A60
9A20
EA20
0AE0
1200
6200
ENDCHAR
STARTCHAR U+5377
ENCODING 21367
SWIDTH 545 0
DWIDTH 12 0
BBX 11 11 0 -1
BITMAP
2480
1500
7FC0
0800
FFE0
2080
7F40
A120
2640
2040
1FC0
ENDCHAR
STARTCHAR U+5378
ENCODING 21368
SWIDTH 545 0
DWIDTH 12 0
BBX 11 11 0 -1
BITMAP
4000
7DE0
9120
1120
FD20
1120
5D20
5120
5160
5D00
F100
ENDCHAR
STARTCHAR U+5379
ENCODING 21369
SWIDTH 545 0
DWIDTH 12 0
BBX 11 11 0 -1
BITMAP
2000
40E0
FEA0
AAA0
AAA0
AAA0
AAA0
AAA0
AAE0
FF80
0080
ENDCHAR
STARTCHAR U+537A
ENCODING 21370
SWIDTH 545 0
DWIDTH 12 0
BBX 11 11 0 -1
BITMAP
0F20
7240
1580
2440
DFA0
0000
3F80
2080
2320
2020
1FE0
ENDCHAR
STARTCHAR U+537B
ENCODING 21371
SWIDTH 545 0
DWIDTH 12 0
BBX 11 11 0 -1
BITMAP
45E0
9320
2920
4520
8320
7D20
4520
4520
45E0
7D00
4500
ENDCHAR
STARTCHAR U+537F
ENCODING 21375
SWIDTH 545 0
DWIDTH 12 0
BBX 11 11 0 -1
BITMAP
2EE0
CAA0
8EA0
AAA0
AAA0
AEA0
A8A0
EAE0
2A80
4D80
8080
ENDCHAR
STARTCHAR U+5382
ENCODING 21378
SWIDTH 545 0
DWIDTH 12 0
BBX 11 11 0 -1
BITMAP
7FE0
4000
4000
4000
4000
4000
4000
4000
4000
8000
8000
ENDCHAR
STARTCHAR U+5384
ENCODING 21380
SWIDTH 545 0
DWIDTH 12 0
BBX 11 11 0 -1
BITMAP
7FE0
4000
5F80
5080
5080
5080
5300
5000
5040
9040
8FC0
ENDCHAR
STARTCHAR U+5385
ENCODING 21381
SWIDTH 545 0
DWIDTH 12 0
BBX 11 11 0 -1
BITMAP
7FE0
4000
4000
7FE0
4200
4200
4200
4200
4200
8200
8E00
ENDCHAR
STARTCHAR U+5386
ENCODING 21382
SWIDTH 545 0
DWIDTH 12 0
BBX 11 11 0 -1
BITMAP
7FE0
4200
4200
7FE0
4220
4220
4220
4420
4420
8820
B0E0
ENDCHAR
STARTCHAR U+5389
ENCODING 21385
SWIDTH 545 0
DWIDTH 12 0
BBX 11 11 0 -1
BITMAP
7FE0
4000
5FE0
4400
47C0
4440
4440
4440
4440
8840
B1C0
ENDCHAR
STARTCHAR U+538B
ENCODING 21387
SWIDTH 545 0
DWIDTH 12 0
BBX 11 11 0 -1
BITMAP
7FE0
4000
4200
4200
5FC0
4200
4200
4280
4240
8200
BFE0
ENDCHAR
STARTCHAR U+538C
ENCODING 21388
SWIDTH 545 0
DWIDTH 12 0
BBX 11 11 0 -1
BITMAP
7FE0
4000
4280
4240
7FE0
4200
4200
4500
4500
8880
B060
ENDCHAR
STARTCHAR U+538D
ENCODING 21389
SWIDTH 545 0
DWIDTH 12 0
BBX 11 11 0 -1
BITMAP
7FE0
4400
5FC0
4800
5200
5FC0
4200
7FE0
4200
8200
8200
ENDCHAR
STARTCHAR U+5395
ENCODING 21397
SWIDTH 545 0
DWIDTH 12 0
BBX 11 11 0 -1
BITMAP
FFE0
8000
BE20
A2A0
AAA0
AAA0
AAA0
AAA0
88A0
9420
A2E0
ENDCHAR
STARTCHAR U+5398
ENCODING 21400
SWIDTH 545 0
DWIDTH 12 0
BBX 11 11 0 -1
BITMAP
7FE0
4000
5FC0
5240
5FC0
5240
5FC0
4200
5FC0
8200
BFE0
ENDCHAR
STARTCHAR U+539A
ENCODING 21402
SWIDTH 545 0
DWIDTH 12 0
BBX 11 11 0 -1
BITMAP
7FE0
5040
5FC0
5040
5FE0
4080
4100
5FE0
4100
8100
8700
ENDCHAR
STARTCHAR U+539D
ENCODING 21405
SWIDTH 545 0
DWIDTH 12 0
BBX 11 11 0 -1
BITMAP
7FE0
4880
7FE0
4880
7FE0
4000
5FC0
5040
5FC0
9040
9FC0
ENDCHAR
STARTCHAR U+539F
ENCODING 21407
SWIDTH 545 0
DWIDTH 12 0
BBX 11 11 0 -1
BITMAP
7FE0
4400
5FC0
5040
5FC0
5040
5FC0
4200
4A80
9240
A620
ENDCHAR
STARTCHAR U+53A2
ENCODING 21410
SWIDTH 545 0
DWIDTH 12 0
BBX 11 10 0 0
BITMAP
7FE0
4000
49E0
4920
7FE0
4920
4DE0
5B20
A9E0
8920
ENDCHAR
STARTCHAR U+53A3
ENCODING 21411
SWIDTH 545 0
DWIDTH 12 0
BBX 11 11 0 -1
BITMAP
7FE0
4240
7FE0
4880
7060
5FC0
5240
5FC0
5240
9FC0
8200
ENDCHAR
STARTCHAR U+53A5
ENCODING 21413
SWIDTH 545 0
DWIDTH 12 0
BBX 11 11 0 -1
BITMAP
7FE0
4000
5500
7FE0
4920
6A80
6A80
7E80
5140
9220
A420
ENDCHAR
STARTCHAR U+53A6
ENCODING 21414
SWIDTH 545 0
DWIDTH 12 0
BBX 11 11 0 -1
BITMAP
7FE0
4400
5FC0
5040
5FC0
5040
5FE0
6880
4880
8700
B8E0
ENDCHAR
STARTCHAR U+53A8
ENCODING 21416
SWIDTH 545 0
DWIDTH 12 0
BBX 11 11 0 -1
BITMAP
FFE0
8000
BC40
83E0
BC40
A440
BD40
80C0
A440
9440
BDC0
ENDCHAR
STARTCHAR U+53A9
ENCODING 21417
SWIDTH 545 0
DWIDTH 12 0
BBX 11 11 0 -1
BITMAP
FFE0
9000
BBE0
A880
BA80
AA80
BBE0
A080
B9A0
A2A0
9C60
ENDCHAR
STARTCHAR U+53AD
ENCODING 21421
SWIDTH 545 0
DWIDTH 12 0
BBX 11 11 0 -1
BITMAP
7FE0
5200
5EA0
5280
5FE0
4080
5E80
5280
5E80
9340
AE20
ENDCHAR
STARTCHAR U+53AE
ENCODING 21422
SWIDTH 545 0
DWIDTH 12 0
BBX 11 11 0 -1
BITMAP
7FE0
5420
7FC0
5500
5DE0
5540
5D40
5540
7F40
9540
A240
ENDCHAR
STARTCHAR U+53B2
ENCODING 21426
SWIDTH 545 0
DWIDTH 12 0
BBX 11 11 0 -1
BITMAP
7FE0
4880
7FE0
4880
5FC0
5240
5FC0
5240
7FE0
A2A0
AF60
ENDCHAR
STARTCHAR U+53B6
ENCODING 21430
SWIDTH 545 0
DWIDTH 12 0
BBX 10 9 1 -1
BITMAP
0800
0800
0800
1000
1100
2100
2080
4080
FF40
ENDCHAR
STARTCHAR U+53BB
ENCODING 21435
SWIDTH 545 0
DWIDTH 12 0
BBX 11 11 0 -1
BITMAP
0400
0400
7FC0
0400
0400
FFE0
1000
1100
2080
2080
7F40
ENDCHAR
STARTCHAR U+53BF
ENCODING 21439
SWIDTH 545 0
DWIDTH 12 0
BBX 11 11 0 -1
BITMAP
1F80
1080
1F80
1080
1F80
1080
FFE0
0800
1080
2040
7FA0
ENDCHAR
STARTCHAR U+53C1
ENCODING 21441
SWIDTH 545 0
DWIDTH 12 0
BBX 11 11 0 -1
BITMAP
0800
1100
3E80
0400
FFE0
2080
5F40
8020
3F80
0000
FFE0
ENDCHAR
STARTCHAR U+53C2
ENCODING 21442
SWIDTH 545 0
DWIDTH 12 0
BBX 11 11 0 -1
BITMAP
0900
1080
3F40
0800
FFE0
2480
5940
8620
3880
0300
3C00
ENDCHAR
STARTCHAR U+53C3
ENCODING 21443
SWIDTH 545 0
DWIDTH 12 0
BBX 11 11 0 -1
BITMAP
0900
1080
7F40
3180
4E40
3580
5940
8620
3880
0300
3C00
ENDCHAR
STARTCHAR U+53C8
ENCODING 21448
SWIDTH 545 0
DWIDTH 12 0
BBX 11 10 0 -1
BITMAP
7FC0
2080
2080
1100
0A00
0400
0A00
1100
2080
C060
ENDCHAR
STARTCHAR U+53C9
ENCODING 21449
SWIDTH 545 0
DWIDTH 12 0
BBX 11 10 0 -1
BITMAP
7FC0
0880
2480
1100
1100
0A00
0400
0A00
3180
C060
ENDCHAR
STARTCHAR U+53CA
ENCODING 21450
SWIDTH 545 0
DWIDTH 12 0
BBX 10 10 1 -1
BITMAP
FF00
4200
4400
7F80
4080
5080
4900
4600
8900
B0C0
ENDCHAR
STARTCHAR U+53CB
ENCODING 21451
SWIDTH 545 0
DWIDTH 12 0
BBX 11 11 0 -1
BITMAP
0800
FFE0
0800
0F80
1080
1080
2880
2500
4200
8500
38E0
ENDCHAR
STARTCHAR U+53CC
ENCODING 21452
SWIDTH 545 0
DWIDTH 12 0
BBX 11 11 0 -1
BITMAP
FBE0
0820
8A20
8A20
8A20
5140
5140
2080
2080
5140
8A20
ENDCHAR
STARTCHAR U+53CD
ENCODING 21453
SWIDTH 545 0
DWIDTH 12 0
BBX 10 11 1 -1
BITMAP
7FC0
4000
4000
7F80
4080
5080
4900
4600
4900
9080
A040
ENDCHAR
STARTCHAR U+53D1
ENCODING 21457
SWIDTH 545 0
DWIDTH 12 0
BBX 11 11 0 -1
BITMAP
2480
2440
7FE0
0800
0FC0
0C40
1440
1280
2100
C280
0C60
ENDCHAR
STARTCHAR U+53D4
ENCODING 21460
SWIDTH 545 0
DWIDTH 12 0
BBX 11 11 0 -1
BITMAP
2000
3BE0
2220
2220
FA20
2140
A940
A880
A880
2140
6220
ENDCHAR
STARTCHAR U+53D6
ENCODING 21462
SWIDTH 545 0
DWIDTH 12 0
BBX 11 11 0 -1
BITMAP
FC00
4BE0
4A20
7A20
4A20
4940
7940
4880
4880
FD40
0A20
ENDCHAR
STARTCHAR U+53D7
ENCODING 21463
SWIDTH 545 0
DWIDTH 12 0
BBX 11 11 0 -1
BITMAP
01E0
FE80
4880
2500
FFE0
8020
7FC0
2080
1100
0E00
F1E0
ENDCHAR
STARTCHAR U+53D8
ENCODING 21464
SWIDTH 545 0
DWIDTH 12 0
BBX 11 11 0 -1
BITMAP
0400
FFE0
1100
5140
9120
7FC0
2080
1100
0E00
1100
E0E0
ENDCHAR
STARTCHAR U+53D9
ENCODING 21465
SWIDTH 545 0
DWIDTH 12 0
BBX 11 11 0 -1
BITMAP
2000
53E0
8A20
FA20
2220
2140
F940
2080
A880
A940
6220
ENDCHAR
STARTCHAR U+53DB
ENCODING 21467
SWIDTH 545 0
DWIDTH 12 0
BBX 11 11 0 -1
BITMAP
A7E0
6C00
3400
FFE0
2420
2620
FD40
2540
2480
4940
8A20
ENDCHAR
STARTCHAR U+53DF
ENCODING 21471
SWIDTH 545 0
DWIDTH 12 0
BBX 11 11 0 -1
BITMAP
75C0
4440
75C0
4440
75C0
0400
7FC0
1100
0E00
3180
C060
ENDCHAR
STARTCHAR U+53E0
ENCODING 21472
SWIDTH 545 0
DWIDTH 12 0
BBX 11 11 0 -1
BITMAP
3F80
1100
FFE0
4A40
FFE0
A0A0
3F80
2080
3F80
2080
FFE0
ENDCHAR
STARTCHAR U+53E3
ENCODING 21475
SWIDTH 545 0
DWIDTH 12 0
BBX 9 10 1 -1
BITMAP
FF80
8080
8080
8080
8080
8080
8080
8080
FF80
8080
ENDCHAR
STARTCHAR U+53E4
ENCODING 21476
SWIDTH 545 0
DWIDTH 12 0
BBX 11 11 0 -1
BITMAP
0400
0400
FFE0
0400
0400
3F80
2080
2080
2080
2080
3F80
ENDCHAR
STARTCHAR U+53E5
ENCODING 21477
SWIDTH 545 0
DWIDTH 12 0
BBX 11 11 0 -1
BITMAP
2000
3FE0
2020
4020
9E20
1220
1220
1220
1E20
0020
00E0
ENDCHAR
STARTCHAR U+53E6
ENCODING 21478
SWIDTH 545 0
DWIDTH 12 0
BBX 10 11 0 -1
BITMAP
3F80
2080
2080
3F80
0400
7FC0
0840
0840
1040
2040
C1C0
ENDCHAR
STARTCHAR U+53E8
ENCODING 21480
SWIDTH 545 0
DWIDTH 12 0
BBX 11 11 0 -1
BITMAP
0FE0
F220
9220
9220
9220
9220
9220
9220
F420
0420
08E0
ENDCHAR
STARTCHAR U+53E9
ENCODING 21481
SWIDTH 545 0
DWIDTH 12 0
BBX 11 11 0 -1
BITMAP
F3E0
9220
9220
9220
9220
9220
9220
9220
F2E0
0200
0200
ENDCHAR
STARTCHAR U+53EA
ENCODING 21482
SWIDTH 545 0
DWIDTH 12 0
BBX 10 11 1 -1
BITMAP
7F80
4080
4080
4080
4080
7F80
0000
1200
2100
4080
8040
ENDCHAR
STARTCHAR U+53EB
ENCODING 21483
SWIDTH 545 0
DWIDTH 12 0
BBX 10 11 0 -1
BITMAP
0040
F440
9440
9440
9440
9440
9440
95C0
9640
F040
0040
ENDCHAR
STARTCHAR U+53EC
ENCODING 21484
SWIDTH 545 0
DWIDTH 12 0
BBX 9 11 1 -1
BITMAP
FF80
1080
1080
2080
C380
0000
7F80
4080
4080
4080
7F80
ENDCHAR
STARTCHAR U+53ED
ENCODING 21485
SWIDTH 545 0
DWIDTH 12 0
BBX 11 10 0 -1
BITMAP
E480
A480
A480
A480
A480
A480
A840
E840
1020
2020
ENDCHAR
STARTCHAR U+53EE
ENCODING 21486
SWIDTH 545 0
DWIDTH 12 0
BBX 11 11 0 -1
BITMAP
0FE0
E100
A100
A100
A100
A100
A100
A100
E100
0100
0700
ENDCHAR
STARTCHAR U+53EF
ENCODING 21487
SWIDTH 545 0
DWIDTH 12 0
BBX 11 11 0 -1
BITMAP
FFE0
0080
0080
3C80
2480
2480
2480
3C80
0080
0080
0380
ENDCHAR
STARTCHAR U+53F0
ENCODING 21488
SWIDTH 545 0
DWIDTH 12 0
BBX 11 11 0 -1
BITMAP
1000
2080
4040
FFA0
0000
7FC0
4040
4040
4040
4040
7FC0
ENDCHAR
STARTCHAR U+53F1
ENCODING 21489
SWIDTH 545 0
DWIDTH 12 0
BBX 11 11 0 -1
BITMAP
0200
F200
9260
9380
9E00
9200
9200
9200
9220
F220
01E0
ENDCHAR
STARTCHAR U+53F2
ENCODING 21490
SWIDTH 545 0
DWIDTH 12 0
BBX 11 11 0 -1
BITMAP
0400
0400
7FC0
4440
4440
7FC0
0400
3400
0C00
3300
C0E0
ENDCHAR
STARTCHAR U+53F3
ENCODING 21491
SWIDTH 545 0
DWIDTH 12 0
BBX 11 11 0 -1
BITMAP
0400
FFE0
0400
0800
1FC0
3040
D040
1040
1040
1FC0
1040
ENDCHAR
STARTCHAR U+53F5
ENCODING 21493
SWIDTH 545 0
DWIDTH 12 0
BBX 10 11 1 -1
BITMAP
FFC0
8000
8000
9F00
9100
9100
9100
9F00
8000
8000
FFC0
ENDCHAR
STARTCHAR U+53F6
ENCODING 21494
SWIDTH 545 0
DWIDTH 12 0
BBX 11 11 0 -1
BITMAP
0100
E100
A100
AFE0
A100
A100
A100
A100
A100
E100
0100
ENDCHAR
STARTCHAR U+53F7
ENCODING 21495
SWIDTH 545 0
DWIDTH 12 0
BBX 11 11 0 -1
BITMAP
3F80
2080
3F80
0000
FFE0
1000
3F80
0080
0080
0080
0780
ENDCHAR
STARTCHAR U+53F8
ENCODING 21496
SWIDTH 545 0
DWIDTH 12 0
BBX 10 11 0 -1
BITMAP
FFC0
0040
7F40
0040
7E40
4240
4240
7E40
0040
0040
01C0
ENDCHAR
STARTCHAR U+53F9
ENCODING 21497
SWIDTH 545 0
DWIDTH 12 0
BBX 11 11 0 -1
BITMAP
0FE0
F040
9440
9440
9280
9280
9100
9100
9280
F440
0820
ENDCHAR
STARTCHAR U+53FB
ENCODING 21499
SWIDTH 545 0
DWIDTH 12 0
BBX 11 11 0 -1
BITMAP
0100
E100
AFE0
A120
A120
A120
A220
A220
E420
0420
08E0
ENDCHAR
STARTCHAR U+53FC
ENCODING 21500
SWIDTH 545 0
DWIDTH 12 0
BBX 11 11 0 -1
BITMAP
0FE0
E020
A020
A020
A0A0
A320
AC20
A020
A020
E020
00E0
ENDCHAR
STARTCHAR U+53FD
ENCODING 21501
SWIDTH 545 0
DWIDTH 12 0
BBX 11 11 0 -1
BITMAP
EF80
A880
A880
A880
A880
A880
A880
A880
E8A0
10A0
6060
ENDCHAR
STARTCHAR U+5401
ENCODING 21505
SWIDTH 545 0
DWIDTH 12 0
BBX 11 11 0 -1
BITMAP
0FE0
E100
A100
A100
AFE0
A100
A100
A100
A100
E100
0700
ENDCHAR
STARTCHAR U+5403
ENCODING 21507
SWIDTH 545 0
DWIDTH 12 0
BBX 11 11 0 -1
BITMAP
0400
E7E0
A800
B000
A7C0
A080
A100
A200
A420
E420
03E0
ENDCHAR
STARTCHAR U+5404
ENCODING 21508
SWIDTH 545 0
DWIDTH 12 0
BBX 11 11 0 -1
BITMAP
1000
1F80
2100
4A00
0400
1B00
E0E0
3F80
2080
2080
3F80
ENDCHAR
STARTCHAR U+5406
ENCODING 21510
SWIDTH 545 0
DWIDTH 12 0
BBX 11 10 0 0
BITMAP
0200
E200
A480
A480
AF00
A100
A200
A440
E840
1FA0
ENDCHAR
STARTCHAR U+5408
ENCODING 21512
SWIDTH 545 0
DWIDTH 12 0
BBX 11 11 0 -1
BITMAP
0400
0A00
1100
2080
DF60
0000
3F80
2080
2080
2080
3F80
ENDCHAR
STARTCHAR U+5409
ENCODING 21513
SWIDTH 545 0
DWIDTH 12 0
BBX 11 11 0 -1
BITMAP
0400
FFE0
0400
0400
7FC0
0000
3F80
2080
2080
2080
3F80
ENDCHAR
STARTCHAR U+540A
ENCODING 21514
SWIDTH 545 0
DWIDTH 12 0
BBX 9 11 1 -1
BITMAP
7F00
4100
4100
7F00
0800
FF80
8880
8880
8880
8B80
0800
ENDCHAR
STARTCHAR U+540B
ENCODING 21515
SWIDTH 545 0
DWIDTH 12 0
BBX 11 11 0 -1
BITMAP
0080
E080
BFE0
A080
A880
A480
A280
A080
A080
E080
0380
ENDCHAR
STARTCHAR U+540C
ENCODING 21516
SWIDTH 545 0
DWIDTH 12 0
BBX 11 11 0 -1
BITMAP
FFE0
8020
BFA0
8020
9F20
9120
9120
9F20
8020
8020
80E0
ENDCHAR
STARTCHAR U+540D
ENCODING 21517
SWIDTH 545 0
DWIDTH 12 0
BBX 11 11 0 -1
BITMAP
0400
0FC0
1080
2900
0600
0FE0
3820
C820
0820
0FE0
0820
ENDCHAR
ENDFONT
